<svg xmlns="http://www.w3.org/2000/svg" viewBox="0 0 800 400">
<path d="M267,377L267,379L266,380L261,379L256,379L253,379L253,379L252,378L257,378L262,378L264,377L265,377L267,377Z"/><path d="M46,376L41,377L39,376L37,375L37,375L36,374L37,373L41,374L43,374L45,375L46,376Z"/><path d="M299,373L302,374L303,375L303,376L303,377L300,378L296,379L292,379L287,380L282,379L279,379L280,378L284,377L286,376L288,376L289,375L290,374L291,373L293,373L296,373L299,373Z"/><path d="M130,363L133,363L136,363L134,364L132,364L129,364L127,363L128,362L130,363Z"/><path d="M180,359L182,360L184,359L186,361L184,361L181,361L179,361L176,361L173,360L172,359L174,359L176,359L180,359Z"/><path d="M247,357L248,358L247,359L247,360L244,360L242,361L239,361L240,360L237,360L235,360L233,360L233,359L235,358L237,358L239,358L240,357L240,356L240,354L241,353L243,353L245,353L245,354L246,355L247,356L247,357Z"/><path d="M0,388L12,387L64,389L60,383L73,377L51,371L75,367L102,365L136,364L161,367L170,363L194,362L220,363L246,362L248,353L258,344L269,342L258,347L261,356L258,366L229,371L232,378L273,384L319,380L320,375L346,369L365,362L384,357L409,357L429,355L452,356L475,352L495,352L515,347L534,350L554,353L557,360L573,353L592,349L611,349L631,346L654,346L675,348L699,347L715,348L738,353L761,357L778,362L763,370L757,378L782,386Z"/><path d="M249,319L252,321L255,321L254,322L252,322L251,322L250,322L248,323L246,323L244,322L242,322L239,321L237,319L234,317L235,317L239,319L242,320L243,319L243,317L245,316L247,317L248,318L249,319Z"/><path d="M269,313L271,314L271,315L268,316L267,315L265,316L264,315L266,313L268,314L269,313Z"/><path d="M556,310L552,310L552,309L553,308L553,308L554,308L556,309L556,309L556,310Z"/><path d="M723,290L725,291L726,291L728,290L729,290L729,293L728,294L728,296L727,295L726,297L725,296L724,296L723,294L722,293L721,291L721,290L723,290Z"/><path d="M784,290L785,291L786,290L787,291L787,292L786,293L784,295L783,296L784,297L782,297L781,298L780,299L779,302L777,303L776,303L774,303L772,302L770,302L770,301L771,300L774,298L775,297L777,296L778,295L780,294L781,292L782,292L782,291L784,290L784,290Z"/><path d="M788,280L789,282L789,281L790,281L791,283L792,284L794,284L795,283L796,283L796,285L795,287L793,287L793,287L793,288L793,289L792,290L791,291L789,292L789,292L788,291L789,289L788,288L786,287L786,287L787,286L788,284L788,283L787,281L787,281L786,280L784,278L783,276L784,276L785,277L787,278L788,280Z"/><path d="M771,249L770,249L769,249L767,248L766,247L764,245L764,244L765,244L766,245L767,246L768,246L770,248L771,249Z"/><path d="M796,238L797,239L796,240L795,240L794,240L794,239L794,238L795,238L796,238Z"/><path d="M0,236L798,237L797,237L796,237L798,236L798,236L0,235L0,235L0,235L0,236L0,236Z"/><path d="M511,230L511,232L512,233L511,234L511,235L510,234L510,234L510,236L510,237L510,238L509,239L509,242L507,245L506,249L505,252L504,255L502,256L500,256L499,256L497,255L497,254L497,252L496,250L496,249L496,247L497,247L497,246L498,244L498,243L498,242L497,240L497,238L498,237L498,236L499,236L501,235L501,235L502,235L504,233L506,232L506,231L506,230L507,230L508,229L508,227L509,226L510,227L510,228L511,230Z"/><path d="M719,230L723,233L724,237L727,243L731,247L735,249L739,256L741,262L740,268L736,275L733,280L729,284L723,285L719,286L712,284L709,279L706,277L706,274L702,277L698,273L691,270L680,271L674,275L668,275L663,277L656,276L657,273L655,268L654,263L651,258L653,258L652,254L652,249L656,247L661,246L665,244L670,241L673,236L675,235L678,232L680,231L685,233L688,230L691,227L692,225L698,226L702,226L702,229L701,232L705,236L709,238L713,236L714,231L714,227L716,223L718,227Z"/><path d="M676,222L674,223L674,222L674,222L675,220L677,219L678,219L679,218L681,218L682,218L683,218L682,219L679,220L678,220L676,222Z"/><path d="M662,218L662,218L664,218L664,219L662,219L660,220L659,220L660,218L661,218L662,218Z"/><path d="M673,218L672,219L669,219L666,219L666,218L668,218L669,219L671,218L673,218Z"/><path d="M755,218L755,219L753,218L752,217L751,216L751,216L752,216L754,217L755,218Z"/><path d="M641,215L645,215L646,214L650,215L651,216L654,217L657,218L654,219L652,218L650,218L647,218L645,218L643,217L641,217L640,217L636,216L636,215L634,215L635,213L638,213L640,214L641,214L641,215Z"/><path d="M746,215L745,215L744,214L743,213L743,211L743,211L743,211L744,212L745,213L746,214L746,215Z"/><path d="M737,212L736,212L736,213L735,213L733,214L732,214L730,213L729,212L729,212L731,212L733,212L733,211L733,211L733,212L735,212L735,211L737,210L736,209L738,209L738,209L738,210L737,212Z"/><path d="M689,206L690,208L688,207L687,207L685,207L684,207L684,206L687,206L689,206Z"/><path d="M740,210L739,210L739,209L738,208L737,207L736,206L734,206L735,205L736,206L737,206L738,207L739,208L740,208L740,210Z"/><path d="M698,202L698,206L701,207L702,205L705,203L707,203L709,204L711,205L713,205L717,207L721,208L722,209L724,210L724,212L728,213L728,214L726,214L727,216L729,217L730,220L731,220L731,221L733,221L732,221L735,222L734,223L733,223L732,223L730,222L728,222L727,221L725,219L724,217L721,217L719,217L718,218L718,220L717,220L715,220L713,220L711,218L709,218L708,218L705,218L706,216L708,216L707,213L706,212L702,210L700,209L697,207L696,208L695,209L695,208L695,207L693,206L695,205L697,205L697,204L693,204L693,203L691,203L690,202L693,201L694,200L697,201L698,202Z"/><path d="M678,196L676,199L674,199L672,199L669,199L667,199L666,201L668,203L669,202L674,201L673,202L672,202L672,203L670,204L672,207L671,207L673,210L673,211L672,212L671,211L672,209L670,210L670,210L670,209L668,208L668,205L667,206L667,209L667,212L666,212L665,212L665,209L665,207L664,207L663,206L664,204L665,203L666,199L666,198L668,197L670,197L673,198L675,198L677,196L678,196Z"/><path d="M686,197L685,199L684,199L684,200L685,201L684,202L683,200L683,197L683,196L684,195L684,196L685,196L686,197Z"/><path d="M635,213L632,213L630,211L628,209L627,208L625,206L624,204L622,201L620,199L619,197L619,195L617,194L616,192L614,191L612,189L611,187L613,187L616,188L618,190L620,192L621,192L623,195L625,195L627,196L629,198L630,199L629,201L631,202L631,202L632,204L633,205L634,205L635,206L635,209L635,213Z"/><path d="M661,195L664,198L661,198L661,199L661,201L659,203L659,205L658,208L657,208L655,209L654,207L652,207L651,206L649,207L648,206L646,206L644,206L644,203L643,202L642,201L642,199L642,197L643,195L645,196L647,195L647,194L648,193L651,193L652,191L653,189L654,189L656,187L658,186L659,184L660,184L661,185L661,186L663,187L664,188L664,188L663,189L663,190L662,190L660,192L662,194L661,195Z"/><path d="M680,181L681,182L681,184L680,186L679,183L678,184L679,186L678,187L676,186L675,184L676,183L674,182L674,183L672,183L671,184L670,184L671,182L673,181L674,180L675,181L676,181L677,180L678,180L678,178L680,179L680,180L680,181Z"/><path d="M580,186L578,186L577,185L577,181L578,178L579,179L580,181L581,183L581,185L580,186Z"/><path d="M675,177L674,177L674,179L673,180L672,178L672,177L673,177L673,175L674,175L674,177L675,175L675,177Z"/><path d="M663,179L660,181L661,179L663,178L664,176L665,174L666,176L664,177L663,179Z"/><path d="M670,173L672,174L673,174L673,175L672,176L671,176L671,175L671,174L670,173Z"/><path d="M678,173L679,175L677,174L677,175L678,177L677,177L677,175L676,175L676,174L677,174L677,173L676,172L678,172L678,173Z"/><path d="M669,158L671,159L671,158L671,159L671,160L672,162L671,163L670,164L670,166L670,168L671,168L672,168L675,169L675,170L676,171L675,172L674,171L673,169L672,170L671,169L669,169L668,169L668,168L668,167L668,167L667,168L666,166L666,165L666,163L667,164L667,160L668,158L669,158Z"/><path d="M254,159L253,160L252,160L250,160L250,159L250,158L252,158L253,159L254,159Z"/><path d="M229,160L228,160L227,160L225,159L226,159L227,158L227,158L229,159L230,159L230,160L229,160Z"/><path d="M238,155L240,156L240,155L242,155L244,156L244,156L245,157L246,157L246,157L247,157L248,158L247,159L246,159L245,159L244,159L244,159L243,159L243,159L242,159L241,160L240,160L240,159L239,159L238,159L236,159L235,159L234,159L234,158L236,158L238,159L239,158L238,157L238,156L236,156L237,155L238,155Z"/><path d="M645,158L643,159L641,158L641,157L642,156L644,155L646,155L646,156L645,157L645,158Z"/><path d="M54,157L54,158L53,157L53,157L53,156L53,156L53,155L53,155L53,155L53,155L54,155L55,155L55,155L56,156L55,156L55,157L54,157Z"/><path d="M222,149L223,150L225,150L226,150L228,151L229,152L230,152L232,153L231,153L233,154L235,154L234,155L233,155L231,155L230,155L227,155L228,154L227,154L226,153L225,153L225,152L223,152L221,151L221,151L218,150L217,150L218,149L216,149L214,150L213,150L213,151L212,151L211,151L212,150L212,149L213,149L215,148L216,148L217,148L219,148L220,148L222,149Z"/><path d="M669,149L668,151L667,149L666,147L668,145L670,143L671,144L670,145L669,149Z"/><path d="M699,124L699,124L698,126L697,125L696,126L695,127L694,126L694,125L695,124L696,124L697,123L699,124Z"/><path d="M476,120L475,121L475,122L475,122L473,123L472,122L471,122L472,121L472,121L473,121L474,121L476,120Z"/><path d="M452,120L453,121L455,121L457,121L457,121L458,121L458,122L454,122L455,122L452,121L452,120Z"/><path d="M434,115L433,116L434,117L433,118L431,117L430,117L427,116L427,115L430,115L432,115L434,115Z"/><path d="M420,108L421,110L421,112L420,112L419,113L418,113L418,110L418,109L419,109L420,108Z"/><path d="M713,117L712,119L712,120L711,121L708,123L704,123L701,125L700,124L700,123L696,123L693,124L691,124L693,126L691,130L690,131L689,130L689,128L688,127L687,126L689,125L690,123L693,122L694,121L699,120L701,121L703,117L705,118L708,115L709,115L711,112L710,109L711,108L714,108L715,111L715,112L713,115L713,117Z"/><path d="M719,101L721,102L722,101L723,103L720,104L718,106L714,105L713,107L711,107L710,105L711,103L714,103L714,100L715,98L718,101L719,101Z"/><path d="M125,92L124,92L120,91L120,90L118,89L117,89L115,88L114,87L114,87L117,87L118,88L120,88L121,89L122,90L124,91L125,92Z"/><path d="M275,87L273,89L275,88L276,89L275,89L277,90L278,89L281,90L280,92L282,91L282,93L283,94L282,96L281,96L279,96L280,94L279,93L276,95L275,95L277,94L275,94L272,94L268,94L268,93L269,92L268,92L270,90L272,87L273,86L275,85L276,85L276,86L275,87Z"/><path d="M105,79L107,79L106,82L108,84L107,84L106,83L105,82L104,81L103,80L104,79L105,79Z"/><path d="M719,87L721,91L718,90L716,93L719,95L718,97L717,96L715,97L715,96L715,93L715,91L715,89L716,86L714,84L714,81L716,80L716,79L717,79L717,80L718,82L718,85L719,87Z"/><path d="M384,83L381,85L377,84L379,82L378,80L381,78L383,77L385,77L387,78L386,80L386,81L384,83Z"/><path d="M393,69L390,72L393,71L395,71L395,73L393,75L395,75L397,78L399,79L400,81L401,82L403,82L403,84L402,84L403,86L401,87L398,87L394,87L393,87L392,88L389,88L388,89L387,88L390,86L392,85L388,85L388,84L390,83L389,82L389,81L393,81L393,80L391,78L389,78L388,77L389,76L388,76L387,77L387,74L386,73L387,71L388,69L390,69L393,69Z"/><path d="M18,58L19,58L21,58L22,59L25,59L25,59L23,60L21,59L20,59L18,59L18,59L18,58Z"/><path d="M210,54L211,55L212,54L213,55L216,56L218,56L218,57L220,57L222,58L220,59L216,58L215,57L213,58L209,59L209,58L206,58L208,57L208,56L209,53L210,54Z"/><path d="M367,52L367,53L369,55L366,57L360,58L358,58L355,58L349,57L351,56L346,55L350,55L350,54L345,54L347,52L350,52L354,53L357,52L360,53L364,52L367,52Z"/><path d="M0,46L794,56L755,81L730,68L688,106L678,116L666,117L653,150L631,176L631,196L615,162L592,155L565,167L516,138L514,145L530,154L503,170L487,152L472,136L494,173L503,193L490,228L473,258L441,276L426,235L420,199L391,188L363,173L367,144L403,118L434,130L473,131L460,116L483,96L464,100L453,115L433,101L439,110L416,102L380,118L392,91L422,73L451,73L449,53L423,56L482,58L523,47L563,48L582,35L644,34L712,38Z"/><path d="M509,108L510,109L511,109L512,110L510,110L509,112L509,113L508,113L508,114L509,116L511,116L513,118L516,118L519,117L519,117L519,115L519,113L518,112L518,111L517,111L517,109L519,109L521,109L520,107L519,106L517,107L517,108L516,107L516,106L517,105L516,104L514,104L513,102L511,101L511,100L513,101L514,99L515,99L517,99L518,97L517,95L515,96L513,95L511,96L509,96L508,98L505,98L503,100L505,103L505,104L508,107L509,108Z"/><path d="M187,46L186,47L183,46L181,46L178,45L180,45L181,44L184,44L185,45L186,45L187,46Z"/><path d="M198,45L209,52L204,74L228,71L255,67L262,88L265,95L242,105L235,110L230,115L221,137L209,133L187,136L186,158L205,156L203,164L213,165L215,177L230,179L239,178L257,176L277,186L301,204L313,230L291,262L273,280L255,296L242,317L236,296L244,243L219,209L226,194L221,181L214,179L206,172L191,164L165,154L150,135L150,138L150,142L137,125L124,102L112,81L71,66L47,75L48,69L34,59L34,52L55,41L104,45L143,49L186,48Z"/><path d="M146,37L145,38L150,37L153,39L155,37L157,38L159,40L160,39L159,37L161,37L163,37L165,38L167,40L167,42L171,43L175,44L175,45L171,45L173,46L172,47L168,46L164,46L162,46L157,47L151,47L148,47L147,46L144,46L142,46L139,44L140,44L144,43L147,44L150,43L145,43L141,43L138,43L136,42L142,41L138,41L134,41L136,39L138,38L144,37L146,37Z"/><path d="M230,37L230,38L228,38L225,38L223,38L222,38L220,37L220,36L221,36L226,36L230,37Z"/><path d="M207,37L209,38L211,37L217,36L220,38L220,39L225,39L227,38L232,39L235,40L235,41L239,41L241,42L247,43L249,44L251,46L247,47L252,48L255,49L259,51L262,51L261,53L258,55L255,54L251,52L248,52L248,54L250,55L253,56L254,56L256,59L255,60L252,60L247,58L250,60L252,61L253,62L246,61L242,60L239,59L240,58L236,57L233,56L233,56L227,57L225,56L226,54L231,54L235,54L234,53L235,52L238,50L237,49L237,48L233,47L229,46L230,46L228,45L226,44L224,44L223,44L219,45L211,44L206,43L202,43L201,42L203,41L200,41L199,39L201,37L203,36L209,36L207,37Z"/><path d="M177,35L179,36L183,36L184,36L182,37L185,38L185,40L181,41L179,41L177,40L172,38L172,38L176,38L174,37L177,35Z"/><path d="M192,38L190,39L188,39L186,37L186,36L187,35L190,35L194,35L198,35L195,37L192,38Z"/><path d="M132,41L126,42L125,41L120,40L120,39L122,37L124,36L122,34L129,34L133,35L138,35L140,35L143,36L140,37L135,38L132,40L132,41Z"/><path d="M181,29L182,30L182,31L181,33L178,33L175,33L175,31L172,32L172,30L174,30L177,29L180,29L181,29Z"/><path d="M159,30L160,31L162,31L164,31L165,32L163,33L156,33L150,34L147,34L147,34L151,33L141,33L138,32L141,30L143,30L149,30L153,32L157,32L154,30L156,29L158,29L159,30Z"/><path d="M527,42L526,43L519,42L518,41L514,41L514,40L516,39L516,38L520,36L518,36L524,34L523,33L528,32L535,30L543,30L547,29L551,29L553,29L551,30L543,31L536,32L529,34L526,37L523,39L523,41L527,42Z"/><path d="M189,28L192,29L196,29L198,30L197,30L200,31L201,32L204,32L208,32L211,31L216,31L219,31L222,32L222,33L221,34L217,34L215,34L208,34L204,34L200,34L194,33L193,32L193,31L191,30L186,30L184,29L185,28L189,28Z"/><path d="M141,27L141,29L139,29L137,30L133,31L130,31L127,30L130,29L135,27L138,27L141,27Z"/><path d="M177,25L178,26L174,26L171,25L166,25L168,25L165,24L165,23L169,24L175,24L177,25Z"/><path d="M440,22L447,24L442,25L441,27L439,27L438,29L435,29L430,28L432,27L429,26L424,24L423,23L429,22L430,23L433,22L434,22L437,22L440,22Z"/><path d="M456,21L460,22L457,23L451,23L444,23L444,22L441,22L438,21L445,20L448,21L450,20L456,21Z"/><path d="M513,21L510,21L508,21L508,21L505,22L503,21L504,21L499,20L504,20L507,20L507,21L509,20L511,20L514,20L513,21Z"/><path d="M622,24L617,25L611,24L607,23L605,21L602,21L608,19L613,19L617,20L622,22L622,24Z"/><path d="M206,23L209,23L206,24L202,26L198,26L193,25L191,25L191,24L193,23L188,23L186,22L185,21L186,20L188,20L190,20L189,19L194,19L197,20L201,21L204,21L206,23Z"/><path d="M247,15L253,15L258,15L262,16L262,17L257,17L251,18L249,18L254,18L249,20L245,20L241,22L237,23L235,23L229,23L232,24L230,24L232,25L230,26L226,26L225,27L222,28L223,28L226,28L226,29L221,30L215,30L208,30L205,30L201,30L200,29L205,28L203,26L205,26L211,27L208,26L204,25L206,25L210,24L210,23L207,22L206,21L212,21L214,22L218,21L213,20L205,21L201,20L199,19L197,18L196,18L199,17L202,17L206,17L210,16L212,16L215,17L216,15L219,15L223,15L230,15L231,15L238,15L243,15L247,15Z"/><path d="M339,14L349,17L329,17L338,17L349,17L348,19L365,18L372,19L362,21L360,21L356,25L358,28L351,29L356,32L356,34L354,36L350,37L350,38L346,38L347,39L351,43L346,42L344,42L347,44L344,46L331,48L327,49L319,53L314,54L309,55L308,58L305,62L303,66L297,64L290,63L285,58L283,55L281,51L282,48L286,46L284,45L281,46L278,43L281,42L282,41L277,41L278,38L275,36L269,33L263,30L253,30L245,30L247,28L242,27L237,25L254,23L248,22L258,19L260,18L272,17L282,18L293,17L301,18L296,16L311,15L322,14Z"/>
</svg>