<svg xmlns="http://www.w3.org/2000/svg" viewBox="0 0 1000 500">
<path d="M1000.0,294.9L998.8,296.2L999.8,296.5L995.8,296.6L1000.0,294.9Z"/><path d="M897.7,283.2L899.3,289.9L901.3,289.5L903.6,291.5L904.0,295.6L905.3,297.0L906.6,302.7L913.2,306.4L915.8,312.3L916.9,311.6L918.5,312.3L919.0,315.2L921.8,317.0L925.5,322.1L926.7,329.6L924.8,337.3L920.3,343.3L917.2,349.5L916.5,354.2L910.8,355.4L906.2,357.6L906.7,358.7L903.9,357.0L904.1,356.2L902.0,356.5L903.1,355.8L902.5,355.3L898.7,357.8L892.8,356.6L888.3,353.5L888.1,351.0L886.0,348.8L886.9,348.3L883.8,348.9L884.7,347.3L883.6,344.9L882.5,347.6L880.2,347.9L881.6,347.0L883.1,343.3L882.7,340.5L881.2,343.4L876.8,347.1L875.3,346.1L876.2,346.1L875.6,344.3L873.1,342.1L872.9,340.4L864.3,337.5L849.8,339.7L845.1,341.7L843.1,344.2L832.9,344.4L827.4,347.4L823.7,347.2L819.5,345.2L819.4,343.1L820.4,343.4L821.3,342.2L821.4,338.0L819.0,331.0L814.4,322.7L816.2,323.6L815.1,321.1L817.3,323.0L815.0,317.9L816.7,310.8L817.1,312.5L824.2,307.4L836.1,304.5L839.8,300.3L839.8,297.4L841.6,295.7L843.2,298.7L844.1,297.0L843.3,295.1L846.6,295.6L845.6,295.3L845.7,293.0L847.4,292.9L846.8,292.1L848.2,292.0L847.7,290.9L849.0,289.6L850.1,290.3L850.1,288.8L851.6,289.3L852.5,288.2L854.0,289.0L856.1,290.9L855.7,292.6L857.2,291.0L860.1,292.1L860.7,291.2L859.4,290.0L862.8,284.5L864.7,283.5L868.6,283.7L868.5,282.4L866.6,281.1L875.1,283.9L877.6,282.8L877.0,283.9L878.0,284.5L879.3,283.2L880.4,284.3L879.1,286.7L877.6,287.0L876.3,291.5L886.8,298.1L890.3,299.0L892.8,294.6L893.0,288.3L894.2,285.4L893.6,284.3L895.7,279.7L897.7,283.2Z"/><path d="M995.2,298.3L996.3,300.2L992.6,300.2L993.1,298.7L995.2,298.3Z"/><path d="M956.1,306.2L963.8,312.0L958.1,309.1L956.1,306.2Z"/><path d="M854.8,247.6L857.5,245.6L856.3,248.0L858.1,249.4L855.2,249.2L856.7,252.5L854.7,250.7L854.0,246.8L855.7,243.9L854.8,247.6Z"/><path d="M692.2,386.4L696.0,386.7L693.8,387.3L694.8,388.1L691.2,388.1L691.7,385.2L692.2,386.4Z"/><path d="M676.0,25.8L673.7,25.5L679.4,24.4L681.8,25.2L676.0,25.8Z"/><path d="M661.0,27.4L658.4,26.5L664.6,26.8L661.0,27.4Z"/><path d="M429.4,53.0L427.2,54.3L422.1,54.2L423.3,53.0L429.4,53.0Z"/><path d="M943.7,275.8L946.7,277.4L944.0,277.2L943.7,275.8Z"/><path d="M825.9,226.6L831.2,220.9L832.1,218.6L832.5,220.8L825.9,226.6Z"/><path d="M840.3,217.7L842.0,218.6L838.8,221.0L838.7,217.1L840.3,217.7Z"/><path d="M842.0,224.8L840.0,222.7L842.4,219.5L843.2,220.1L842.0,224.8Z"/><path d="M846.0,218.5L847.3,218.9L847.3,222.1L845.4,218.0L846.0,218.5Z"/><path d="M847.9,215.2L849.3,219.3L847.3,218.5L845.3,215.1L847.9,215.2Z"/><path d="M835.3,212.6L837.6,213.5L836.8,216.1L834.3,212.7L835.3,212.6Z"/><path d="M933.2,268.6L931.5,268.7L929.8,265.1L933.2,268.6Z"/><path d="M924.9,263.2L923.0,260.0L919.0,257.1L925.0,261.4L924.9,263.2Z"/><path d="M884.8,273.0L882.4,273.3L883.6,271.0L885.5,270.5L886.1,271.4L884.8,273.0Z"/><path d="M860.4,258.0L862.7,258.7L863.3,260.7L860.7,259.2L857.0,259.6L855.9,258.8L855.3,259.7L856.1,258.0L860.4,258.0Z"/><path d="M852.4,258.6L853.4,260.1L851.9,260.6L850.2,259.5L850.2,258.6L852.4,258.6Z"/><path d="M841.1,273.9L836.2,274.8L832.8,274.2L835.0,272.9L839.8,274.0L841.4,272.5L841.1,273.9Z"/><path d="M833.4,276.0L835.6,278.1L834.0,278.4L830.4,276.4L833.4,276.0Z"/><path d="M828.4,273.1L830.3,273.0L830.9,274.1L824.4,275.0L825.5,273.2L827.7,274.2L828.4,273.9L827.1,272.6L828.4,273.1Z"/><path d="M824.0,273.9L823.8,274.7L821.8,274.4L823.3,272.8L824.0,273.9Z"/><path d="M820.7,272.7L821.4,273.4L819.8,274.6L818.0,272.7L820.7,272.7Z"/><path d="M794.6,254.6L795.5,256.8L796.7,257.1L796.3,258.5L792.0,255.7L792.9,254.4L794.6,254.6Z"/><path d="M562.8,87.2L564.8,87.6L561.1,89.1L560.7,87.5L562.8,87.2Z"/><path d="M560.0,31.7L569.2,34.0L563.3,35.3L562.3,35.2L563.0,34.6L558.5,34.9L560.1,33.5L556.2,32.0L560.0,31.7Z"/><path d="M672.7,25.5L669.6,26.6L664.7,26.2L672.7,25.5Z"/><path d="M631.8,25.4L635.2,26.0L624.7,26.1L631.8,25.4Z"/><path d="M639.7,25.2L643.6,25.9L634.4,27.5L629.6,26.9L639.7,25.2Z"/><path d="M639.6,57.8L635.9,59.0L634.1,58.2L636.0,56.9L639.6,57.8Z"/><path d="M667.9,55.7L665.7,56.3L662.4,54.8L664.0,54.3L667.9,55.7Z"/><path d="M696.3,47.0L694.2,47.0L695.4,45.9L699.0,46.6L696.3,47.0Z"/><path d="M757.5,28.7L753.0,27.8L760.6,28.0L757.5,28.7Z"/><path d="M815.0,43.3L813.3,44.2L809.7,43.5L815.0,43.3Z"/><path d="M566.3,151.3L573.1,151.9L568.9,153.0L565.5,152.1L566.3,151.3Z"/><path d="M565.0,141.8L568.3,144.4L563.5,142.0L565.0,141.8Z"/><path d="M595.7,151.1L594.3,152.0L594.6,152.8L591.7,154.0L589.8,152.9L595.7,151.1Z"/><path d="M553.0,89.3L550.4,91.9L550.4,90.1L553.0,89.3Z"/><path d="M534.9,95.0L533.0,97.9L530.5,95.2L532.3,94.6L532.8,95.3L533.9,94.1L534.9,95.0Z"/><path d="M529.6,95.5L529.5,97.1L527.4,96.2L529.6,95.5Z"/><path d="M508.7,139.5L509.6,139.7L508.5,140.8L506.6,140.1L508.7,139.5Z"/><path d="M165.1,454.9L165.9,455.5L163.9,456.5L160.3,456.7L157.4,455.1L165.1,454.9Z"/><path d="M149.1,453.6L152.0,454.6L150.6,455.0L154.1,454.8L156.0,456.2L146.0,454.0L149.1,453.6Z"/><path d="M316.2,472.4L311.6,471.0L318.0,472.1L316.2,472.4Z"/><path d="M339.3,427.9L341.1,428.4L337.7,428.1L339.1,427.2L339.3,427.9Z"/><path d="M324.5,429.1L325.5,429.4L321.5,429.7L323.7,428.5L324.5,429.1Z"/><path d="M291.7,443.7L293.2,444.3L289.4,444.6L291.7,443.7Z"/><path d="M227.5,449.8L229.6,450.5L232.3,449.5L233.0,449.7L230.6,450.6L234.6,450.7L233.2,451.6L227.3,451.5L215.8,450.2L227.5,449.8Z"/><path d="M293.5,453.1L292.9,454.5L288.6,453.2L290.9,452.9L289.6,452.4L290.6,452.3L293.5,453.1Z"/><path d="M311.1,437.4L308.0,437.5L311.9,435.1L311.2,436.1L312.0,436.5L310.5,437.1L311.1,437.4Z"/><path d="M0.0,51.3L7.0,52.2L1.6,53.0L0.0,52.8L999.7,52.8L996.6,53.3L996.3,52.5L999.7,51.3L0.0,51.3Z"/><path d="M336.5,392.4L339.5,393.4L334.6,395.1L336.5,392.4Z"/><path d="M396.9,400.2L400.6,402.1L394.4,400.0L396.9,400.2Z"/><path d="M295.1,370.4L293.4,370.1L294.3,366.1L296.0,367.2L295.1,370.4Z"/><path d="M332.5,392.9L335.4,392.9L332.3,394.9L330.7,394.6L332.7,393.8L331.7,393.6L332.7,393.4L331.8,392.7L332.5,392.9Z"/><path d="M293.1,386.5L292.8,388.9L292.4,387.3L291.6,388.4L290.1,388.3L292.0,385.4L293.1,386.5Z"/><path d="M297.3,374.4L296.1,374.4L296.5,373.2L297.8,373.6L297.3,374.4Z"/><path d="M328.3,113.6L320.9,111.4L325.4,111.9L328.3,113.6Z"/><path d="M330.3,122.4L331.3,122.9L332.5,121.4L333.8,122.3L329.3,123.0L332.0,119.4L332.0,121.5L330.3,122.4Z"/><path d="M23.7,73.2L31.3,74.1L28.7,75.1L22.8,73.8L23.7,73.2Z"/><path d="M38.5,82.3L40.0,83.6L34.9,82.8L38.5,82.3Z"/><path d="M45.9,97.3L47.0,98.1L41.9,98.5L45.9,97.3Z"/><path d="M285.4,198.7L288.3,200.2L285.5,200.8L282.4,199.2L285.4,198.7Z"/><path d="M316.3,198.8L317.7,199.3L313.3,200.0L313.5,198.6L316.3,198.8Z"/><path d="M75.3,89.4L77.2,90.1L72.3,92.3L72.8,91.7L71.3,91.9L70.3,90.7L71.9,89.9L73.1,90.8L72.7,89.3L75.3,89.4Z"/><path d="M76.6,87.9L77.8,88.2L73.9,88.6L76.6,87.9Z"/><path d="M136.2,95.9L133.8,96.2L135.4,94.6L136.2,95.9Z"/><path d="M129.0,93.5L132.9,95.9L131.6,95.9L133.4,96.6L133.3,98.0L128.7,95.0L129.9,94.7L128.5,94.5L129.0,93.5Z"/><path d="M129.5,91.7L130.7,92.0L129.6,92.1L130.0,93.2L127.8,91.6L129.5,91.7Z"/><path d="M125.1,90.7L125.9,93.8L123.7,91.0L122.7,91.6L123.8,90.2L125.1,90.7Z"/><path d="M125.9,88.4L128.3,89.9L126.9,88.8L128.0,90.6L126.6,91.5L125.2,87.9L125.9,88.4Z"/><path d="M123.0,88.2L125.1,88.8L124.1,89.5L125.2,90.3L122.5,90.4L120.6,89.0L123.0,88.2Z"/><path d="M142.9,102.9L142.6,104.8L141.2,102.8L141.6,102.0L142.9,102.9Z"/><path d="M131.5,99.6L132.9,100.1L131.9,101.0L134.3,99.6L133.3,102.0L131.3,101.9L132.2,101.8L130.3,100.0L131.5,99.6Z"/><path d="M134.0,102.2L134.4,103.0L133.4,103.1L135.5,105.1L131.8,102.4L134.0,102.2Z"/><path d="M322.7,120.9L327.7,121.1L325.5,122.3L321.1,120.3L322.2,119.3L322.7,120.9Z"/><path d="M298.6,136.2L300.3,135.9L294.4,137.1L299.2,135.7L298.6,136.2Z"/><path d="M922.0,261.9L923.3,262.1L922.4,265.2L918.0,267.4L912.0,265.7L916.2,265.3L916.9,263.9L917.2,265.3L918.7,265.3L921.3,263.6L921.1,261.7L922.0,261.9Z"/><path d="M853.6,273.4L845.6,278.2L843.3,278.5L843.6,276.7L847.7,274.0L853.6,273.4Z"/><path d="M902.9,363.3L906.4,364.3L911.7,363.5L912.1,367.3L911.7,366.6L911.2,367.4L911.1,369.9L909.2,368.9L908.0,371.1L905.7,371.0L906.1,370.3L904.1,369.2L903.3,367.3L904.2,367.7L902.1,365.0L902.0,363.0L902.9,363.3Z"/><path d="M768.1,24.8L771.8,25.8L769.8,26.1L770.6,26.9L769.9,27.1L760.8,27.8L754.2,26.8L759.3,24.9L768.1,24.8Z"/><path d="M771.3,27.3L772.3,27.7L771.3,28.4L773.9,27.6L777.6,28.2L776.9,29.7L775.1,29.7L777.6,30.7L771.0,31.0L758.5,29.2L763.9,27.5L771.3,27.3Z"/><path d="M785.8,29.8L784.5,31.0L788.3,30.1L792.6,31.7L775.8,33.2L782.2,29.6L785.8,29.8Z"/><path d="M889.0,39.4L891.2,39.9L893.0,38.5L903.8,40.2L900.1,41.5L895.3,39.7L895.0,40.6L897.6,41.8L888.0,41.8L886.4,42.6L880.4,40.8L883.9,38.6L889.0,39.4Z"/><path d="M895.0,44.7L898.6,46.5L888.0,46.0L895.0,44.7Z"/><path d="M907.8,40.6L918.9,41.2L914.0,42.3L906.0,41.1L906.8,40.1L907.8,40.6Z"/><path d="M981.3,347.0L984.2,347.9L985.3,352.3L987.6,353.3L987.4,351.3L989.2,354.6L992.4,355.5L994.5,354.3L995.9,354.7L994.2,359.0L991.9,359.0L991.2,361.6L987.0,365.6L985.1,364.7L986.7,361.7L982.7,359.2L984.9,357.9L985.9,355.0L985.0,353.0L985.9,353.0L984.6,352.6L984.4,350.7L983.1,349.7L983.5,351.0L981.7,348.7L982.3,348.1L981.4,348.5L979.7,345.7L981.3,347.0Z"/><path d="M980.9,364.7L984.4,364.2L983.9,366.3L979.2,370.7L980.8,371.8L977.9,371.4L975.7,373.0L974.4,377.4L969.7,379.5L962.5,377.7L967.7,372.4L975.1,369.1L978.5,363.2L980.4,362.6L979.7,363.0L980.9,364.7Z"/><path d="M850.0,224.1L851.6,229.9L850.5,232.5L849.1,229.8L848.2,234.4L847.9,233.1L847.0,233.7L844.7,232.2L845.0,229.5L843.5,228.3L842.7,229.4L840.6,228.4L839.3,230.7L838.6,230.3L839.6,227.9L842.9,225.8L843.9,227.6L846.9,225.1L848.6,225.0L848.5,222.9L850.0,224.1Z"/><path d="M836.4,198.3L839.6,198.7L839.3,200.9L840.3,202.4L837.2,207.4L838.2,210.6L839.5,211.3L840.6,210.2L841.9,211.8L842.6,210.9L843.9,211.6L843.2,212.1L844.8,213.8L844.6,215.1L840.5,211.4L840.6,213.3L838.3,211.3L835.1,211.7L835.9,209.3L835.0,208.7L834.5,209.9L833.6,208.7L832.7,204.8L834.4,205.3L835.0,198.6L836.4,198.3Z"/><path d="M870.8,252.0L872.5,252.4L872.8,256.4L875.3,259.3L883.1,254.1L901.3,260.6L904.9,263.4L904.8,265.0L910.6,267.5L910.6,268.6L908.2,269.1L912.7,275.1L914.4,275.1L914.6,276.4L916.7,276.9L916.3,277.8L919.0,278.4L917.6,279.6L910.5,278.0L905.6,272.4L901.4,271.0L899.0,270.7L899.8,272.1L898.9,272.8L895.0,272.8L898.3,274.3L896.2,275.9L892.0,275.6L888.9,272.8L889.2,272.0L885.9,273.0L886.4,271.1L885.4,270.1L886.6,270.0L885.0,269.3L885.7,269.1L884.3,265.8L881.3,263.7L872.1,260.6L871.8,258.5L869.4,261.4L868.8,259.2L866.6,257.7L871.4,257.3L872.0,255.8L867.5,256.2L866.5,254.3L863.9,254.0L864.6,252.4L867.8,251.0L870.8,252.0Z"/><path d="M846.9,247.2L843.8,249.1L834.9,248.5L833.9,249.3L833.5,251.5L835.2,253.8L837.7,252.3L842.9,252.2L837.1,255.2L839.7,258.1L839.6,260.1L841.3,262.2L837.7,263.2L837.8,261.4L835.8,259.8L836.3,257.6L835.1,257.4L834.1,258.2L834.5,265.5L832.1,265.6L832.3,261.2L831.9,259.8L830.3,259.7L830.0,257.6L832.0,252.5L832.9,252.4L832.6,250.2L834.1,247.3L836.3,246.3L844.0,247.7L847.5,245.3L846.9,247.2Z"/><path d="M798.3,266.7L800.9,267.5L801.9,268.9L806.7,269.3L807.9,267.8L812.6,269.2L813.9,271.3L817.8,271.6L818.3,274.4L814.6,273.0L799.8,271.5L792.4,269.0L794.6,266.4L798.3,266.7Z"/><path d="M768.0,235.5L771.0,235.5L779.2,243.9L780.2,244.6L780.7,243.7L786.2,248.4L784.9,249.4L788.0,249.2L787.3,251.6L789.9,253.0L791.2,255.8L790.7,257.2L792.8,256.6L794.6,258.6L793.7,266.2L790.7,265.3L790.6,266.4L782.2,258.8L778.6,252.3L775.4,249.0L773.9,244.8L765.5,237.1L764.5,234.5L768.0,235.5Z"/><path d="M824.5,231.4L825.6,230.7L826.9,232.4L826.4,233.7L827.8,233.2L827.7,234.1L831.3,235.1L828.5,236.1L829.3,237.8L826.4,238.5L827.2,239.8L825.2,239.9L828.0,243.6L827.2,244.4L830.5,247.3L827.5,246.9L826.6,252.1L824.3,252.9L823.0,255.0L823.7,256.7L822.1,260.0L818.6,261.6L817.6,259.0L815.8,259.6L814.0,258.1L810.7,259.9L810.3,258.0L806.3,258.2L805.5,253.5L803.1,251.2L803.0,245.8L804.5,244.4L809.0,246.1L809.8,242.4L813.9,241.2L816.7,237.3L820.6,236.2L820.6,235.0L824.4,230.6L824.5,231.4Z"/><path d="M688.2,38.2L670.4,40.8L662.6,43.1L662.8,43.8L657.3,46.4L650.8,46.2L649.3,45.1L655.9,43.1L654.4,42.7L656.9,41.8L655.0,41.3L663.6,39.3L687.6,36.1L691.5,36.9L688.2,38.2Z"/><path d="M653.7,46.4L656.7,46.7L653.9,48.5L653.6,50.2L660.1,53.5L649.2,53.3L648.3,53.1L650.4,52.4L648.4,51.3L642.9,50.6L646.2,49.2L647.0,48.1L646.0,47.9L648.2,47.5L647.9,46.7L653.7,46.4Z"/><path d="M896.6,98.9L898.1,102.9L897.7,105.7L902.0,114.9L900.1,113.2L897.5,113.3L896.0,117.4L898.8,121.2L898.4,122.1L898.0,120.7L896.0,120.3L894.7,122.5L894.0,121.0L894.9,116.6L894.1,114.6L895.0,107.7L893.5,104.8L894.0,101.8L895.9,101.5L896.4,100.3L895.4,99.2L896.6,98.9Z"/><path d="M899.5,127.5L902.0,128.0L903.8,126.9L903.2,128.7L903.7,129.7L905.1,129.5L899.9,130.9L897.9,133.3L894.0,131.7L890.2,131.8L889.8,132.5L892.1,133.9L889.0,134.8L888.5,131.7L890.0,129.7L892.7,129.8L893.5,123.9L899.5,127.5Z"/><path d="M892.3,135.1L894.4,140.5L891.6,144.0L890.5,149.4L891.3,150.8L889.9,152.3L888.3,152.9L889.2,151.2L888.4,150.9L885.8,153.8L885.3,152.4L883.9,153.9L880.7,153.9L881.3,153.4L880.0,152.6L879.3,153.7L880.1,154.7L876.9,157.0L875.4,155.5L876.2,153.8L874.3,153.4L867.5,154.7L867.1,156.0L863.7,155.6L863.9,154.5L869.2,151.4L877.5,151.1L880.1,146.2L881.4,145.8L880.3,146.9L881.2,147.9L884.2,146.6L888.3,142.0L888.8,137.0L890.0,135.5L892.0,136.4L892.3,135.5L891.1,135.4L892.3,135.1Z"/><path d="M873.2,154.8L874.3,156.1L872.7,157.6L871.2,156.9L868.9,159.0L867.8,157.1L866.8,157.4L869.3,155.3L873.2,154.8Z"/><path d="M864.4,156.7L865.8,156.7L865.4,157.6L866.7,158.6L864.8,162.8L863.0,163.8L863.3,161.9L862.7,163.4L861.5,162.8L862.6,158.8L861.8,157.8L862.1,159.2L860.5,159.5L860.2,158.2L861.1,158.7L859.9,157.7L863.1,155.8L864.4,156.7Z"/><path d="M836.1,187.2L835.7,189.1L834.0,186.9L833.7,184.3L837.8,179.8L838.7,180.6L836.1,187.2Z"/><path d="M808.0,194.5L808.4,195.4L805.6,198.8L801.9,198.5L801.8,196.4L803.5,194.8L808.0,194.5Z"/><path d="M722.2,222.7L724.2,224.0L727.4,229.8L726.8,232.2L724.2,233.4L722.5,232.9L721.8,231.0L721.4,227.3L722.5,223.4L723.4,223.7L722.2,222.7Z"/><path d="M637.6,284.5L640.0,293.4L639.4,294.3L638.0,293.1L638.4,295.8L637.1,300.9L631.0,318.9L625.3,321.0L622.3,319.4L620.2,312.2L623.3,305.3L622.2,298.3L623.5,295.0L628.9,294.2L631.5,291.0L631.9,291.7L633.2,290.8L633.2,287.9L635.5,286.9L635.5,284.6L636.7,283.6L637.6,284.5Z"/><path d="M58.2,471.7L43.7,470.1L46.5,468.7L48.9,468.8L58.2,471.7Z"/><path d="M304.6,471.3L300.6,470.7L303.8,469.2L314.6,467.7L304.6,471.3Z"/><path d="M374.4,468.9L378.8,469.0L380.6,471.7L378.5,472.3L379.1,472.8L361.7,474.4L349.0,474.3L351.7,472.5L354.7,472.6L360.2,470.8L359.1,470.2L360.1,468.8L363.7,466.8L371.5,466.1L378.4,467.6L374.4,468.9Z"/><path d="M334.1,473.2L333.8,474.3L331.7,474.9L314.5,473.0L328.8,473.2L330.0,472.9L328.7,472.3L331.7,471.5L335.2,472.8L334.1,473.2Z"/><path d="M305.4,442.2L310.2,447.0L310.4,449.5L307.8,451.5L297.1,451.2L305.0,450.6L300.9,450.7L300.3,450.3L303.3,449.7L299.3,449.0L294.5,450.5L290.6,449.5L293.6,448.3L299.4,448.2L297.1,447.6L298.0,447.4L305.9,447.6L302.3,446.3L306.6,445.5L300.8,444.6L299.6,442.0L304.4,441.1L305.4,442.2Z"/><path d="M307.9,396.3L309.4,396.3L310.4,397.4L309.8,397.9L313.1,400.1L318.9,401.9L315.2,402.9L300.3,401.7L304.7,401.5L303.2,400.3L304.1,399.0L304.9,401.0L308.2,401.2L305.1,399.7L307.2,398.3L304.3,397.8L305.2,397.1L304.5,396.5L307.9,396.3Z"/><path d="M272.7,185.7L278.3,186.4L294.0,194.0L284.1,194.8L285.5,192.7L283.0,192.3L281.3,190.0L272.6,188.3L272.7,187.0L264.2,189.3L266.5,187.0L272.7,185.7Z"/><path d="M558.0,27.1L561.9,27.6L563.9,26.5L564.8,26.6L564.2,27.3L567.8,26.8L575.6,28.0L566.5,30.0L555.9,29.2L554.7,28.9L557.7,28.5L552.0,28.4L550.7,28.0L552.4,27.7L549.8,27.4L553.7,27.5L553.3,26.9L554.8,26.4L558.0,27.1Z"/><path d="M546.6,28.0L549.5,28.3L549.1,29.5L551.1,28.9L551.9,29.8L559.4,31.3L553.2,32.3L546.4,37.3L538.9,34.7L547.0,33.6L538.0,33.3L547.7,32.2L545.7,31.9L546.6,31.5L540.8,31.3L540.7,32.2L536.5,32.7L531.6,30.7L534.5,30.7L533.3,29.7L531.1,30.2L529.7,28.5L538.0,28.2L534.9,29.0L538.8,29.6L540.5,28.3L545.4,30.6L544.0,28.6L546.6,28.0Z"/><path d="M526.8,136.4L526.6,141.2L524.0,141.9L522.8,136.5L525.6,135.4L526.8,136.4Z"/><path d="M526.3,131.1L525.5,135.0L523.8,132.3L526.3,131.1Z"/><path d="M543.3,143.8L542.0,148.1L534.5,144.9L535.4,143.9L543.3,143.8Z"/><path d="M353.5,55.7L355.8,56.7L350.7,57.6L347.4,56.4L349.1,55.7L347.7,55.2L349.0,54.7L353.5,55.7Z"/><path d="M146.7,109.3L151.4,110.2L157.5,115.5L152.7,114.7L153.3,113.3L151.3,114.0L148.5,112.7L149.6,112.0L144.8,110.8L145.9,109.5L143.5,109.2L146.7,109.3Z"/><path d="M300.1,195.2L305.7,195.4L307.7,196.5L306.6,196.9L310.1,198.5L309.2,199.4L302.7,199.2L301.6,201.0L299.8,199.4L294.8,199.9L293.2,198.9L299.0,198.4L298.0,196.0L296.0,195.2L300.1,195.2Z"/><path d="M362.1,250.6L365.6,250.8L364.4,253.9L359.7,255.0L359.3,250.8L362.1,250.6Z"/><path d="M491.4,87.5L488.5,90.1L495.1,90.3L492.8,92.9L490.8,93.4L492.6,93.7L489.5,94.2L495.4,95.6L496.6,98.0L499.8,99.7L500.3,101.1L498.2,100.8L500.8,101.8L500.1,103.0L504.6,103.5L504.4,105.2L501.2,107.0L503.9,107.8L484.4,111.0L488.4,107.8L491.3,107.8L493.2,106.3L490.9,107.3L485.6,106.3L488.9,104.0L488.6,103.0L487.0,103.3L488.1,102.4L492.4,101.9L491.5,101.4L492.1,99.6L490.1,98.7L491.6,97.4L486.0,97.9L487.3,94.6L485.5,94.8L485.9,93.9L484.1,96.3L485.6,92.3L483.0,92.5L484.1,92.1L484.0,89.8L485.7,89.2L485.0,88.7L486.1,87.3L491.4,87.5Z"/><path d="M480.1,97.1L483.0,96.6L484.8,98.6L482.4,100.0L483.3,103.0L482.4,104.9L471.9,106.7L473.3,105.9L471.3,106.1L472.5,105.2L471.2,105.0L475.6,103.7L472.5,104.0L475.2,102.2L472.0,101.6L473.4,100.5L472.1,99.3L476.3,99.3L477.4,98.2L475.7,98.1L477.0,96.8L478.7,96.5L478.7,97.3L479.7,96.2L480.7,96.6L480.1,97.1Z"/><path d="M0.0,58.4L12.9,62.0L12.9,62.9L14.3,62.9L14.1,64.9L16.5,66.0L17.3,65.5L15.1,63.6L22.8,64.1L28.5,66.5L25.9,67.7L23.8,67.2L24.5,68.1L20.1,67.6L21.6,68.2L20.4,68.8L21.6,69.3L19.3,69.9L21.2,71.0L19.0,71.4L12.7,70.0L10.9,68.1L4.4,68.1L3.0,66.6L4.1,65.6L0.9,66.2L1.8,68.0L0.0,69.3L999.5,69.3L995.9,70.5L991.3,69.2L989.8,69.3L992.3,69.8L984.9,70.3L989.0,69.7L989.3,70.6L992.7,70.1L993.6,71.4L995.1,71.2L996.4,72.7L995.7,73.4L998.8,75.6L997.6,76.9L991.7,75.6L992.1,76.2L980.2,79.3L973.9,82.1L973.2,83.4L967.9,81.7L961.9,83.7L962.1,82.0L958.2,83.8L954.1,83.6L949.9,88.7L951.1,89.7L953.4,89.5L952.1,91.0L953.7,93.8L952.3,94.3L951.7,93.8L952.9,93.0L951.9,93.1L950.2,94.2L949.2,95.8L950.3,97.9L944.6,99.5L944.5,102.4L940.2,102.7L939.2,106.1L935.4,108.4L932.1,96.7L933.4,92.4L935.7,90.9L935.8,89.4L939.6,88.9L950.2,82.0L954.7,80.8L956.1,77.0L959.4,76.4L953.7,76.2L953.0,79.0L951.1,78.7L944.9,81.6L945.5,80.5L943.9,80.7L945.3,78.1L936.3,78.7L928.6,83.8L928.2,84.6L931.0,85.6L920.3,86.5L919.8,85.9L922.9,85.5L915.7,84.0L913.1,85.4L896.1,85.4L875.7,97.4L880.0,98.3L879.8,100.5L882.4,99.2L881.5,99.7L882.9,100.1L881.3,101.3L884.8,100.1L884.6,101.3L885.3,99.1L888.3,99.3L892.7,102.0L891.2,102.5L893.0,105.1L890.3,108.9L889.2,115.5L876.3,128.2L869.9,131.4L866.1,129.8L860.4,134.1L860.3,136.5L854.4,139.5L853.9,141.1L856.5,142.6L859.5,147.1L859.9,150.1L858.9,152.3L851.5,154.7L850.8,152.3L852.1,150.4L850.4,147.9L852.7,147.4L851.8,145.1L848.2,145.2L846.4,144.1L848.8,142.5L847.7,142.2L848.2,140.2L845.4,138.9L836.6,142.4L838.4,140.6L836.9,140.2L839.6,137.5L838.4,136.2L836.6,136.4L830.5,141.2L827.2,141.3L826.8,143.3L830.4,144.3L830.9,146.7L832.7,146.8L835.4,144.9L840.7,146.1L839.8,147.7L833.8,149.4L831.0,153.2L834.1,154.8L835.7,159.3L838.5,161.6L833.4,161.3L835.3,161.2L838.5,164.1L833.9,166.0L836.8,165.8L839.1,167.0L837.5,168.1L838.8,168.1L838.7,169.1L837.4,169.1L837.8,171.4L835.4,172.2L833.6,175.9L832.2,175.6L833.0,176.8L830.9,177.4L832.3,177.8L832.3,179.5L831.1,179.3L829.6,181.6L827.3,182.0L827.9,182.7L826.0,184.5L824.7,184.3L823.5,186.3L818.5,186.8L817.4,188.1L815.3,185.8L815.4,188.3L806.7,190.7L806.5,193.6L805.4,193.6L804.6,191.9L805.4,190.3L803.0,190.4L801.6,189.2L797.7,191.8L796.3,191.7L793.4,197.3L795.4,200.7L802.3,207.3L804.0,215.0L802.7,218.5L797.9,221.1L796.1,220.9L796.1,222.6L794.8,221.6L796.0,223.2L794.0,222.2L794.9,223.9L792.0,226.0L791.0,226.1L791.7,222.0L787.7,220.7L787.6,219.0L786.5,219.7L785.0,216.1L780.3,214.8L780.4,212.7L777.8,212.9L777.7,216.2L775.5,221.3L775.7,224.3L777.3,224.2L779.0,230.0L781.9,230.9L786.7,235.4L787.3,241.9L789.4,246.2L788.8,245.5L787.4,246.3L781.4,242.0L778.1,232.1L774.2,227.1L773.1,227.2L774.7,217.4L771.7,208.7L771.5,204.0L770.5,204.1L769.0,201.7L768.8,203.6L767.2,203.4L767.6,204.3L765.0,206.3L764.8,205.3L762.9,205.8L763.1,204.1L761.7,205.5L762.7,201.2L761.2,196.4L760.9,197.5L759.7,196.2L761.1,196.0L756.4,192.2L755.2,187.9L754.1,186.4L752.6,187.2L751.7,184.5L750.7,184.8L751.7,187.9L750.6,189.4L750.0,187.6L748.8,189.5L748.6,188.1L748.2,189.7L747.4,188.6L746.5,190.0L746.2,188.5L746.1,189.8L744.8,189.9L744.3,187.8L744.3,189.4L741.3,191.0L741.0,193.6L736.8,195.1L733.6,199.2L728.8,202.5L728.5,204.0L723.0,206.4L721.8,221.3L720.3,221.5L719.3,223.4L720.6,224.5L717.8,224.7L715.3,227.6L712.6,225.3L703.7,204.3L701.9,194.9L702.5,192.6L701.7,190.4L703.1,189.6L701.5,189.7L702.2,188.2L700.5,188.1L700.0,191.2L695.8,192.1L691.6,188.1L694.9,187.3L695.8,185.9L693.5,186.8L691.2,186.0L690.0,184.5L691.0,183.7L689.5,184.5L687.7,183.7L684.5,179.0L670.6,180.3L660.5,178.7L659.3,178.4L657.6,174.6L651.8,176.4L643.3,172.6L639.1,166.1L637.7,166.6L636.1,165.3L635.6,166.6L633.3,166.6L633.7,167.9L632.6,168.4L633.5,168.5L635.5,173.0L639.3,175.9L639.1,177.9L641.1,181.1L641.7,177.8L643.2,178.1L642.5,182.4L644.8,183.4L650.4,182.9L656.7,176.8L657.3,182.0L658.9,183.5L663.3,184.7L666.2,188.0L662.4,193.3L661.6,192.8L660.7,193.8L660.6,197.2L657.8,197.9L656.6,200.0L654.1,200.4L653.0,202.7L646.1,204.2L645.0,206.5L637.1,209.3L635.2,211.0L622.0,215.0L620.1,213.1L618.5,207.7L618.9,204.3L617.5,201.6L613.2,195.1L609.1,191.7L608.5,187.2L606.8,184.1L604.3,182.5L597.7,172.1L596.2,172.0L597.1,167.9L595.1,172.9L592.4,170.6L590.2,166.9L590.7,169.6L599.4,183.5L598.6,183.9L599.2,186.3L602.3,188.6L604.1,197.7L607.1,199.8L609.7,206.9L614.4,209.4L620.4,215.6L618.2,218.0L619.9,217.9L623.0,220.9L624.8,221.0L639.2,218.0L641.1,216.7L642.4,217.1L641.8,221.0L642.7,221.1L641.5,221.3L641.2,223.8L633.3,237.5L611.7,257.5L609.0,263.0L607.8,266.9L609.8,269.5L609.2,273.5L610.3,277.8L612.8,279.6L612.3,285.9L613.4,291.1L610.7,295.7L604.2,298.8L601.1,302.1L596.2,304.7L598.7,311.9L598.4,317.1L591.1,321.2L591.4,324.5L589.9,329.2L583.3,337.0L577.4,341.8L571.0,344.5L562.6,344.5L555.6,346.6L551.0,345.0L549.6,341.2L550.9,340.3L550.6,338.2L541.6,323.1L540.2,312.4L532.7,300.0L532.6,294.0L534.9,287.3L538.0,283.7L538.5,280.7L536.1,275.1L537.2,273.3L534.1,267.0L536.3,266.3L534.0,266.1L532.7,262.7L526.7,256.6L525.1,253.6L526.4,254.3L524.2,251.6L525.8,251.0L526.0,249.0L527.8,249.5L525.9,248.5L526.7,248.4L526.1,246.8L527.6,241.4L526.9,238.7L525.0,238.6L522.9,236.3L523.0,237.3L519.7,236.9L519.2,237.8L518.8,236.9L519.1,237.9L516.9,238.1L515.3,236.6L515.4,234.8L514.4,234.6L515.2,234.4L512.3,232.4L509.6,232.1L510.3,231.7L503.6,232.9L494.4,236.8L491.2,235.1L487.9,235.3L487.2,235.5L488.8,235.5L485.3,235.5L479.0,237.9L474.6,236.0L465.3,229.5L463.1,226.6L464.2,226.0L463.4,226.2L462.0,222.4L457.2,218.8L458.1,217.8L456.9,217.3L458.1,216.8L455.7,217.3L453.4,215.4L454.3,215.0L453.4,214.9L453.5,212.7L457.1,212.6L454.3,212.9L453.8,211.0L451.3,209.0L454.0,206.3L455.5,200.3L454.1,196.2L455.0,193.8L453.1,191.4L452.5,192.1L453.0,189.2L455.8,183.8L458.6,181.3L460.0,177.1L462.3,175.7L464.0,172.5L467.9,171.4L471.7,168.4L473.1,166.4L472.8,162.7L474.3,159.5L480.8,155.6L483.5,150.6L485.3,150.3L487.1,152.2L491.7,151.6L494.7,152.5L503.5,148.6L510.5,147.5L514.7,148.2L518.0,147.0L522.0,147.6L526.9,146.3L528.9,148.0L530.9,147.6L529.1,149.3L530.9,152.1L528.0,155.0L528.6,156.3L534.1,158.7L542.2,160.0L543.6,162.7L552.6,165.9L555.6,164.4L555.9,160.5L560.3,158.5L569.1,161.2L570.1,162.4L580.8,164.4L586.3,162.2L588.6,162.4L589.2,163.6L593.5,163.5L595.8,162.2L599.9,154.0L599.5,149.1L600.5,147.8L596.4,147.7L591.1,149.9L586.8,147.7L585.1,147.6L584.6,149.3L582.5,149.6L580.5,148.0L576.5,148.1L578.5,147.1L575.7,147.3L576.5,146.8L575.2,145.4L575.6,144.5L573.0,143.7L573.4,142.7L575.4,143.2L574.3,142.5L574.7,140.1L572.5,140.4L572.7,138.9L574.3,137.8L580.6,137.8L580.0,137.4L582.9,136.8L580.9,136.3L581.0,135.5L586.8,135.8L592.5,133.3L597.2,133.2L601.1,135.3L606.6,136.3L611.8,136.2L615.0,134.9L616.0,133.4L615.1,131.3L601.7,124.6L604.6,123.9L605.4,122.2L606.9,122.0L604.9,120.5L606.9,120.4L608.9,118.7L599.5,120.5L597.3,121.9L597.9,121.0L596.8,121.7L597.3,123.1L598.5,124.1L601.6,123.9L601.1,124.8L598.5,124.7L594.2,126.7L592.9,126.2L593.2,124.7L590.3,123.9L593.3,122.0L588.4,121.4L587.7,120.7L590.5,120.5L589.0,120.4L588.2,118.9L588.5,120.4L585.5,120.7L582.3,123.0L582.1,125.4L580.4,125.1L579.3,129.2L576.3,132.0L580.4,136.1L576.4,136.2L572.8,138.7L574.4,137.1L568.0,136.3L566.0,136.8L567.6,138.5L565.1,138.2L565.6,139.1L562.9,137.5L564.8,141.2L563.7,140.8L564.1,141.6L562.7,142.0L566.6,143.7L566.8,145.1L564.0,144.7L565.3,145.9L563.1,145.7L564.3,148.8L563.1,147.8L562.5,148.8L561.3,147.1L560.4,147.6L558.7,144.7L560.6,143.5L564.4,144.1L558.6,143.4L557.7,142.0L558.7,141.6L556.4,140.8L553.7,137.8L554.4,133.9L547.3,130.5L549.2,131.0L547.0,129.5L544.4,129.1L540.4,124.2L538.5,125.4L537.5,123.7L538.3,123.3L536.7,122.9L534.1,123.8L534.4,127.2L537.7,129.0L540.4,132.7L544.9,133.6L544.2,134.7L551.3,138.3L551.0,139.4L547.0,137.6L545.9,139.6L547.7,141.7L544.6,144.6L543.5,144.3L545.0,141.8L543.6,138.9L530.9,132.2L528.3,127.9L524.3,126.6L517.0,130.4L511.3,128.9L509.1,130.0L509.0,133.5L502.0,136.6L499.1,140.2L500.6,142.3L498.6,143.6L498.0,145.5L495.4,146.1L494.1,147.8L487.9,148.0L484.4,149.9L480.9,146.4L475.0,147.1L475.9,143.3L474.3,142.6L475.6,141.4L473.7,142.2L475.9,136.8L475.9,132.6L474.5,130.1L478.6,128.4L494.5,129.6L495.9,129.0L497.0,123.5L498.5,125.0L496.7,123.0L496.8,121.4L494.2,119.8L494.1,118.7L495.2,118.8L488.0,117.2L487.0,116.6L488.2,115.8L486.9,115.2L491.0,114.3L496.2,114.9L494.8,112.0L501.2,112.6L500.5,111.9L503.9,110.9L504.9,108.5L511.7,107.3L509.6,106.8L511.9,107.0L511.2,105.8L513.2,102.9L515.4,102.0L520.0,102.0L520.0,101.0L521.2,100.8L523.6,101.7L523.9,100.3L527.2,101.2L524.0,99.2L524.9,98.5L524.0,96.3L522.6,95.6L522.7,92.8L525.5,92.5L525.3,91.5L523.0,92.3L523.9,91.4L529.5,89.6L528.6,92.7L530.4,93.2L526.6,95.9L526.3,97.1L527.4,98.7L530.6,98.9L530.2,100.0L531.7,100.2L536.2,98.9L540.5,101.0L538.4,99.6L540.0,100.2L550.2,97.7L553.9,98.9L558.7,95.5L557.2,97.3L558.9,97.4L558.4,92.7L560.4,90.1L562.7,89.7L565.7,91.7L567.7,91.0L568.1,87.9L566.0,87.9L565.3,85.6L570.9,84.3L577.5,85.0L577.9,83.9L583.8,83.5L579.2,81.5L563.9,83.8L563.6,82.7L562.4,83.3L562.7,82.3L559.5,81.7L560.0,78.9L558.6,76.0L559.8,74.4L570.5,69.4L570.4,68.1L568.4,67.1L562.2,67.0L559.5,68.6L558.7,70.0L559.8,70.9L557.7,72.6L548.4,76.4L547.9,81.4L552.7,84.0L549.9,85.1L551.7,85.2L550.8,85.8L545.0,87.1L547.0,87.5L544.4,93.8L541.1,94.0L539.4,96.1L537.0,96.3L535.8,96.1L534.6,93.6L535.8,92.7L531.2,87.9L531.6,85.9L530.1,85.6L529.4,84.0L528.3,86.1L526.5,85.8L522.7,88.5L518.7,88.7L515.5,87.2L515.6,86.1L517.7,86.1L516.4,85.8L517.8,84.6L514.4,85.7L514.6,84.5L519.4,81.9L514.3,84.3L514.5,83.1L515.8,83.0L514.3,82.1L515.7,81.4L514.2,81.6L513.9,80.4L521.1,80.0L514.2,80.0L514.8,79.2L513.7,78.1L518.7,78.1L514.3,77.3L522.5,75.7L518.7,75.8L521.0,74.7L524.0,75.4L522.7,74.6L524.1,73.3L529.9,73.7L531.8,72.2L527.9,73.6L526.6,73.0L531.9,69.5L535.9,68.5L533.7,68.7L536.2,66.8L535.5,66.4L539.0,65.8L536.4,66.0L536.7,64.9L542.8,63.3L540.1,63.1L541.6,62.3L543.6,62.4L541.1,61.6L544.5,60.5L545.3,61.4L545.0,60.2L548.8,59.9L545.9,59.6L550.7,57.0L552.4,57.5L551.7,57.0L554.7,56.1L554.6,57.2L556.5,55.7L555.9,57.4L557.6,56.9L557.3,55.8L561.0,56.0L559.3,54.9L563.0,54.5L564.9,55.6L568.8,52.8L571.6,53.3L569.6,55.3L573.6,53.0L573.8,54.4L576.5,53.3L575.9,52.8L578.2,52.7L578.8,53.1L577.5,53.7L578.5,53.7L578.3,54.9L580.1,53.2L586.0,54.6L579.9,55.2L582.5,56.3L588.8,55.7L591.7,56.3L589.1,56.6L589.9,57.0L592.9,57.1L592.1,58.1L599.6,57.8L613.8,61.9L614.9,63.3L614.4,64.4L607.4,66.5L588.6,63.4L596.4,66.8L595.6,68.3L597.3,71.0L604.0,72.7L605.7,72.0L601.6,70.0L602.5,69.0L610.4,70.6L612.3,70.1L610.6,67.8L617.3,65.2L622.5,66.6L623.4,64.1L621.6,63.2L622.8,60.4L620.4,59.2L627.5,59.8L629.7,61.5L624.7,62.7L629.1,64.4L632.4,64.0L633.0,62.3L635.4,61.4L645.5,60.1L646.5,59.8L645.4,59.4L649.4,58.3L651.4,58.4L649.4,58.6L649.8,59.9L647.9,60.4L652.4,60.6L653.9,59.5L664.0,58.3L664.9,59.1L664.2,59.9L665.9,60.1L669.3,58.4L667.1,56.7L669.2,56.0L678.3,56.8L690.3,60.1L692.1,58.5L685.8,56.8L686.9,53.5L685.1,52.6L689.6,50.9L692.8,47.3L698.6,47.5L702.3,48.1L699.6,51.5L702.0,52.9L701.6,58.4L704.4,59.8L703.0,61.8L698.2,64.0L698.7,64.8L691.7,64.5L700.2,66.0L707.7,61.8L706.6,59.9L708.7,58.7L712.4,58.4L714.5,59.8L714.4,61.7L719.2,62.3L715.5,61.8L716.7,60.4L715.7,58.6L704.9,57.8L704.4,56.1L706.5,54.0L703.0,51.5L708.3,49.6L707.7,47.7L710.0,48.4L709.1,51.6L710.4,52.0L719.5,52.9L711.2,50.2L717.2,50.3L715.0,49.7L718.0,48.9L730.8,50.8L728.7,52.1L728.2,53.9L730.6,53.1L729.7,54.9L730.8,55.3L732.6,54.0L731.0,52.5L732.0,50.9L724.5,48.6L723.8,45.6L741.4,44.8L738.3,46.0L740.8,46.9L738.6,46.1L743.3,45.0L738.9,43.6L742.3,43.4L738.3,42.7L743.0,41.6L741.7,41.2L761.5,39.0L757.9,38.9L759.1,38.6L768.0,39.2L774.1,38.2L777.1,38.8L776.5,39.4L777.3,38.5L774.5,37.6L782.2,37.7L780.4,37.3L780.3,36.4L788.9,34.1L794.6,35.0L789.4,35.8L798.4,36.3L795.6,37.5L808.6,36.9L816.3,39.1L815.5,40.1L812.4,39.4L815.9,40.4L813.7,41.6L792.1,47.8L808.0,45.2L804.6,45.0L806.3,44.4L814.0,44.7L815.2,46.3L814.3,47.9L815.7,48.2L814.5,47.8L816.3,46.3L815.3,45.8L816.8,45.6L829.0,45.6L830.4,45.9L829.0,46.5L832.6,47.3L840.4,47.6L843.4,46.7L842.8,45.5L845.9,45.1L858.6,46.9L857.2,47.5L859.0,48.0L856.7,48.5L859.1,48.8L859.1,49.7L854.8,48.9L863.9,53.5L868.5,50.2L871.4,51.6L878.0,51.1L883.2,52.4L884.0,51.1L888.8,51.4L887.1,50.1L889.4,49.5L886.5,49.1L891.9,48.4L891.1,47.5L906.3,48.8L900.8,49.5L907.9,49.2L905.9,50.2L904.9,49.4L904.9,50.2L903.0,50.2L903.3,50.8L909.1,49.1L915.3,49.5L916.7,50.3L913.7,50.8L923.6,53.2L940.8,53.0L944.2,54.1L944.0,56.2L947.0,56.7L948.2,58.6L946.8,59.6L948.8,58.6L948.7,57.3L953.3,56.3L966.3,56.3L971.1,58.9L973.7,58.8L975.0,58.0L972.7,56.6L973.6,55.3L988.7,55.8L999.6,58.3L0.0,58.4Z"/><path d="M640.8,119.6L637.1,120.8L635.4,122.5L631.8,123.1L629.8,126.5L631.8,129.0L632.4,128.1L632.6,131.4L639.9,138.1L637.6,138.3L636.0,141.4L636.3,145.4L643.8,148.3L649.9,147.7L649.6,141.8L647.7,140.9L648.9,140.1L648.6,139.1L647.3,139.5L646.5,137.8L647.1,136.0L649.6,137.1L652.0,135.9L649.3,133.0L647.1,133.4L646.8,135.6L645.7,133.7L646.1,131.2L642.5,130.1L641.2,127.2L639.6,126.7L643.2,126.3L641.7,125.2L642.8,124.0L647.8,124.1L646.6,123.4L647.7,120.4L647.0,119.6L640.8,119.6Z"/><path d="M456.8,66.0L459.5,65.6L458.0,66.4L459.8,67.8L462.2,68.0L462.3,69.3L459.4,71.1L448.2,73.9L441.2,72.4L437.1,72.7L436.9,72.0L440.4,71.2L438.7,71.3L440.0,70.5L433.3,69.8L439.2,69.3L437.5,68.9L439.3,68.2L432.0,68.0L435.3,67.4L433.8,67.1L434.9,66.2L437.7,66.9L436.4,65.4L440.5,66.6L439.8,67.4L441.3,68.7L443.9,66.4L445.9,67.3L447.7,66.2L449.6,67.4L449.2,66.2L451.2,66.8L454.9,65.2L456.8,66.0Z"/><path d="M955.5,457.9L954.8,457.5L956.1,457.2L955.5,457.9Z"/><path d="M964.1,464.8L970.4,465.3L963.1,466.3L961.7,465.3L962.5,464.4L964.1,464.8Z"/><path d="M971.8,454.5L970.8,454.3L971.6,453.7L971.8,454.5Z"/><path d="M780.5,432.4L778.5,432.2L781.3,432.0L780.5,432.4Z"/><path d="M768.4,433.4L769.5,433.8L767.5,433.9L768.4,433.4Z"/><path d="M92.8,463.8L91.3,463.5L94.0,463.7L92.8,463.8Z"/><path d="M167.9,455.9L166.9,455.8L167.2,455.0L169.8,455.2L167.9,455.9Z"/><path d="M175.7,456.0L173.9,455.9L177.4,455.3L175.7,456.0Z"/><path d="M146.2,457.3L144.1,456.5L146.8,456.9L146.2,457.3Z"/><path d="M85.5,464.8L86.3,465.0L84.3,464.7L85.5,464.8Z"/><path d="M50.0,480.9L45.0,480.1L51.0,480.6L50.0,480.9Z"/><path d="M508.4,446.1L507.2,445.9L509.0,445.6L508.4,446.1Z"/><path d="M493.0,446.6L494.2,446.7L492.3,447.7L490.1,446.4L493.0,446.6Z"/><path d="M545.1,444.5L543.2,444.1L546.2,443.8L545.1,444.5Z"/><path d="M574.6,445.5L572.1,445.2L573.9,444.7L574.6,445.5Z"/><path d="M413.6,471.7L417.7,472.0L411.1,471.5L413.6,471.7Z"/><path d="M442.8,455.2L443.1,456.9L438.8,455.8L442.5,454.5L442.8,455.2Z"/><path d="M313.2,470.7L309.6,470.7L313.7,470.2L313.2,470.7Z"/><path d="M346.8,420.1L346.0,419.7L348.1,419.8L346.8,420.1Z"/><path d="M345.8,425.5L347.0,425.9L343.1,426.0L345.8,425.5Z"/><path d="M339.0,422.0L339.9,422.3L336.1,422.8L339.0,422.0Z"/><path d="M327.8,443.7L326.2,442.2L328.3,442.7L327.8,443.7Z"/><path d="M326.9,429.0L325.6,429.1L326.5,427.8L327.6,428.2L326.9,429.0Z"/><path d="M331.6,423.8L333.8,423.9L330.1,424.0L331.6,423.8Z"/><path d="M340.6,427.2L341.4,427.3L339.8,427.3L340.6,427.2Z"/><path d="M331.3,446.4L330.7,445.9L332.1,446.0L331.3,446.4Z"/><path d="M246.8,453.3L245.8,453.3L245.4,451.7L247.8,451.7L246.8,453.3Z"/><path d="M294.8,453.8L294.0,453.7L295.7,453.1L294.8,453.8Z"/><path d="M317.1,432.9L316.2,432.9L317.7,432.1L317.1,432.9Z"/><path d="M669.8,25.1L666.8,25.0L671.0,24.9L669.8,25.1Z"/><path d="M648.7,27.3L645.0,27.0L649.6,27.0L648.7,27.3Z"/><path d="M658.6,26.8L658.3,27.6L654.8,27.5L658.6,26.8Z"/><path d="M290.3,385.5L290.6,383.4L291.2,385.1L290.3,385.5Z"/><path d="M293.4,397.0L296.8,398.2L292.5,396.5L293.4,397.0Z"/><path d="M306.4,402.6L309.8,402.7L311.0,404.6L307.8,403.3L307.1,404.0L305.6,403.2L306.4,402.6Z"/><path d="M649.3,214.9L651.4,215.1L648.1,215.2L649.3,214.9Z"/><path d="M611.5,206.4L612.2,206.7L611.0,205.9L611.5,206.4Z"/><path d="M967.9,298.7L968.1,299.4L967.1,299.2L967.9,298.7Z"/><path d="M963.2,291.2L963.4,292.1L964.1,291.5L964.1,293.3L962.9,292.8L962.7,290.7L963.2,291.2Z"/><path d="M965.0,294.7L966.2,295.7L965.1,296.0L964.4,294.1L965.0,294.7Z"/><path d="M836.6,233.1L837.2,233.5L835.8,233.5L836.6,233.1Z"/><path d="M292.9,385.0L291.9,385.1L291.1,383.3L292.1,382.9L292.9,385.0Z"/><path d="M297.4,398.6L299.4,399.5L297.6,400.4L297.9,399.6L294.9,398.7L297.4,398.6Z"/><path d="M302.8,402.4L304.7,403.1L301.6,402.5L302.8,402.4Z"/><path d="M292.9,392.4L290.9,393.4L291.2,392.4L292.9,392.4Z"/><path d="M291.5,389.7L290.4,389.8L290.8,388.9L292.0,389.2L291.5,389.7Z"/><path d="M292.2,393.4L292.5,395.2L291.4,393.9L292.2,393.4Z"/><path d="M301.7,400.1L302.8,400.7L299.4,400.1L301.7,400.1Z"/><path d="M295.2,373.3L294.4,373.9L295.1,375.7L294.2,375.9L292.7,374.0L294.5,372.6L295.2,373.3Z"/><path d="M293.6,376.9L292.5,376.8L293.6,375.5L293.6,376.9Z"/><path d="M295.7,123.7L294.6,123.8L295.9,123.0L295.7,123.7Z"/><path d="M816.2,269.7L813.1,269.6L816.9,269.3L816.2,269.7Z"/><path d="M21.3,287.4L21.6,288.3L20.1,287.5L21.3,287.4Z"/><path d="M946.5,273.1L948.2,276.7L946.6,274.9L946.5,273.1Z"/><path d="M949.2,278.9L951.0,280.1L948.1,278.3L949.2,278.9Z"/><path d="M938.2,272.9L938.4,273.9L936.7,273.0L937.5,272.1L938.2,272.9Z"/><path d="M10.6,371.5L9.7,372.5L8.8,371.7L10.6,371.5Z"/><path d="M967.1,380.2L965.3,381.3L966.1,379.7L967.1,380.2Z"/><path d="M879.8,288.3L880.3,289.7L878.7,289.5L879.8,288.3Z"/><path d="M862.4,282.4L861.2,282.7L861.9,281.5L862.4,282.4Z"/><path d="M862.8,281.6L865.4,281.8L863.7,283.1L862.2,281.1L862.8,281.6Z"/><path d="M911.1,360.4L912.0,361.6L910.5,360.8L911.1,360.4Z"/><path d="M882.2,349.3L883.7,349.6L879.3,349.7L882.2,349.3Z"/><path d="M833.6,216.2L834.2,216.6L833.0,215.8L833.6,216.2Z"/><path d="M842.7,223.8L844.5,218.7L844.5,221.1L842.7,223.8Z"/><path d="M846.1,222.8L843.9,222.7L845.4,221.8L846.1,222.8Z"/><path d="M839.1,232.1L838.4,231.5L839.8,231.7L839.1,232.1Z"/><path d="M839.1,215.7L838.9,216.4L839.3,214.9L839.1,215.7Z"/><path d="M843.7,215.9L844.6,217.4L843.0,216.1L842.1,216.9L842.3,215.0L843.7,215.9Z"/><path d="M845.4,212.1L844.5,212.0L845.1,210.9L845.4,212.1Z"/><path d="M908.5,255.4L909.5,255.7L907.1,256.1L908.5,255.4Z"/><path d="M918.1,276.0L919.1,276.9L917.9,276.7L918.1,276.0Z"/><path d="M876.1,251.8L878.8,253.0L877.5,253.3L876.1,251.8Z"/><path d="M862.1,254.7L861.8,255.7L860.4,255.2L862.1,254.7Z"/><path d="M863.9,253.7L863.0,252.7L864.0,252.5L863.9,253.7Z"/><path d="M863.4,250.0L864.8,250.8L861.8,250.6L863.4,250.0Z"/><path d="M856.8,244.3L856.2,243.6L857.2,242.8L856.8,244.3Z"/><path d="M854.3,250.9L855.1,252.4L853.6,251.4L854.3,250.9Z"/><path d="M856.0,254.6L853.9,254.6L854.6,253.7L856.0,254.6Z"/><path d="M874.3,265.9L873.4,267.6L872.8,265.9L873.8,265.1L874.3,265.9Z"/><path d="M873.7,267.9L872.5,269.0L872.5,267.2L873.7,267.9Z"/><path d="M842.2,262.6L842.2,264.8L840.7,265.7L841.3,262.8L842.2,262.6Z"/><path d="M840.7,264.6L839.7,264.8L840.8,262.8L840.7,264.6Z"/><path d="M850.1,255.0L850.9,255.1L848.3,255.1L850.1,255.0Z"/><path d="M847.1,254.7L848.1,255.2L845.4,255.2L847.1,254.7Z"/><path d="M842.3,253.3L843.1,254.0L841.4,254.4L842.3,253.3Z"/><path d="M864.8,272.2L864.3,271.3L865.7,269.8L864.8,272.2Z"/><path d="M852.2,271.3L849.4,272.2L849.9,271.3L852.2,271.3Z"/><path d="M846.0,272.6L847.6,273.1L845.5,273.4L846.0,272.6Z"/><path d="M823.1,260.7L822.5,261.3L823.0,259.0L823.1,260.7Z"/><path d="M800.9,239.8L800.0,238.9L800.7,238.3L800.9,239.8Z"/><path d="M790.5,246.6L790.5,247.7L789.6,247.2L790.5,246.6Z"/><path d="M791.0,250.5L791.7,250.8L790.1,250.5L791.0,250.5Z"/><path d="M800.6,258.3L798.9,258.9L799.1,257.1L800.6,258.3Z"/><path d="M770.8,245.9L771.7,248.4L769.7,246.0L770.8,245.9Z"/><path d="M580.7,30.8L582.5,30.8L577.5,31.0L580.7,30.8Z"/><path d="M639.0,27.6L637.7,27.3L639.8,27.3L639.0,27.6Z"/><path d="M590.3,27.4L587.4,27.5L593.4,27.2L590.3,27.4Z"/><path d="M660.6,23.5L662.7,23.8L654.1,24.1L660.6,23.5Z"/><path d="M652.0,24.7L660.3,25.6L650.2,25.5L652.0,24.7Z"/><path d="M662.8,24.9L663.7,25.5L658.9,25.0L662.8,24.9Z"/><path d="M661.9,23.0L660.9,23.0L665.0,22.7L661.9,23.0Z"/><path d="M531.3,31.6L533.7,32.7L529.3,30.8L531.3,31.6Z"/><path d="M647.6,52.1L647.3,52.9L645.1,51.9L647.6,52.1Z"/><path d="M707.4,47.6L705.8,47.2L708.2,47.0L707.4,47.6Z"/><path d="M715.6,49.2L713.5,49.1L717.7,48.7L715.6,49.2Z"/><path d="M720.8,48.0L718.4,47.6L719.9,47.0L720.8,48.0Z"/><path d="M740.7,41.7L742.0,41.8L739.6,42.0L740.7,41.7Z"/><path d="M767.5,36.0L764.6,36.1L768.2,35.7L767.5,36.0Z"/><path d="M722.3,25.4L719.4,25.4L723.4,25.2L722.3,25.4Z"/><path d="M877.6,40.5L876.3,40.6L876.9,39.3L878.2,40.0L877.6,40.5Z"/><path d="M914.3,37.1L912.2,37.1L915.0,36.7L914.3,37.1Z"/><path d="M970.0,56.7L966.1,56.0L970.6,56.0L970.0,56.7Z"/><path d="M954.5,87.2L954.9,86.1L957.1,85.5L957.3,86.4L954.5,87.2Z"/><path d="M962.9,97.7L960.4,96.4L961.9,96.4L962.9,97.7Z"/><path d="M933.1,110.3L931.1,110.4L933.6,109.0L933.1,110.3Z"/><path d="M922.2,119.7L921.4,119.9L923.0,119.1L922.2,119.7Z"/><path d="M912.8,124.1L908.0,126.7L910.9,123.9L913.4,123.6L912.8,124.1Z"/><path d="M883.2,97.0L883.9,97.1L882.6,98.2L881.2,97.8L883.2,97.0Z"/><path d="M906.1,126.4L907.1,126.6L904.0,128.5L906.1,126.4Z"/><path d="M856.3,176.0L854.6,177.5L855.3,175.9L856.3,176.0Z"/><path d="M859.6,171.6L858.8,171.5L860.2,170.8L859.6,171.6Z"/><path d="M874.8,154.8L874.1,154.7L875.0,154.0L874.8,154.8Z"/><path d="M752.2,188.6L751.4,188.7L751.4,186.6L752.2,188.6Z"/><path d="M67.8,197.2L66.5,195.1L67.1,193.7L70.0,195.8L67.8,197.2Z"/><path d="M65.3,191.9L66.7,192.3L65.5,192.8L65.3,191.9Z"/><path d="M57.3,189.1L56.1,188.8L57.4,188.3L57.3,189.1Z"/><path d="M980.0,102.7L981.8,103.2L979.1,102.9L980.0,102.7Z"/><path d="M20.2,82.1L21.6,82.5L19.2,82.0L20.2,82.1Z"/><path d="M33.4,101.8L30.3,103.2L32.5,101.4L33.4,101.8Z"/><path d="M37.2,100.3L38.3,100.2L33.9,101.9L37.2,100.3Z"/><path d="M17.9,105.2L19.4,105.3L16.7,105.2L17.9,105.2Z"/><path d="M14.8,105.5L13.1,105.5L16.6,104.6L14.8,105.5Z"/><path d="M5.9,106.5L5.0,105.9L6.5,106.0L5.9,106.5Z"/><path d="M577.3,150.2L577.0,149.5L578.4,148.8L577.3,150.2Z"/><path d="M574.5,145.0L575.2,145.2L573.8,145.2L574.5,145.0Z"/><path d="M573.4,140.8L573.7,141.7L571.8,141.1L573.4,140.8Z"/><path d="M454.6,171.2L453.7,172.2L453.0,171.3L455.2,170.6L454.6,171.2Z"/><path d="M460.6,171.8L459.7,171.9L461.5,170.2L460.6,171.8Z"/><path d="M457.2,171.8L457.1,172.7L456.1,172.5L457.2,171.8Z"/><path d="M623.5,283.6L623.6,284.3L622.8,283.8L623.5,283.6Z"/><path d="M609.7,267.2L609.7,267.9L608.8,267.1L609.2,265.9L609.7,267.2Z"/><path d="M660.1,306.9L659.2,306.7L660.2,305.5L660.1,306.9Z"/><path d="M484.0,93.5L482.5,93.6L482.4,92.9L484.0,93.5Z"/><path d="M483.0,94.6L483.1,95.4L482.0,95.3L483.0,94.6Z"/><path d="M496.4,81.8L497.1,82.1L496.4,83.7L495.4,82.5L496.4,81.8Z"/><path d="M491.5,86.0L492.3,86.2L490.7,86.1L491.5,86.0Z"/><path d="M481.6,77.1L481.3,77.9L480.1,77.0L481.6,77.1Z"/><path d="M482.8,87.9L480.3,89.4L480.5,88.3L482.8,87.9Z"/><path d="M482.9,90.3L484.3,91.0L481.2,90.4L482.9,90.3Z"/><path d="M555.5,82.4L556.3,82.6L554.8,83.1L555.5,82.4Z"/><path d="M531.6,97.5L532.7,98.1L530.7,97.9L531.6,97.5Z"/><path d="M557.3,143.4L557.7,144.2L556.5,143.9L557.3,143.4Z"/><path d="M358.3,56.8L357.4,56.0L359.2,56.0L358.3,56.8Z"/><path d="M284.3,182.6L284.5,184.1L283.3,182.7L284.3,182.6Z"/><path d="M285.5,178.0L285.5,176.2L283.5,175.3L285.9,176.3L285.5,178.0Z"/><path d="M287.1,179.2L288.5,180.2L288.4,181.5L287.1,179.2Z"/><path d="M284.0,181.4L283.2,182.5L282.1,181.6L282.9,180.0L284.0,181.4Z"/><path d="M270.7,190.1L268.9,190.0L269.5,189.1L270.7,190.1Z"/><path d="M282.0,175.8L283.6,175.9L280.6,175.9L282.0,175.8Z"/><path d="M330.5,221.9L328.0,222.0L329.2,221.5L328.7,220.2L330.8,219.9L330.5,221.9Z"/><path d="M93.4,82.1L94.2,82.2L92.5,82.2L93.4,82.1Z"/><path d="M130.9,97.5L131.4,98.1L129.4,96.4L130.9,97.5Z"/><path d="M127.8,92.1L128.5,92.6L127.3,94.2L126.7,92.1L127.8,92.1Z"/><path d="M133.0,94.1L131.4,93.9L132.3,93.1L133.0,94.1Z"/><path d="M246.5,249.9L247.8,252.1L246.9,252.8L245.8,252.4L246.9,251.6L245.6,250.0L246.5,249.9Z"/><path d="M188.3,169.4L187.5,169.9L187.7,168.9L188.3,169.4Z"/><path d="M948.5,58.6L947.4,57.2L948.6,56.6L948.5,58.6Z"/><path d="M259.5,52.7L264.4,52.7L264.7,51.0L261.4,50.0L265.9,49.9L262.1,48.0L266.0,47.8L262.6,46.9L273.3,45.3L277.0,47.9L274.4,49.1L276.1,48.7L275.1,50.2L278.2,48.8L281.7,50.3L281.4,49.0L284.7,49.5L282.2,48.4L285.4,48.0L291.5,49.1L289.1,50.8L293.7,49.9L291.1,50.8L292.5,50.9L291.7,52.2L294.8,50.6L293.9,51.7L301.0,51.3L302.3,52.0L298.2,53.2L303.7,52.6L300.3,54.4L302.0,54.2L301.6,55.2L305.3,53.3L309.7,53.9L305.4,55.4L311.5,54.8L313.4,56.2L307.6,56.9L314.8,57.6L308.2,58.1L311.8,58.2L311.4,58.9L307.4,58.7L314.7,59.9L314.1,60.9L316.1,60.3L315.2,61.5L316.8,60.9L318.3,62.0L319.5,61.0L319.4,61.7L322.6,62.3L320.6,63.0L324.9,63.2L323.1,64.4L327.4,63.8L329.7,64.9L326.2,65.5L327.8,66.6L326.1,66.6L325.9,67.7L323.7,67.1L323.3,69.6L318.3,67.3L321.0,65.8L317.2,66.7L317.6,66.1L313.9,64.9L313.3,65.8L311.4,65.4L312.9,66.9L309.0,66.1L313.6,68.2L314.7,70.0L318.2,70.2L319.2,71.0L317.8,71.4L321.1,73.0L320.4,74.3L318.9,72.9L320.4,75.2L319.0,75.2L319.1,76.0L311.4,73.0L311.9,73.8L308.6,73.0L316.7,77.2L315.8,78.1L301.8,74.8L300.0,73.8L301.7,73.4L298.6,72.7L296.0,71.1L296.5,70.6L294.3,71.0L292.6,69.9L292.5,70.8L286.5,71.6L282.9,70.5L285.2,68.2L290.4,69.9L289.5,68.6L295.7,68.1L293.3,66.2L299.4,63.2L294.9,59.2L293.3,59.5L292.1,58.2L287.3,59.2L287.3,58.3L289.9,57.7L280.4,53.9L279.4,54.4L281.1,55.1L280.3,55.8L273.2,55.3L275.2,56.3L261.7,55.5L260.0,54.3L255.8,54.9L251.5,52.6L257.9,52.7L250.9,51.6L249.9,50.1L253.6,46.1L263.9,45.1L259.3,47.9L260.5,50.3L263.8,51.8L259.5,52.7Z"/><path d="M307.0,19.4L315.5,19.6L309.8,20.4L319.7,19.7L330.0,21.3L309.2,24.2L320.1,23.6L299.8,27.4L304.0,27.6L301.7,28.4L286.4,29.1L293.0,30.4L281.7,30.3L293.2,31.3L287.7,31.9L291.1,32.4L283.3,33.5L282.0,35.1L272.1,35.3L283.3,36.5L275.6,38.4L270.8,36.9L271.6,37.6L254.5,37.8L254.2,36.7L254.0,37.7L251.2,37.5L251.4,36.6L254.0,35.9L258.9,35.6L255.5,33.9L265.3,35.1L270.6,33.4L264.3,34.7L262.4,33.5L266.1,32.8L264.1,32.7L264.5,31.9L262.3,33.0L256.8,32.8L258.9,31.2L272.9,30.6L265.5,30.6L267.8,30.4L259.9,28.2L259.7,27.1L267.4,27.1L276.5,28.9L277.4,28.7L269.5,26.9L286.5,25.4L281.3,25.1L286.4,23.8L275.0,26.0L263.5,26.3L259.4,26.0L268.6,24.6L256.4,26.0L252.0,25.2L264.1,24.2L251.0,24.9L250.1,24.7L256.7,23.5L245.3,23.2L255.4,22.0L263.8,22.3L259.4,21.6L264.2,21.0L279.4,22.6L271.0,21.1L275.5,20.6L275.0,20.1L281.3,20.3L277.3,19.7L278.1,19.6L288.9,20.7L290.1,20.5L285.8,19.4L298.2,20.2L296.0,19.6L307.0,19.4Z"/><path d="M238.0,50.7L241.6,51.8L241.7,53.2L245.7,55.1L243.6,54.9L244.5,55.5L242.0,56.5L248.8,57.1L246.6,57.5L248.7,58.7L249.3,60.4L252.0,57.6L255.4,58.9L256.1,60.2L254.6,60.3L254.7,61.3L257.3,63.4L259.6,62.5L262.0,59.2L264.3,59.0L262.5,56.0L271.2,56.5L270.1,57.0L274.0,57.8L272.3,58.7L274.3,59.0L270.7,59.9L274.2,62.5L273.7,63.7L268.3,65.6L263.6,64.1L267.0,66.1L259.1,65.2L261.2,66.3L257.1,68.5L246.0,66.8L258.3,68.9L255.3,71.7L249.9,71.8L249.6,73.1L247.7,73.4L239.7,71.8L248.0,74.2L247.8,75.1L243.4,75.5L244.6,76.1L242.9,76.3L243.0,77.3L241.1,76.8L241.9,77.2L240.1,77.9L240.8,78.4L236.8,81.9L236.2,85.9L238.1,86.9L238.0,88.1L238.5,86.8L241.2,86.9L243.2,90.8L242.2,91.9L248.4,91.0L262.0,95.6L263.3,96.3L262.9,97.0L271.1,97.0L271.4,102.7L273.3,104.4L272.7,104.9L276.0,106.2L276.5,107.3L275.4,108.0L277.5,107.5L279.6,109.0L278.6,107.4L279.7,106.6L280.8,107.8L280.6,106.2L282.1,104.8L280.5,99.9L278.6,98.1L284.0,96.4L287.4,93.4L286.4,89.6L281.9,87.0L284.1,84.2L285.1,84.5L285.3,83.3L284.5,83.1L284.4,81.0L282.8,81.1L284.7,79.0L283.0,77.0L285.1,76.2L292.7,77.5L295.3,76.5L301.0,78.8L300.4,79.3L301.6,80.1L307.0,80.5L306.5,83.1L303.7,83.3L306.3,83.6L306.4,85.2L307.4,85.3L306.9,86.5L305.1,86.8L310.1,86.8L310.1,88.4L308.2,89.2L311.1,87.5L312.0,88.9L315.7,86.7L316.7,87.7L316.5,86.6L318.4,85.9L317.5,85.5L318.1,84.8L319.3,85.0L318.2,84.0L320.8,82.6L320.1,83.3L321.4,83.2L323.8,85.6L322.3,86.0L324.3,85.9L325.4,87.0L323.5,88.0L326.1,87.5L324.3,88.8L327.9,89.1L326.4,90.3L329.6,91.6L329.5,92.6L326.4,92.2L329.4,93.4L328.6,93.8L329.3,94.5L332.4,95.0L331.6,97.1L334.0,96.4L334.9,96.7L333.8,97.7L335.4,96.7L340.5,98.4L332.2,101.0L333.1,101.4L332.4,102.0L339.1,99.7L338.0,99.4L340.5,99.5L340.7,101.5L343.0,100.6L344.5,101.5L345.0,103.8L343.5,104.0L345.4,105.0L341.7,107.1L337.5,107.5L333.1,110.4L315.3,110.5L312.9,112.9L310.3,113.3L306.5,116.1L302.7,115.4L306.2,116.4L302.0,120.0L293.6,123.5L294.5,124.0L292.5,125.0L299.7,120.7L304.1,119.4L308.8,115.7L318.0,113.1L320.6,113.6L321.5,115.1L318.7,116.6L314.7,116.6L320.3,117.4L318.6,119.2L319.9,119.3L320.7,121.6L325.7,123.2L327.9,122.6L330.5,124.2L321.4,126.3L318.1,129.1L316.3,128.3L316.4,126.4L321.0,124.1L321.8,124.9L324.0,124.0L319.8,124.0L321.3,122.7L320.5,122.4L317.0,124.4L313.5,124.5L313.9,125.5L311.0,126.7L309.0,126.2L307.7,127.8L305.1,128.4L302.7,132.4L304.4,134.0L305.6,133.8L305.3,133.1L305.7,134.2L302.3,134.8L301.7,133.9L301.3,135.1L297.4,135.3L294.5,136.8L294.5,135.4L294.2,139.5L291.9,141.8L290.2,140.3L291.5,138.9L290.4,139.5L291.6,143.3L289.1,146.8L289.8,144.6L287.9,142.5L289.2,140.2L287.3,140.9L287.9,144.2L285.5,143.3L286.0,142.0L285.2,143.3L288.2,144.7L287.5,145.3L285.8,144.0L288.0,145.6L287.6,146.5L286.8,145.8L288.1,147.1L285.4,146.3L288.9,147.5L290.2,150.5L289.0,148.2L289.4,149.7L286.9,149.4L288.7,150.9L289.6,150.4L288.4,151.8L286.0,151.3L287.5,152.0L286.2,152.7L287.7,153.2L285.0,153.5L283.5,155.7L275.6,159.9L273.8,163.3L277.6,175.5L276.4,179.9L274.7,180.2L272.7,175.9L270.2,173.6L271.1,172.7L269.9,172.6L270.4,169.8L266.5,166.4L263.0,167.6L262.2,165.9L257.8,165.7L258.3,165.1L255.5,166.0L255.5,164.7L255.2,165.6L249.1,165.9L251.7,166.5L250.8,167.7L252.3,169.4L249.6,168.0L249.6,169.1L247.9,169.1L244.7,167.1L243.7,167.9L239.3,166.7L236.8,168.4L237.4,167.9L236.1,167.5L236.4,168.4L233.7,170.4L231.6,170.3L232.2,171.0L230.1,171.8L229.3,174.1L228.4,173.7L230.2,177.7L228.2,187.2L229.4,190.9L228.5,188.8L228.8,190.0L233.6,197.7L237.6,199.5L243.2,198.1L245.7,198.7L247.9,196.2L249.0,191.6L258.2,190.0L258.8,191.7L256.4,195.5L257.2,195.6L256.0,199.3L255.5,197.7L254.6,199.0L255.3,199.4L254.7,203.8L253.1,205.9L264.0,205.6L268.4,207.7L268.9,210.2L267.0,218.6L272.0,225.2L274.8,225.5L280.2,223.5L283.8,224.8L286.7,228.0L286.3,226.2L289.9,223.8L290.4,220.5L292.1,219.1L293.3,220.1L294.0,218.6L296.4,218.6L301.1,215.5L302.4,216.5L300.1,217.9L301.1,220.4L299.7,222.7L301.1,224.9L302.6,223.0L301.5,219.5L306.1,218.1L304.8,217.0L305.5,216.2L306.6,218.1L310.0,219.0L310.7,220.9L316.0,220.5L319.1,222.0L323.0,220.8L321.4,220.5L328.1,220.2L325.2,220.7L325.7,222.1L331.1,224.0L329.9,226.1L328.8,226.1L329.7,226.6L332.9,226.1L336.6,228.5L337.6,229.6L337.0,232.2L337.7,231.0L338.9,231.1L341.0,232.8L341.2,234.6L341.8,233.4L344.7,234.2L344.9,233.4L349.0,233.6L349.6,235.1L350.4,233.9L353.1,234.9L355.5,237.9L356.0,237.1L356.5,238.7L357.7,238.6L359.1,244.1L361.2,245.4L361.4,246.8L357.5,250.2L355.6,253.8L353.7,254.3L355.7,254.4L358.6,252.6L360.0,255.6L363.0,254.8L362.1,257.4L363.3,255.3L365.7,254.1L366.3,252.0L368.3,251.7L376.0,254.8L375.7,256.3L376.7,256.6L375.8,258.9L377.1,256.9L377.2,257.8L379.5,256.6L384.8,258.1L389.0,258.0L396.7,263.6L401.4,264.3L403.2,269.5L401.8,275.6L396.2,281.3L393.8,285.7L392.1,285.5L391.2,299.2L389.9,300.7L389.5,304.4L386.2,309.0L386.1,311.1L383.2,313.7L380.1,313.1L376.0,314.0L366.1,320.6L364.6,320.5L365.6,321.1L364.6,323.0L364.4,329.4L355.4,339.2L359.5,334.6L357.5,333.4L357.5,335.4L355.6,337.2L353.7,342.0L349.5,346.3L343.9,347.0L339.4,345.8L337.7,343.7L338.3,340.2L337.4,345.3L341.2,348.2L340.6,349.7L342.5,351.1L342.4,352.7L338.4,356.8L330.2,358.3L326.8,357.8L327.6,359.4L326.7,363.6L323.3,364.3L319.1,363.6L319.5,367.0L321.1,367.9L322.8,367.0L323.3,368.6L319.5,368.5L321.3,369.4L318.7,371.0L317.7,375.0L314.1,375.7L312.2,377.9L314.5,380.6L317.1,381.0L317.3,382.1L316.0,382.9L317.2,383.2L312.6,386.0L311.4,388.8L308.4,388.9L309.9,389.3L307.3,391.7L308.2,393.2L307.0,393.3L310.0,395.3L307.7,395.0L303.3,396.6L302.0,399.7L298.9,398.2L300.6,398.6L302.1,396.7L298.5,398.5L297.1,397.9L298.0,396.6L301.4,396.1L298.0,395.9L296.9,397.4L295.4,396.8L296.9,395.8L294.4,396.2L293.6,394.8L297.8,394.3L298.5,395.2L298.5,393.6L296.8,392.9L298.3,393.9L295.8,394.6L293.9,393.6L294.6,392.4L291.4,390.8L292.7,389.9L295.0,391.5L295.4,390.3L294.5,391.2L292.7,389.4L294.6,388.9L293.6,387.8L294.9,387.8L294.6,386.2L293.4,387.2L293.5,385.0L294.4,384.7L293.1,384.6L292.8,383.3L296.1,383.7L295.2,382.4L293.8,383.2L292.6,382.5L294.1,382.2L293.1,381.8L294.0,381.1L293.6,380.0L289.7,379.7L291.9,378.2L291.5,377.4L294.0,377.1L294.6,376.1L294.4,377.9L293.4,378.4L295.2,377.3L294.9,379.3L295.2,376.3L297.4,376.3L296.1,375.3L298.1,373.9L296.5,372.7L297.9,367.4L298.9,367.7L297.7,366.4L299.1,365.3L295.8,366.1L294.5,364.2L296.6,359.0L295.4,353.7L296.6,353.2L299.4,347.5L301.5,340.7L301.3,330.4L303.8,323.1L303.9,314.6L305.3,309.7L304.6,301.1L301.3,298.0L289.1,290.6L287.8,288.5L288.3,287.1L284.4,281.4L281.2,273.9L277.8,268.8L274.6,266.8L275.3,265.7L274.1,263.0L278.5,257.2L278.2,255.7L277.0,257.5L275.1,256.1L275.3,253.0L277.0,251.7L277.5,247.8L280.8,246.7L281.7,243.5L283.9,242.5L285.9,239.1L284.7,238.3L285.1,231.7L282.2,227.6L282.9,226.7L284.0,227.4L279.3,225.0L276.5,227.2L277.7,229.2L275.4,229.9L274.8,228.1L274.3,228.8L273.0,227.4L269.8,227.6L268.7,225.9L267.8,226.4L267.4,224.6L263.2,221.5L263.7,223.3L262.2,222.5L261.8,219.2L256.5,214.2L257.4,214.0L257.0,212.9L254.1,213.4L246.2,211.1L237.9,204.8L238.9,205.5L236.4,204.4L231.9,206.5L212.7,199.1L207.0,194.5L206.5,193.4L207.6,192.8L206.9,192.2L207.8,190.3L206.1,187.1L199.9,180.4L197.1,179.2L197.5,178.5L196.4,178.8L196.5,176.3L188.4,169.4L186.0,163.4L180.7,161.4L181.8,166.6L190.1,175.8L192.6,182.4L196.1,184.8L194.4,186.4L193.4,184.4L188.7,181.0L187.8,177.2L180.6,173.0L183.1,173.1L183.2,171.0L178.7,167.3L173.7,157.5L170.8,155.5L164.9,153.9L164.9,152.6L159.7,145.7L159.9,145.0L160.9,145.9L160.2,144.4L162.4,144.3L158.3,144.5L156.4,141.9L154.6,137.9L155.4,134.8L154.1,131.1L155.6,121.6L157.7,121.8L155.4,121.4L156.0,119.5L155.2,119.6L153.6,115.6L159.0,116.3L158.0,118.5L159.6,116.9L159.5,118.6L158.3,119.1L159.4,119.0L160.4,116.6L159.6,114.6L157.8,113.5L158.7,112.8L155.7,112.4L156.7,112.0L155.9,110.6L155.2,111.7L153.6,111.2L152.6,109.9L153.2,108.7L152.6,109.7L149.7,109.7L148.8,109.5L150.3,109.2L148.6,109.2L148.6,108.2L145.3,107.9L146.1,106.6L148.1,106.4L144.9,106.5L146.0,104.6L148.0,105.4L146.7,104.3L147.2,103.2L144.2,106.1L143.5,105.1L144.3,103.0L141.2,101.3L144.6,102.0L142.6,101.2L143.0,100.4L140.1,102.1L138.0,100.8L139.9,99.4L137.7,98.8L140.1,95.9L138.8,97.1L138.8,94.8L137.4,97.9L136.0,96.8L136.8,96.3L136.0,94.2L133.0,95.6L134.6,93.9L129.3,91.2L128.8,89.9L130.2,90.1L129.1,89.3L130.0,89.2L127.7,88.7L128.1,87.5L125.9,87.8L124.0,84.9L124.8,88.2L122.5,87.8L121.9,86.0L121.6,86.8L119.5,86.0L122.1,87.6L120.5,88.2L111.7,84.6L112.5,83.5L113.1,84.4L113.9,83.8L112.7,83.3L109.9,84.1L107.2,83.0L99.6,83.3L97.5,82.4L98.1,81.5L94.7,82.0L95.4,81.5L92.9,81.3L93.7,80.2L88.9,80.7L89.6,79.9L87.3,81.0L88.2,81.5L87.1,82.0L89.0,82.0L87.6,83.4L85.0,83.0L80.7,85.4L77.9,85.4L80.4,84.0L78.2,83.9L79.7,81.3L85.9,80.9L83.2,80.1L85.2,79.2L84.4,79.2L74.9,82.5L76.0,83.2L71.7,85.7L73.8,86.8L60.0,93.2L59.8,94.2L52.3,96.1L51.3,95.5L46.3,97.7L50.8,94.7L54.7,95.0L54.7,93.6L62.6,90.3L62.2,88.7L63.4,88.3L62.4,87.7L64.4,85.7L60.6,87.2L59.7,86.5L60.9,86.2L58.9,86.2L58.5,87.8L54.6,86.0L49.6,87.1L51.0,85.8L50.1,85.7L50.5,84.5L48.8,82.5L50.2,81.4L48.1,82.6L48.4,83.4L44.7,83.9L40.7,81.8L42.2,80.9L45.2,81.7L46.1,81.2L44.7,81.0L45.6,80.8L41.4,80.7L42.0,80.2L40.1,80.3L38.4,78.7L42.3,76.4L43.3,74.4L46.4,74.9L53.0,73.2L52.8,71.5L51.4,71.0L53.1,70.0L48.0,71.2L38.5,70.6L36.3,69.0L38.5,68.6L33.1,67.6L43.2,65.0L45.5,65.1L44.4,66.1L45.3,66.4L52.7,66.1L48.3,64.2L49.0,64.0L51.1,65.4L54.9,65.5L50.4,64.7L50.8,63.8L45.7,63.6L44.1,62.2L36.7,60.1L38.3,58.7L44.8,58.2L50.3,54.6L49.8,55.1L55.2,53.9L55.9,54.8L57.3,54.1L55.3,53.8L56.4,53.4L61.4,53.2L65.4,51.6L67.8,52.4L66.7,53.2L69.0,52.5L76.9,53.2L76.5,53.7L77.9,54.3L102.2,55.2L124.3,59.2L122.5,58.0L126.6,56.4L128.1,56.9L127.3,57.6L140.2,55.3L129.4,58.8L131.4,58.8L133.9,57.1L136.2,57.8L138.6,56.3L142.1,56.2L145.3,54.8L144.5,54.0L150.8,57.3L152.3,57.1L151.8,56.5L154.0,55.1L155.2,56.4L154.6,57.3L161.8,56.1L174.4,58.6L179.3,58.5L183.4,60.0L179.4,61.4L180.2,61.6L194.2,61.1L200.0,63.2L198.6,63.6L202.1,65.6L200.7,64.0L202.3,64.2L200.1,61.6L206.3,59.5L198.0,60.3L199.0,59.5L205.1,58.6L209.8,60.9L215.8,61.8L226.6,61.6L226.0,60.9L230.1,61.9L226.0,60.1L228.3,59.6L232.1,60.2L231.3,61.0L233.4,60.4L232.3,62.5L235.0,63.9L232.2,63.8L233.9,65.0L233.2,64.1L235.4,63.2L234.3,61.8L234.8,61.1L240.4,59.4L239.3,58.3L237.2,58.9L238.2,57.5L240.5,57.3L233.2,56.0L231.8,54.6L233.7,53.6L232.3,53.7L231.9,52.4L234.5,51.8L233.7,51.2L235.6,50.3L238.0,50.7Z"/><path d="M275.7,103.5L272.1,102.6L274.6,102.2L275.7,103.5Z"/><path d="M295.5,61.7L292.4,61.1L296.0,61.2L295.5,61.7Z"/><path d="M283.7,73.7L284.6,74.4L281.8,73.8L283.7,73.7Z"/><path d="M272.2,75.1L269.4,77.2L266.9,76.6L268.4,75.3L272.2,75.1Z"/><path d="M279.0,76.6L279.8,77.3L278.7,78.8L277.0,78.3L279.0,76.6Z"/><path d="M234.8,33.9L241.3,34.3L232.6,34.4L234.8,33.9Z"/><path d="M225.6,27.8L225.2,28.5L221.9,27.8L225.6,27.8Z"/><path d="M240.2,41.6L240.1,42.6L237.4,42.7L231.7,41.5L236.5,39.9L240.2,41.6Z"/><path d="M195.0,31.5L196.2,32.3L185.3,32.4L195.0,31.5Z"/><path d="M171.3,40.1L168.4,40.0L173.6,38.7L171.3,40.1Z"/><path d="M207.5,47.4L202.9,45.8L209.5,45.6L207.5,47.4Z"/><path d="M222.2,44.6L230.2,45.0L228.8,45.8L229.8,46.1L226.6,47.3L231.8,48.1L231.6,50.5L226.9,50.4L227.2,51.6L224.5,51.8L214.7,47.9L216.1,47.0L218.7,48.0L221.9,47.5L220.7,46.7L222.7,46.6L218.0,45.9L220.8,46.0L219.5,45.1L222.2,44.6Z"/><path d="M264.1,68.7L265.3,68.2L272.1,70.4L273.1,71.6L272.5,72.2L277.1,72.8L274.9,73.7L268.6,71.8L262.8,74.7L261.8,73.1L257.8,73.3L260.4,71.8L261.6,67.1L263.2,67.2L264.1,68.7Z"/><path d="M289.8,60.2L291.5,60.7L290.6,62.9L286.3,63.2L285.3,62.0L287.0,60.4L289.8,60.2Z"/><path d="M279.1,45.4L285.5,45.8L288.6,47.6L279.2,47.9L275.4,45.4L279.1,45.4Z"/><path d="M228.6,37.6L229.1,38.6L228.1,39.6L229.6,40.5L228.1,40.5L228.7,41.2L227.8,41.5L221.6,41.6L220.2,40.7L224.5,39.7L214.5,40.0L219.5,39.4L216.3,38.1L217.3,37.6L222.6,39.1L221.9,38.6L223.5,38.5L219.8,37.6L228.6,37.6Z"/><path d="M212.7,29.7L215.1,30.9L217.5,30.3L222.2,31.3L225.0,33.3L222.3,33.9L219.2,32.8L209.7,32.5L208.3,31.9L212.9,31.3L206.7,30.2L212.7,29.7Z"/><path d="M244.8,24.6L253.2,27.3L256.5,26.7L255.8,27.5L258.4,28.1L257.5,28.9L263.8,29.8L256.6,31.5L255.4,30.6L254.9,31.5L255.6,31.8L253.5,31.7L253.4,32.8L249.9,31.6L251.4,32.9L246.1,32.8L238.4,30.6L246.4,29.5L235.8,29.8L234.1,29.4L237.8,28.5L233.7,28.7L231.2,27.4L238.2,27.2L232.2,26.9L234.6,26.8L232.9,26.2L233.5,25.8L239.1,26.2L234.7,25.5L235.4,25.0L241.0,24.6L238.4,24.1L244.8,24.6Z"/><path d="M238.1,36.4L241.1,36.8L240.2,37.6L246.4,37.0L252.0,38.1L246.1,38.3L253.0,40.4L271.8,39.4L278.7,40.4L276.7,41.6L279.4,41.9L272.4,43.1L268.0,41.9L268.0,42.8L265.5,43.0L245.8,42.6L243.4,40.9L243.9,39.3L241.4,37.9L235.4,38.2L230.8,36.8L238.1,36.4Z"/><path d="M232.8,31.9L236.3,32.3L235.2,32.7L236.3,33.1L230.6,33.9L228.7,33.1L230.7,32.9L227.6,32.4L226.8,31.2L232.8,31.9Z"/><path d="M193.2,33.0L195.5,33.2L192.0,33.8L193.9,34.7L189.0,35.2L185.3,33.9L193.2,33.0Z"/><path d="M179.0,35.1L176.9,35.7L178.3,36.3L177.1,36.4L177.9,36.9L174.4,38.1L172.2,37.8L172.6,36.7L169.5,38.5L167.8,38.0L166.9,39.3L158.6,38.5L169.2,35.3L179.0,35.1Z"/><path d="M199.2,38.7L203.0,39.8L203.7,38.8L205.8,38.9L207.0,39.7L205.3,41.4L197.7,41.5L187.4,43.3L182.3,42.6L191.6,41.0L184.1,41.5L184.8,40.5L183.3,40.5L178.5,41.8L173.3,40.9L180.2,39.8L174.5,39.9L180.6,39.2L175.9,39.0L181.2,38.4L178.2,38.1L180.6,37.5L187.0,38.3L191.5,40.1L197.0,40.3L194.8,39.1L196.0,38.6L193.6,37.8L197.7,36.6L199.2,38.7Z"/><path d="M241.2,44.0L249.0,44.8L244.1,47.9L238.3,47.9L240.2,48.8L238.5,50.0L235.6,49.9L234.4,45.3L241.2,44.0Z"/><path d="M229.3,56.5L235.4,58.8L231.7,59.8L223.4,58.2L227.7,57.1L227.6,56.0L229.3,56.5Z"/><path d="M181.9,48.4L185.9,47.2L190.9,48.0L189.8,49.2L193.9,48.2L192.6,47.2L194.4,47.3L197.9,48.5L200.5,51.0L201.9,50.3L199.3,46.8L204.2,46.7L207.2,47.8L210.0,51.2L209.7,52.6L219.7,56.1L212.7,56.5L213.6,57.8L216.2,57.0L217.3,57.8L214.2,58.8L208.0,58.6L203.7,57.1L195.9,59.2L186.1,59.8L184.2,57.8L176.4,57.2L174.5,55.4L189.9,54.7L184.0,53.6L173.4,53.8L171.2,52.9L179.7,51.4L172.4,51.7L171.6,51.5L172.9,50.9L169.5,50.7L171.6,49.3L171.2,48.5L176.2,47.1L182.8,46.4L183.1,47.5L181.9,48.4Z"/><path d="M167.4,44.1L173.6,43.8L179.5,45.8L169.6,48.1L166.2,49.4L164.9,51.4L158.8,52.5L150.4,50.1L156.1,45.1L153.6,43.5L162.5,42.9L167.4,44.1Z"/><path d="M280.7,93.7L280.1,94.8L280.1,93.9L277.8,94.7L279.3,92.9L279.1,93.9L279.8,92.8L280.7,93.7Z"/><path d="M227.0,44.8L223.8,44.7L228.7,44.2L227.0,44.8Z"/><path d="M319.9,79.5L318.2,78.8L320.0,78.7L319.9,79.5Z"/><path d="M286.1,57.9L285.2,57.2L287.0,57.3L286.1,57.9Z"/><path d="M258.6,55.2L259.7,55.5L257.4,55.3L258.6,55.2Z"/><path d="M267.4,67.2L268.8,67.5L265.4,66.4L267.4,67.2Z"/><path d="M259.5,61.8L258.4,60.8L259.2,60.3L259.9,60.6L259.5,61.8Z"/><path d="M216.0,38.8L213.0,39.5L213.8,39.1L210.0,38.6L214.6,38.0L216.0,38.8Z"/><path d="M218.8,37.3L217.7,37.2L221.5,36.9L218.8,37.3Z"/><path d="M211.1,37.3L213.8,37.7L209.4,37.3L211.1,37.3Z"/><path d="M217.5,34.2L215.4,33.7L219.4,34.1L217.5,34.2Z"/><path d="M250.8,37.5L248.4,36.8L250.1,36.6L250.8,37.5Z"/><path d="M210.8,41.6L208.6,41.3L210.2,40.5L212.1,41.1L210.8,41.6Z"/><path d="M345.9,106.8L344.4,107.4L345.0,108.2L342.2,112.2L343.9,110.8L345.8,111.2L344.1,112.2L346.6,112.5L346.2,113.7L348.6,112.4L351.1,113.0L349.7,115.6L352.7,114.9L350.4,116.6L350.9,117.6L353.2,116.4L352.3,118.0L353.7,117.9L352.6,120.3L351.1,120.4L351.1,119.0L349.5,119.8L350.4,118.2L349.5,117.1L345.0,119.8L347.8,117.6L335.4,117.7L335.2,116.9L338.0,115.2L335.6,115.1L338.9,113.9L338.3,112.8L339.5,112.5L341.6,108.3L345.9,106.8Z"/><path d="M571.1,52.4L572.6,52.7L570.3,52.7L571.1,52.4Z"/><path d="M548.6,56.7L550.2,57.2L546.7,58.1L548.6,56.7Z"/><path d="M553.5,55.4L554.5,55.5L550.2,56.7L553.5,55.4Z"/><path d="M543.8,59.6L546.0,59.1L539.6,60.6L544.8,57.6L543.8,59.6Z"/><path d="M542.2,58.5L542.3,59.4L539.9,59.1L542.2,58.5Z"/><path d="M280.4,39.1L278.6,39.2L281.0,38.6L280.4,39.1Z"/><path d="M375.4,22.0L368.5,20.6L375.2,20.9L375.4,22.0Z"/><path d="M447.2,33.4L446.3,32.4L447.4,32.2L447.2,33.4Z"/><path d="M450.0,40.5L451.7,41.6L447.5,41.5L450.0,40.5Z"/><path d="M450.1,34.3L449.4,34.3L450.9,33.7L450.1,34.3Z"/><path d="M416.8,17.9L428.3,18.7L411.0,19.5L430.2,19.0L440.2,20.6L417.0,22.1L432.5,23.1L441.3,22.4L435.8,25.6L445.5,23.2L451.5,23.9L457.1,22.7L468.3,23.7L453.4,26.2L455.7,26.6L454.2,27.1L444.0,27.7L447.2,30.1L441.3,31.5L439.6,34.1L445.9,34.1L442.6,34.4L448.8,35.4L449.1,36.3L437.2,37.0L444.8,38.6L445.8,41.2L438.2,41.3L441.7,41.5L442.1,42.7L444.5,41.7L446.5,43.5L441.3,44.1L439.0,43.8L438.9,42.9L438.0,43.7L443.4,44.9L442.7,45.9L437.9,46.5L429.1,44.9L431.2,45.7L424.2,46.0L426.3,46.5L423.4,46.8L433.0,46.1L438.8,47.5L438.1,49.7L433.1,48.6L431.6,47.1L426.0,48.0L431.1,47.5L431.4,48.6L430.0,48.9L439.0,50.7L437.6,51.7L439.6,51.4L440.2,54.1L437.8,54.3L437.7,53.2L437.0,54.3L435.2,54.3L431.8,52.2L424.8,51.0L428.7,52.0L421.1,52.8L422.3,53.2L419.2,54.3L426.4,54.5L423.9,55.6L429.1,54.6L438.3,55.3L426.4,59.2L413.9,60.9L410.2,59.9L410.7,61.1L403.8,65.5L400.4,65.4L401.0,66.3L395.1,67.8L394.4,67.5L396.4,65.8L394.0,65.6L395.1,65.9L393.0,66.6L393.9,67.5L388.4,67.9L390.1,68.5L385.9,69.3L388.4,70.9L384.5,71.4L387.2,71.9L387.4,73.0L385.0,74.8L382.8,74.4L384.3,75.1L383.6,75.7L380.7,75.8L382.9,76.2L383.0,78.2L381.7,78.6L382.4,78.7L380.4,81.9L378.0,81.7L380.2,83.2L378.0,83.8L376.6,83.5L377.2,82.6L373.9,82.8L375.7,81.5L372.1,81.6L372.6,79.9L366.2,81.2L367.3,80.6L363.1,78.9L362.8,78.1L364.4,77.6L362.2,77.8L360.2,76.5L361.7,74.9L360.0,75.5L356.8,72.2L360.4,71.6L356.4,71.7L359.2,70.3L361.1,71.0L360.8,70.3L358.4,68.9L359.1,70.0L355.8,71.6L354.1,68.5L358.1,67.3L354.0,68.2L352.2,67.8L351.7,66.5L357.7,64.2L351.1,66.2L351.6,64.9L354.5,64.2L350.9,63.9L350.6,62.7L354.1,61.8L359.4,62.4L354.6,61.6L350.7,62.4L352.4,60.5L356.7,61.0L357.9,60.0L351.7,60.3L352.7,59.4L358.0,59.4L358.9,58.9L357.6,59.1L358.1,58.0L360.3,57.9L358.1,57.8L360.2,55.5L354.8,55.4L348.5,53.6L359.2,54.5L356.2,52.7L358.3,52.8L352.5,51.9L356.2,50.9L351.6,51.2L352.4,50.5L351.0,49.0L350.2,49.1L351.5,50.4L350.1,51.5L345.6,51.2L347.7,48.9L345.6,49.5L346.4,49.0L345.6,48.7L348.0,47.6L345.4,47.2L346.4,46.3L344.2,45.7L344.9,45.1L343.8,44.1L341.0,44.1L343.7,43.0L337.3,40.7L338.2,40.3L337.5,39.8L324.2,37.9L310.2,38.6L307.0,37.8L310.8,37.1L302.3,35.9L315.9,34.7L307.4,34.8L297.7,32.8L301.0,31.6L317.2,30.1L321.7,27.5L313.4,27.0L320.8,25.0L329.3,24.6L330.0,22.9L332.1,22.4L342.7,24.0L335.4,22.3L348.5,21.2L350.9,21.8L351.2,23.2L352.7,22.6L352.7,21.3L362.4,22.5L358.4,20.9L361.0,20.9L375.8,22.8L376.9,20.9L373.5,20.1L385.1,20.1L370.9,19.6L387.9,18.5L394.0,19.4L394.6,19.0L392.4,18.4L416.8,17.9Z"/><path d="M0.0,484.3L65.4,486.6L62.6,485.9L64.9,485.7L41.3,484.5L45.1,484.2L41.8,482.8L33.9,482.8L16.0,480.0L57.1,482.1L73.9,479.4L75.0,479.0L70.2,477.6L72.3,476.9L63.8,475.9L88.6,474.7L81.7,473.2L88.7,471.8L66.4,468.7L65.4,468.4L71.4,467.4L61.5,466.9L59.7,466.0L60.5,464.3L70.0,464.2L84.1,466.1L88.5,465.2L86.5,464.7L87.3,464.2L95.3,465.2L95.1,463.2L84.3,462.1L88.0,461.4L96.0,462.2L93.4,461.4L101.2,459.9L108.7,460.4L107.7,459.8L120.4,458.8L124.0,457.5L162.4,457.6L179.9,456.9L181.6,455.3L184.7,455.8L184.0,456.6L185.2,456.8L183.0,458.3L189.7,457.8L189.4,456.3L191.2,456.1L193.8,457.0L190.7,458.9L213.6,458.6L219.3,459.5L226.2,458.9L220.9,458.0L222.2,457.4L218.7,456.9L214.4,454.6L225.3,454.5L214.1,453.6L212.9,452.3L247.4,453.7L253.4,451.9L255.0,452.2L254.4,453.4L261.7,453.3L271.7,455.2L274.1,454.8L274.5,453.5L276.8,453.9L276.6,452.6L281.2,454.2L286.5,454.1L286.0,455.1L308.8,453.1L312.0,452.3L314.4,450.3L309.1,442.9L314.0,442.1L312.8,441.3L314.8,437.7L312.4,437.6L312.5,436.4L315.3,436.9L315.3,435.2L320.8,433.2L320.4,432.6L322.7,432.0L322.0,431.3L322.9,430.6L324.8,430.9L330.9,428.0L340.6,425.6L342.3,426.6L338.2,427.1L336.0,428.4L336.7,429.2L333.4,429.0L327.4,431.5L328.5,432.1L326.9,432.9L327.8,433.6L331.8,433.3L330.5,434.3L325.9,434.0L326.0,435.3L322.9,434.1L322.0,435.2L322.9,435.8L320.3,435.6L319.9,437.0L318.0,437.2L317.7,439.3L319.9,439.2L318.2,439.8L319.5,440.0L319.0,440.6L325.2,440.1L322.9,440.6L327.9,444.8L326.7,445.5L329.2,445.8L327.9,446.9L330.7,447.9L327.9,449.1L330.5,449.5L327.1,450.0L331.3,450.2L331.3,451.2L329.8,451.7L333.3,452.6L333.0,453.5L327.8,453.2L331.1,454.8L328.2,456.4L331.4,456.4L327.1,456.8L328.2,457.7L327.4,458.1L324.5,457.5L322.4,458.3L324.4,458.8L321.4,459.1L324.0,459.6L305.0,463.0L285.3,463.1L290.6,465.2L297.6,465.5L294.3,467.0L276.1,466.0L273.4,466.2L284.9,468.2L277.0,469.0L267.3,466.6L268.8,467.8L267.3,467.9L275.3,470.8L288.3,470.5L288.8,471.2L287.3,472.0L278.7,472.2L287.8,472.5L291.5,474.6L303.6,474.0L317.9,476.3L326.8,476.6L316.3,477.6L319.7,478.8L331.9,478.3L325.7,479.2L330.0,480.5L329.4,481.7L334.7,481.8L350.0,478.3L371.5,477.6L372.1,478.2L370.8,479.0L372.8,479.2L378.7,478.5L384.9,475.8L392.3,474.7L396.6,475.2L418.0,472.7L434.5,472.1L416.8,471.1L415.8,469.9L408.4,470.1L399.3,468.4L405.3,465.1L419.6,462.1L449.2,459.5L447.9,459.0L451.6,456.6L456.5,456.7L459.5,455.4L454.9,455.3L455.7,454.9L454.3,454.0L468.1,451.1L469.4,449.3L465.7,448.3L469.9,448.8L472.1,447.6L471.5,447.0L476.0,449.1L478.6,448.7L478.5,446.8L483.5,446.4L484.5,446.8L483.0,448.1L497.0,448.0L498.5,449.2L505.3,447.2L525.4,445.0L532.5,446.6L536.3,444.6L550.3,445.9L552.8,445.0L553.9,447.0L558.5,446.8L560.3,445.2L563.8,446.7L566.7,445.6L568.8,446.9L573.6,447.3L590.6,444.4L591.6,443.4L590.7,441.3L593.0,440.8L595.0,440.8L593.9,441.9L596.1,441.9L598.2,443.6L605.0,443.7L608.0,444.9L611.7,441.1L628.9,437.8L629.3,436.9L634.4,438.9L636.7,436.7L634.6,436.2L640.4,436.7L639.8,434.6L649.1,432.9L658.8,435.0L656.0,435.1L656.9,435.7L655.0,436.7L656.0,436.8L660.1,436.2L664.6,437.5L693.2,438.2L694.4,440.2L693.1,440.9L693.4,442.3L691.4,442.7L691.9,444.1L686.9,445.2L692.4,445.6L684.7,453.1L687.0,453.6L690.1,451.4L698.0,449.0L699.4,446.7L703.7,444.0L710.1,444.0L716.2,441.9L719.5,439.4L731.4,437.8L734.7,436.4L755.8,434.7L776.0,435.1L785.2,433.0L804.1,435.9L808.1,433.5L814.2,432.8L821.2,435.5L816.7,437.3L834.4,436.1L830.9,437.1L849.6,434.3L854.3,436.3L858.3,436.4L861.4,434.1L870.7,433.6L873.0,434.7L876.0,433.7L899.2,435.8L901.7,436.5L899.9,438.5L905.5,437.8L908.6,439.9L919.3,439.9L920.2,441.2L925.2,441.3L927.5,439.8L932.0,441.7L943.8,443.1L950.5,447.3L950.1,445.7L951.9,445.3L973.4,448.4L974.6,449.6L972.3,450.3L972.8,451.6L967.9,451.1L971.7,452.0L971.0,452.9L962.4,452.6L965.9,453.9L959.3,455.2L957.8,453.9L957.7,455.6L959.5,457.1L953.9,456.6L951.1,459.0L947.0,459.3L952.3,460.7L951.2,461.5L952.3,462.4L951.2,463.8L956.9,466.5L955.5,467.3L959.5,466.8L964.0,468.6L951.8,469.2L949.1,468.2L949.9,469.5L946.9,469.6L944.1,471.6L946.0,472.3L940.5,473.4L946.2,473.5L946.7,474.3L945.2,474.4L946.4,474.7L945.7,475.9L954.7,478.3L948.0,479.1L957.6,478.8L968.3,480.7L965.7,481.3L967.0,481.6L998.9,484.1L0.0,484.3Z"/>
</svg>