<svg xmlns="http://www.w3.org/2000/svg" viewBox="0 0 1000 500">
<path d="M898,283L899,290L904,292L907,303L913,306L916,312L919,312L919,315L925,322L927,330L925,337L920,343L916,354L911,355L906,358L907,359L904,356L902,357L902,355L899,358L893,357L888,353L887,348L884,349L884,345L882,348L880,348L883,343L883,340L877,347L873,340L864,337L850,340L843,344L833,344L827,347L819,345L821,338L814,323L816,324L815,321L817,323L815,318L817,311L817,312L824,307L836,304L840,300L840,297L842,296L843,299L843,295L847,296L846,293L850,289L854,289L856,293L857,291L860,292L859,290L863,285L869,284L867,281L875,284L878,283L878,285L879,283L880,284L878,287L876,291L890,299L893,295L894,284L896,280L898,283Z"/><path d="M855,248L857,246L856,248L858,249L855,249L857,252L854,247L856,244L855,248Z"/><path d="M692,386L696,387L691,388L692,385L692,386Z"/><path d="M840,218L842,219L839,221L839,217L840,218Z"/><path d="M860,258L863,261L861,259L855,260L856,258L860,258Z"/><path d="M841,274L833,274L835,273L840,274L841,273L841,274Z"/><path d="M828,273L831,274L824,275L825,273L828,273Z"/><path d="M560,32L569,34L558,35L560,34L556,32L560,32Z"/><path d="M0,51L7,52L2,53L0,53L1000,53L997,53L1000,51L0,51Z"/><path d="M295,370L293,370L294,366L296,367L295,370Z"/><path d="M293,387L293,389L292,387L290,388L292,385L293,387Z"/><path d="M330,122L334,122L329,123L332,119L330,122Z"/><path d="M316,199L318,199L313,200L313,199L316,199Z"/><path d="M129,94L133,96L132,96L133,98L129,95L130,95L129,94Z"/><path d="M126,88L128,90L127,89L128,91L127,92L126,88Z"/><path d="M132,100L133,100L132,101L134,100L133,102L131,102L130,100L132,100Z"/><path d="M323,121L328,121L326,122L321,120L322,119L323,121Z"/><path d="M922,262L923,262L922,265L918,267L912,266L917,264L919,265L922,262Z"/><path d="M903,363L912,363L911,370L909,369L908,371L906,371L902,365L903,363Z"/><path d="M768,25L772,26L761,28L754,27L759,25L768,25Z"/><path d="M771,27L778,28L775,30L778,31L759,29L771,27Z"/><path d="M786,30L784,31L788,30L793,32L776,33L782,30L786,30Z"/><path d="M889,39L904,40L900,42L895,40L898,42L886,43L880,41L884,39L889,39Z"/><path d="M981,347L984,348L985,352L988,353L987,351L989,355L996,355L994,359L992,359L987,366L985,365L987,362L983,359L985,358L986,353L980,346L981,347Z"/><path d="M981,365L984,364L979,371L981,372L976,373L974,377L970,380L962,378L968,372L975,369L979,363L980,363L981,365Z"/><path d="M850,224L852,230L851,232L849,230L848,234L845,232L845,229L844,228L839,230L843,226L844,228L849,225L849,223L850,224Z"/><path d="M836,198L840,199L840,202L837,207L838,211L844,212L845,215L841,211L841,213L838,211L835,212L836,209L834,209L833,205L834,205L835,199L836,198Z"/><path d="M871,252L873,252L873,256L875,259L883,254L901,261L905,265L911,268L908,269L913,275L919,278L918,280L910,278L906,272L901,271L895,273L898,274L896,276L892,276L889,272L886,273L885,270L887,270L884,266L872,261L872,258L869,261L867,258L871,257L872,256L868,256L864,254L868,251L871,252Z"/><path d="M847,247L844,249L834,249L835,254L843,252L837,255L841,262L838,263L835,257L835,266L832,266L832,261L830,258L834,247L844,248L848,245L847,247Z"/><path d="M798,267L802,269L807,269L808,268L813,269L814,271L818,272L818,274L792,269L795,266L798,267Z"/><path d="M768,235L771,236L786,248L785,249L788,249L787,252L790,253L791,257L793,257L795,259L794,266L791,266L782,259L774,245L765,235L768,235Z"/><path d="M824,231L826,231L826,234L831,235L825,240L831,247L828,247L822,260L819,262L818,259L814,258L811,260L810,258L806,258L806,254L803,251L803,246L805,244L809,246L810,242L821,236L824,231Z"/><path d="M688,38L670,41L657,46L649,45L657,42L655,41L664,39L688,36L692,37L688,38Z"/><path d="M654,46L657,47L654,50L660,54L649,53L650,52L648,51L643,51L648,47L654,46Z"/><path d="M897,99L902,115L898,113L896,117L899,121L896,120L895,122L895,108L893,105L897,99Z"/><path d="M900,127L904,127L903,129L905,129L900,131L898,133L890,132L892,134L889,135L888,132L890,130L893,130L894,124L900,127Z"/><path d="M892,135L894,140L892,144L890,152L888,153L888,151L884,154L880,153L880,155L877,157L875,156L876,154L874,153L864,156L869,151L878,151L880,146L881,146L881,148L884,147L888,142L889,137L892,135Z"/><path d="M873,155L874,156L873,158L871,157L869,159L867,157L873,155Z"/><path d="M864,157L867,159L863,164L863,162L862,163L863,159L862,158L860,160L860,158L863,156L864,157Z"/><path d="M836,187L836,189L834,184L838,180L836,187Z"/><path d="M808,194L806,199L802,199L804,195L808,194Z"/><path d="M722,223L727,230L724,233L722,231L721,227L723,224L722,223Z"/><path d="M638,285L640,293L638,293L637,301L631,319L625,321L622,319L620,312L623,305L622,298L624,295L629,294L633,291L633,288L636,287L637,284L638,285Z"/><path d="M374,469L379,469L381,472L362,474L349,474L360,471L360,469L364,467L378,468L374,469Z"/><path d="M334,473L332,475L315,473L329,473L332,472L335,473L334,473Z"/><path d="M305,442L310,447L310,450L308,451L297,451L305,451L301,451L303,450L299,449L294,450L291,450L299,448L298,447L306,448L302,446L307,446L301,445L300,442L305,442Z"/><path d="M308,396L319,402L300,402L305,401L303,400L304,399L305,401L308,401L305,400L307,398L304,398L308,396Z"/><path d="M273,186L278,186L294,194L284,195L285,193L281,190L273,188L273,187L264,189L267,187L273,186Z"/><path d="M547,28L559,31L553,32L546,37L539,35L547,34L538,33L548,32L547,31L537,33L530,28L538,28L535,29L539,30L541,28L545,31L544,29L547,28Z"/><path d="M527,136L527,141L524,142L523,136L527,136Z"/><path d="M354,56L356,57L351,58L347,56L349,55L354,56Z"/><path d="M147,109L151,110L157,116L153,115L153,113L151,114L143,109L147,109Z"/><path d="M300,195L306,195L310,199L303,199L302,201L300,199L293,199L299,198L296,195L300,195Z"/><path d="M362,251L366,251L364,254L360,255L359,251L362,251Z"/><path d="M491,87L489,90L495,90L491,93L493,94L489,94L495,96L500,100L500,101L498,101L501,102L500,103L505,103L501,107L504,108L484,111L493,106L486,106L489,104L487,103L488,102L492,102L492,100L490,99L492,97L486,98L487,95L486,94L484,96L486,92L483,92L486,87L491,87Z"/><path d="M480,97L483,97L485,99L482,100L482,105L472,107L473,106L471,105L476,104L472,104L475,102L472,102L473,101L472,99L476,99L477,97L480,97Z"/><path d="M0,58L13,62L16,66L15,64L23,64L29,67L20,68L22,69L19,71L11,68L4,68L3,67L4,66L1,66L2,68L0,69L1000,69L985,70L995,71L999,76L998,77L992,76L980,79L973,83L968,82L962,84L962,82L954,84L950,89L953,89L952,91L954,94L950,94L950,98L945,99L945,102L940,103L939,106L935,108L932,97L933,92L936,89L955,81L956,77L959,76L954,76L953,79L945,82L945,80L944,81L945,78L936,79L929,84L931,86L920,86L923,85L916,84L913,85L896,85L876,97L880,98L880,101L882,99L881,101L888,99L893,102L891,103L893,105L890,109L889,115L876,128L870,131L866,130L860,134L860,137L854,139L854,141L859,147L859,152L851,155L852,150L850,148L853,147L852,145L846,144L849,143L848,140L845,139L837,142L840,138L838,136L830,141L827,141L827,143L830,144L831,147L835,145L841,146L834,149L831,153L834,155L838,162L833,161L839,164L834,166L839,167L838,168L839,168L838,171L831,177L832,179L824,186L817,188L815,186L815,188L807,191L807,194L805,192L805,190L802,189L796,192L793,197L802,207L804,215L803,219L796,221L796,223L795,222L796,223L794,222L795,224L792,226L792,222L787,220L785,216L780,215L780,213L778,213L776,224L777,224L779,230L787,235L789,246L781,242L778,232L773,227L775,217L771,204L769,202L765,206L763,206L763,204L762,206L763,201L761,196L760,196L761,196L756,192L755,188L754,186L753,187L752,184L751,189L750,188L749,190L749,188L748,190L747,189L747,190L746,189L745,190L744,188L741,194L737,195L728,204L723,206L722,221L719,223L721,224L718,225L715,228L713,225L704,204L702,188L701,188L700,191L696,192L692,188L696,186L691,186L691,184L688,184L685,179L671,180L661,179L658,175L652,176L643,173L639,166L636,165L633,167L633,168L639,176L641,181L642,178L643,178L643,182L650,183L657,177L657,182L663,185L666,188L661,194L661,197L654,200L653,203L646,204L645,207L635,211L622,215L620,213L617,202L609,192L607,184L596,172L597,168L595,173L590,167L599,184L599,186L602,189L604,198L607,200L610,207L620,216L618,218L625,221L641,217L643,221L633,238L612,257L609,263L608,267L610,270L610,278L613,280L613,291L611,296L596,305L599,312L598,317L591,321L590,329L577,342L571,345L563,344L556,347L551,345L550,341L551,338L542,323L540,312L533,300L533,294L538,281L534,267L536,266L534,266L524,252L526,249L528,249L526,248L527,239L523,236L517,238L515,234L510,232L494,237L488,235L479,238L475,236L465,229L462,222L457,219L458,217L456,217L453,215L453,213L457,213L454,213L451,209L454,206L455,200L453,189L460,177L464,172L472,168L474,160L481,156L484,151L495,153L503,149L527,146L531,148L529,149L531,152L528,155L529,156L542,160L544,163L553,166L556,164L556,161L560,158L581,164L586,162L594,164L596,162L600,154L600,148L591,150L587,148L582,150L577,148L578,147L576,147L576,145L573,144L575,143L573,139L592,133L597,133L607,136L612,136L616,133L615,131L602,125L605,124L607,122L605,120L609,119L598,121L597,123L601,125L594,127L590,124L593,122L588,121L590,121L588,119L589,120L586,121L582,123L582,125L580,125L579,129L576,132L580,136L576,136L573,139L574,137L568,136L566,137L568,138L566,139L563,138L565,141L563,142L567,145L564,145L565,146L563,146L564,149L562,149L559,145L564,144L559,143L559,142L554,138L554,134L544,129L540,124L539,125L537,123L534,124L534,127L540,133L545,134L544,135L551,138L551,139L547,138L546,140L548,142L545,145L544,139L531,132L528,128L524,127L517,130L511,129L509,130L509,133L502,137L499,140L501,142L494,148L488,148L484,150L481,146L475,147L476,143L474,143L476,141L474,142L476,133L475,130L479,128L494,130L497,124L498,125L494,120L495,119L488,117L487,115L496,115L495,112L501,113L505,109L512,107L510,107L512,107L511,106L515,102L527,101L524,99L523,96L523,93L526,92L523,92L524,91L529,90L529,93L530,93L527,96L527,99L532,100L536,99L541,101L538,100L550,98L554,99L559,96L557,97L559,97L558,93L560,90L568,91L568,88L566,88L565,86L584,83L579,81L564,84L560,82L559,76L560,74L570,69L568,67L562,67L559,69L560,71L558,73L548,76L548,81L553,84L545,87L547,88L544,94L537,96L529,84L523,88L516,87L518,85L514,86L515,85L519,82L514,84L516,81L514,80L521,80L514,80L514,78L519,78L514,77L522,76L519,76L521,75L524,75L523,75L524,73L530,74L532,72L527,73L536,69L534,69L536,66L539,66L536,66L537,65L544,62L541,62L549,60L546,60L551,57L556,56L556,57L563,55L565,56L569,53L572,53L570,55L578,53L578,55L580,53L586,55L580,55L582,56L589,56L593,57L592,58L600,58L614,62L614,64L607,66L589,63L596,67L596,68L597,71L604,73L606,72L602,70L602,69L610,71L612,70L611,68L617,65L623,67L623,60L620,59L627,60L630,62L625,63L629,64L649,58L651,58L648,60L664,58L666,60L669,58L667,57L669,56L690,60L692,58L686,57L687,54L685,53L690,51L693,47L699,47L702,48L700,52L702,53L702,58L704,60L699,65L692,64L700,66L708,62L707,60L709,59L712,58L715,60L714,62L719,62L716,62L716,59L705,58L704,56L707,54L703,52L708,50L708,48L710,48L709,52L710,52L719,53L711,50L717,50L715,50L718,49L731,51L728,54L731,53L731,55L733,54L731,52L732,51L725,49L724,46L741,45L738,46L741,47L739,46L743,45L738,43L743,42L742,41L762,39L758,39L759,39L774,38L776,39L777,39L774,38L782,38L780,36L789,34L795,35L789,36L798,36L796,37L809,37L816,39L812,39L816,40L814,42L792,48L808,45L805,45L806,44L814,45L816,48L814,48L817,46L840,48L846,45L859,47L857,48L859,48L857,49L859,50L855,49L864,53L868,50L883,52L884,51L889,51L887,50L889,49L886,49L892,48L891,48L908,49L903,51L909,49L915,50L917,50L914,51L924,53L941,53L944,54L944,56L947,57L948,59L947,60L949,57L953,56L966,56L974,59L975,58L973,57L974,55L989,56L1000,58L0,58Z"/><path d="M641,120L632,123L630,127L632,128L633,131L640,138L638,138L636,141L636,145L644,148L650,148L650,142L646,138L647,136L650,137L652,136L649,133L647,133L647,136L646,131L642,130L640,127L643,126L642,125L643,124L648,124L647,123L648,120L641,120Z"/><path d="M457,66L459,66L458,66L462,69L448,74L437,73L440,70L433,70L439,68L432,68L435,67L434,67L435,66L438,67L436,65L441,67L441,69L444,66L450,67L449,66L457,66Z"/><path d="M297,399L299,399L298,400L295,399L297,399Z"/><path d="M844,216L845,217L842,217L842,215L844,216Z"/><path d="M259,53L264,53L265,51L261,50L266,50L262,48L266,48L263,47L273,45L277,48L274,49L276,49L275,50L278,49L282,50L281,49L285,50L282,48L285,48L291,49L289,51L294,50L291,51L292,51L292,52L295,51L294,52L301,51L302,52L298,53L304,53L300,54L302,55L305,53L310,54L305,55L312,55L313,56L308,57L315,58L307,59L325,63L323,64L330,65L326,66L328,67L326,68L324,67L323,70L318,67L321,66L309,66L321,73L320,74L319,73L320,75L319,76L309,73L317,77L316,78L302,75L296,71L283,71L285,68L290,70L289,69L296,68L293,66L299,63L295,59L287,59L290,58L280,54L280,56L273,55L275,56L256,55L252,53L258,53L250,50L254,46L264,45L259,48L264,52L259,53Z"/><path d="M307,19L330,21L309,24L320,24L300,27L304,28L302,28L286,29L293,30L282,30L293,31L288,32L291,32L283,33L282,35L272,35L283,37L276,38L271,37L251,38L259,36L256,34L265,35L271,33L264,35L262,34L266,33L264,32L257,33L259,31L273,31L266,31L268,30L260,27L276,29L269,27L286,25L281,25L286,24L263,26L259,26L269,25L256,26L252,25L264,24L251,25L257,24L245,23L264,22L259,22L264,21L279,23L271,21L281,20L278,20L289,21L290,21L286,19L307,19Z"/><path d="M238,51L246,55L242,56L249,57L247,58L249,60L252,58L255,59L255,61L257,63L264,59L262,56L271,57L270,57L274,59L271,60L274,63L274,64L268,66L264,64L267,66L259,65L261,66L257,69L246,67L258,69L255,72L248,73L240,72L248,74L243,76L245,76L243,77L241,77L237,82L236,86L238,88L241,87L243,91L242,92L248,91L263,97L271,97L273,105L276,106L275,108L280,109L279,107L281,108L282,105L279,98L287,93L286,90L282,87L285,83L283,81L285,79L283,77L295,76L302,80L307,81L306,83L304,83L307,85L305,87L310,87L308,89L316,87L317,88L319,85L318,84L321,83L324,86L322,86L325,87L324,88L326,88L324,89L328,89L326,90L330,92L326,92L332,95L332,97L341,98L332,102L341,100L341,101L345,101L345,104L344,104L345,105L333,110L315,111L306,116L303,115L306,116L294,124L292,125L309,116L318,113L322,115L315,117L320,117L319,119L321,122L330,124L321,126L318,129L316,126L324,124L320,124L320,122L309,126L305,128L303,132L306,134L302,134L294,137L295,135L294,139L292,142L290,140L291,139L290,139L292,143L289,147L290,145L288,142L289,140L287,141L288,144L285,143L286,142L285,143L288,145L286,144L288,147L285,146L289,147L290,151L289,148L289,150L287,149L290,150L286,151L288,153L276,160L274,163L278,176L276,180L275,180L270,174L270,170L267,166L263,168L262,166L256,166L256,165L249,166L252,167L251,168L252,169L239,167L232,170L228,174L230,178L228,187L234,198L238,200L246,199L249,192L258,190L253,206L264,206L268,208L267,219L272,225L280,224L287,228L286,226L290,224L290,221L301,215L302,217L300,218L301,220L300,223L301,225L303,223L301,220L306,218L306,216L311,221L316,220L319,222L328,220L325,221L326,222L331,224L330,227L333,226L337,229L337,232L339,231L341,235L342,233L349,234L350,235L350,234L358,239L361,247L354,254L359,253L360,256L363,255L362,257L368,252L376,255L376,259L380,257L389,258L397,264L401,264L403,270L402,276L394,286L392,286L391,299L386,311L383,314L376,314L365,320L364,329L355,339L359,335L358,333L354,342L350,346L339,346L338,344L338,340L337,345L341,348L342,353L338,357L327,358L327,364L319,364L319,367L323,367L323,369L320,369L321,369L319,371L318,375L312,378L317,381L316,383L317,383L313,386L311,389L308,389L310,389L307,393L310,395L303,397L302,400L299,398L302,397L297,398L301,396L298,396L297,397L295,397L297,396L294,396L294,395L299,395L298,394L297,393L298,394L296,395L291,391L293,390L295,391L295,390L295,391L293,389L295,388L293,383L296,384L293,383L294,382L294,380L290,380L295,376L293,378L295,377L295,379L295,376L297,376L296,375L298,374L296,373L299,365L296,366L295,364L297,359L295,354L302,341L301,330L305,310L305,301L289,291L281,274L275,267L274,263L279,257L278,256L277,258L275,256L278,248L281,247L286,239L285,238L285,232L282,228L284,227L279,225L277,227L278,229L275,230L275,228L268,226L263,222L264,223L262,222L262,219L256,214L257,213L246,211L238,205L239,206L236,204L232,207L213,199L207,195L208,190L206,187L196,179L196,176L188,169L186,163L181,161L182,167L190,176L193,182L196,185L194,186L189,181L188,177L181,173L183,173L183,171L179,167L174,158L165,154L160,146L162,144L158,144L156,142L154,131L156,122L158,122L155,121L156,120L154,116L159,116L158,118L160,117L159,119L160,117L159,113L156,112L156,111L154,111L153,109L150,110L145,108L148,106L145,106L146,105L148,105L147,103L144,106L144,103L141,101L145,102L143,100L140,102L138,101L140,99L138,99L140,96L139,97L139,95L137,98L136,94L133,96L135,94L129,91L130,89L128,89L128,87L126,88L124,85L125,88L119,86L122,88L121,88L112,85L114,84L113,83L100,83L98,81L95,82L93,81L94,80L90,80L87,81L89,82L88,83L78,85L80,84L78,84L80,81L86,81L83,80L84,79L75,83L76,83L72,86L74,87L60,94L46,98L63,90L62,88L64,86L61,87L59,86L58,88L55,86L50,87L51,86L49,83L50,81L45,84L41,82L46,81L38,79L43,74L53,73L51,71L53,70L38,71L36,69L38,69L33,68L43,65L45,65L45,66L53,66L49,64L55,65L37,60L45,58L50,55L56,55L56,53L65,52L68,52L67,53L102,55L124,59L122,58L140,55L129,59L131,59L142,56L145,55L144,54L151,57L154,55L155,57L162,56L183,60L180,62L194,61L202,66L200,62L206,59L198,60L199,59L205,59L216,62L230,62L226,60L228,60L233,60L232,62L235,64L232,64L234,65L235,61L240,59L237,59L240,57L233,56L232,55L234,54L232,52L238,51Z"/><path d="M222,45L230,45L227,47L232,48L232,50L225,52L215,48L222,47L221,47L223,47L218,46L222,45Z"/><path d="M264,69L277,73L275,74L269,72L263,75L262,73L258,73L260,72L262,67L264,69Z"/><path d="M229,38L228,40L230,41L228,42L220,41L224,40L214,40L220,39L217,38L223,39L220,38L229,38Z"/><path d="M213,30L222,31L225,33L210,33L208,32L213,31L207,30L213,30Z"/><path d="M245,25L264,30L255,31L253,33L250,32L251,33L246,33L238,31L246,30L236,30L234,29L238,29L231,27L238,27L232,27L241,25L238,24L245,25Z"/><path d="M238,36L252,38L246,38L253,40L272,39L279,40L277,42L279,42L246,43L241,38L231,37L238,36Z"/><path d="M179,35L174,38L173,37L167,39L159,39L169,35L179,35Z"/><path d="M199,39L207,40L205,41L187,43L182,43L192,41L173,41L180,40L175,40L181,39L176,39L181,38L197,40L194,38L198,37L199,39Z"/><path d="M241,44L249,45L244,48L238,48L240,49L236,50L234,45L241,44Z"/><path d="M182,48L191,48L190,49L194,47L201,51L202,50L199,47L204,47L207,48L210,53L220,56L213,56L217,58L214,59L204,57L186,60L184,58L176,57L174,55L190,55L173,54L171,53L180,51L169,51L176,47L183,46L182,48Z"/><path d="M167,44L174,44L179,46L159,53L150,50L156,45L154,43L167,44Z"/><path d="M346,107L342,112L344,111L346,111L344,112L347,112L346,114L351,113L350,116L353,115L350,117L353,116L353,120L350,120L349,117L345,120L348,118L335,118L338,115L336,115L339,114L342,108L346,107Z"/><path d="M417,18L428,19L411,19L430,19L440,21L417,22L441,22L436,26L445,23L468,24L444,28L447,30L441,32L440,34L446,34L443,34L449,36L437,37L445,39L446,41L438,41L444,42L446,43L438,44L443,45L443,46L429,45L431,46L423,47L433,46L439,47L438,50L432,47L426,48L431,47L430,49L439,51L438,52L440,51L440,54L435,54L425,51L429,52L419,54L438,55L426,59L414,61L410,60L411,61L404,65L395,68L396,66L394,66L395,66L393,67L394,67L388,68L390,68L386,69L388,71L384,71L387,73L381,76L383,76L383,78L380,82L378,82L380,83L378,84L374,83L376,81L372,82L373,80L366,81L367,81L363,79L364,78L360,76L362,75L360,75L357,72L360,72L356,72L361,70L358,69L359,70L356,72L354,69L358,67L354,68L352,67L358,64L351,66L354,64L351,63L359,62L351,62L352,61L358,60L352,60L353,59L360,58L358,58L360,55L349,54L359,54L356,53L358,53L352,52L356,51L352,51L351,49L350,52L346,51L348,49L346,49L348,48L345,47L346,46L344,44L341,44L344,43L337,40L324,38L310,39L307,38L311,37L302,36L316,35L298,33L317,30L322,28L313,27L329,25L332,22L343,24L335,22L348,21L351,23L353,21L362,22L358,21L361,21L376,23L377,21L373,20L385,20L371,20L417,18Z"/><path d="M0,484L65,487L16,480L57,482L74,479L75,479L70,478L72,477L64,476L89,475L82,473L89,472L66,469L71,467L62,467L60,466L61,464L84,466L88,465L87,464L95,465L95,463L84,462L96,462L93,461L124,457L162,458L180,457L182,455L185,456L183,458L190,458L189,456L191,456L194,457L191,459L219,460L226,459L214,455L225,454L213,452L247,454L253,452L255,452L254,453L272,455L277,454L277,453L287,454L286,455L309,453L314,450L309,443L314,442L313,441L315,438L313,436L315,437L315,435L321,433L323,431L341,426L342,427L327,431L328,434L332,433L330,434L326,434L326,435L323,434L323,436L318,437L318,439L320,439L319,441L325,440L323,441L328,445L327,445L329,446L328,447L331,448L328,449L330,449L327,450L331,450L330,452L333,453L328,453L331,455L328,456L331,456L321,459L324,460L305,463L285,463L298,466L294,467L276,466L273,466L285,468L277,469L267,467L269,468L267,468L275,471L288,471L287,472L279,472L288,472L291,475L304,474L327,477L316,478L332,478L326,479L330,481L329,482L335,482L350,478L372,478L371,479L373,479L392,475L435,472L399,468L405,465L420,462L449,460L448,459L452,457L460,455L455,455L454,454L468,451L469,449L466,448L470,449L471,447L476,449L479,449L478,447L484,446L483,448L497,448L498,449L525,445L533,447L536,445L553,445L554,447L560,445L564,447L567,446L574,447L591,444L591,441L593,441L598,444L608,445L612,441L629,437L634,439L637,437L635,436L640,437L640,435L649,433L659,435L656,435L656,437L693,438L694,440L691,443L692,444L687,445L692,446L685,453L687,454L698,449L704,444L710,444L720,439L735,436L776,435L785,433L804,436L814,433L821,435L817,437L834,436L831,437L850,434L858,436L861,434L871,434L899,436L902,437L900,439L905,438L909,440L925,441L928,440L944,443L951,447L950,446L952,445L973,448L975,450L972,450L973,452L968,451L972,452L971,453L962,453L966,454L959,455L958,454L959,457L954,457L951,459L947,459L952,461L951,464L957,467L955,467L964,469L949,468L950,470L944,472L946,472L940,473L946,473L946,476L955,478L948,479L958,479L968,481L966,481L967,482L999,484L0,484Z"/>
</svg>