<svg xmlns="http://www.w3.org/2000/svg" viewBox="0 0 1000 500">
<path d="M0,58L26,66L10,68L996,73L959,83L941,103L952,79L914,85L889,100L861,133L851,152L840,141L840,147L835,166L829,182L812,189L796,192L796,221L778,216L779,237L769,204L758,193L745,189L720,222L702,190L684,179L637,165L646,183L645,207L608,186L603,192L643,221L612,278L598,311L552,345L537,274L526,248L515,236L466,230L454,215L459,179L525,147L564,160L597,148L574,141L604,126L596,126L577,130L563,142L560,143L538,123L540,137L501,138L474,141L496,121L509,107L526,92L539,100L571,84L561,82L560,68L552,83L532,88L517,84L514,78L528,72L546,61L570,53L590,57L598,71L629,64L678,57L698,65L709,48L732,51L758,39L811,38L814,48L857,50L900,49L964,57Z"/><path d="M238,51L250,60L270,56L266,65L251,72L242,77L254,92L280,107L284,85L299,79L310,87L319,84L329,91L336,100L338,108L294,124L323,123L321,124L307,128L294,137L289,144L286,142L287,150L276,160L273,177L257,166L246,169L229,174L247,197L254,205L267,217L292,219L310,219L333,226L361,247L371,253L403,271L383,313L355,339L338,344L321,368L308,394L294,396L294,390L292,379L298,368L302,330L286,282L280,245L281,225L262,220L223,204L197,177L188,174L180,173L160,147L156,123L159,119L156,112L145,106L139,101L132,93L119,86L98,83L88,83L84,79L65,91L49,97L62,88L44,81L50,74L45,66L56,54L102,55L136,57L152,57L184,62L204,61L229,62L235,61L235,52Z"/><path d="M0,484L45,485L30,482L49,482L67,475L82,471L60,465L87,465L95,463L105,460L139,458L185,457L192,458L226,459L220,455L219,453L251,452L273,455L289,455L312,447L315,438L315,435L321,432L328,429L341,426L333,429L328,434L328,434L323,436L318,439L325,440L328,446L330,450L328,453L328,457L324,459L288,465L277,469L277,470L297,475L320,477L326,479L352,478L386,475L433,472L411,464L450,457L461,453L470,448L482,447L501,448L535,445L559,446L579,446L598,443L618,440L634,439L653,433L666,437L693,441L692,446L694,450L711,443L742,436L770,435L799,435L817,437L837,436L861,434L884,435L905,438L927,441L950,447L973,448L967,453L958,456L951,460L957,467L949,469L942,473L948,479L966,481Z"/><path d="M417,18L430,19L423,22L439,24L451,24L465,24L453,27L446,29L441,32L446,35L447,37L441,38L445,41L442,42L443,44L442,45L429,45L424,47L438,47L427,48L434,49L440,52L434,54L429,52L420,54L429,55L434,57L427,59L415,61L408,62L401,66L397,67L395,66L386,69L387,72L384,75L383,78L380,82L377,83L372,82L367,81L364,79L362,77L359,75L357,72L360,70L356,72L357,67L356,65L352,65L354,62L353,62L358,60L357,60L359,57L353,55L359,54L355,52L351,51L351,50L345,51L347,48L346,46L344,44L341,42L328,38L317,38L309,37L302,36L314,34L304,34L302,32L318,30L314,28L324,25L335,23L346,21L359,23L376,22L372,19L394,19L402,18Z"/><path d="M259,53L265,51L265,50L262,48L266,46L275,46L276,49L275,50L279,49L282,49L285,48L289,51L294,50L293,51L296,52L302,52L302,53L301,54L305,53L309,54L309,55L311,55L309,57L315,58L312,58L311,59L314,60L315,61L318,62L321,62L323,63L327,64L328,66L326,67L323,68L321,69L319,67L317,66L314,65L313,67L311,67L314,68L315,70L319,70L319,72L321,74L320,75L317,75L315,75L312,74L312,75L317,77L309,77L303,75L301,73L296,71L294,71L292,71L285,71L285,69L290,70L292,68L294,67L299,64L295,60L293,59L291,59L289,58L288,56L284,56L280,54L277,56L272,56L260,55L256,55L255,53L250,50L252,47L264,45L260,49Z"/><path d="M898,283L899,288L903,291L904,296L906,302L910,304L913,307L916,312L918,313L920,316L924,320L926,328L925,336L923,341L920,344L919,347L917,350L915,355L906,358L905,358L903,357L901,356L897,357L889,355L886,349L886,349L884,345L881,347L883,343L881,344L878,347L876,346L874,342L869,339L858,338L845,342L839,344L829,346L820,345L821,341L819,332L814,323L816,324L816,322L817,321L816,314L818,312L825,307L835,305L840,300L841,296L843,297L843,296L845,296L846,295L846,293L847,292L848,291L849,290L850,289L852,288L856,292L857,291L860,292L860,290L862,287L863,285L865,284L869,284L867,281L870,283L875,284L877,284L879,283L879,286L876,291L880,294L885,297L891,299L893,290L894,285L895,281L897,282Z"/><path d="M307,19L315,20L314,20L319,20L323,20L325,21L330,21L319,23L314,24L318,24L306,27L301,27L303,27L302,28L293,28L296,29L290,29L290,30L290,30L283,30L287,31L293,31L289,32L287,34L283,35L275,35L274,35L275,35L280,36L283,36L278,38L275,38L272,37L272,37L262,38L257,38L254,38L255,36L258,35L256,34L262,35L269,34L267,35L263,33L264,32L259,33L259,31L269,31L273,31L266,31L268,30L261,29L267,27L274,29L275,29L271,27L287,25L283,25L280,25L274,26L270,26L262,26L263,25L257,26L252,25L263,24L250,25L254,24L248,24L246,23L251,23L258,22L263,22L262,21L269,22L270,22L279,23L272,21L275,21L281,20L280,20L288,21L286,20L298,20L300,19L303,19Z"/><path d="M871,252L872,253L873,255L873,257L874,257L875,259L877,259L879,257L881,256L883,254L886,255L889,257L891,257L894,258L899,260L901,261L902,261L905,263L907,266L910,267L911,269L908,269L910,272L912,274L913,275L914,276L917,277L916,278L918,278L918,279L917,280L915,279L912,278L910,278L909,276L907,275L906,273L904,272L902,271L901,271L900,271L900,272L899,272L897,273L896,273L896,273L898,274L897,275L895,275L892,276L889,273L889,273L887,272L886,273L886,271L885,270L886,270L886,269L884,267L884,266L884,265L883,265L881,264L878,263L874,262L874,261L873,261L872,260L872,258L871,260L870,261L869,260L867,258L868,258L870,257L872,257L872,256L869,256L867,256L866,254L864,254L865,252L867,251L870,251Z"/><path d="M491,87L490,89L489,89L491,90L494,90L495,90L494,92L492,93L492,93L491,94L490,94L494,95L496,97L499,99L500,100L500,101L498,101L501,103L501,103L503,103L505,104L504,105L504,106L502,106L501,107L502,107L504,108L502,109L499,109L496,109L494,109L493,109L492,109L489,110L488,110L486,111L484,111L486,110L487,109L489,108L492,107L493,107L490,107L488,107L487,106L486,106L487,105L489,104L489,103L487,103L488,103L490,102L491,102L492,102L492,101L492,100L491,99L492,97L489,98L488,98L487,98L486,98L487,96L486,95L487,94L486,94L485,95L486,94L485,95L484,96L484,95L484,94L485,93L484,93L483,92L484,92L484,91L484,90L484,89L485,89L485,88L486,88L487,87L488,87L492,87Z"/><path d="M346,107L345,108L343,111L343,111L346,111L344,113L347,113L347,113L349,113L350,114L351,115L352,115L351,116L351,118L352,118L354,118L351,120L350,120L349,117L348,118L345,120L347,118L344,118L342,118L335,118L336,115L338,114L338,113L340,110L342,108L345,107Z"/><path d="M457,66L458,66L460,67L462,68L462,69L460,70L454,72L449,74L443,73L441,72L437,72L440,71L439,71L434,70L436,70L439,69L436,68L433,68L434,67L435,66L437,67L436,66L437,65L441,67L440,68L442,68L445,67L448,66L449,66L453,66L456,66Z"/><path d="M824,231L827,232L828,234L830,235L829,236L828,238L827,240L826,241L827,242L827,245L828,247L827,252L824,253L823,255L823,257L823,259L818,260L816,260L812,259L810,258L807,258L806,254L803,252L803,249L804,245L808,246L809,244L810,242L817,238L820,236L821,235L824,231Z"/><path d="M182,48L186,47L190,49L193,48L197,48L199,51L202,50L199,47L203,46L208,49L210,52L214,54L219,55L218,56L215,57L214,57L217,57L217,58L208,58L205,57L198,59L186,60L178,57L175,55L190,55L177,54L178,52L173,52L169,51L172,48L183,47Z"/><path d="M641,120L637,121L635,122L633,123L632,124L630,126L632,128L633,131L636,135L640,138L637,141L636,143L639,146L650,148L650,143L648,141L648,140L647,138L649,137L652,137L650,134L647,134L646,132L644,131L642,129L640,126L643,126L645,124L648,121L645,120L641,120Z"/><path d="M892,135L894,139L894,142L892,144L891,148L891,151L888,153L889,151L888,152L886,154L885,153L881,154L880,153L880,154L876,156L876,154L872,154L868,155L865,156L865,154L869,152L873,151L877,151L880,148L880,147L883,147L887,144L889,141L889,139L889,137L891,136L892,136L892,135Z"/><path d="M847,247L843,249L838,249L834,249L835,253L837,253L840,252L843,252L841,253L838,255L838,256L840,259L841,261L841,262L839,263L838,262L836,259L834,258L834,264L833,266L832,263L832,260L830,258L831,256L833,252L833,249L834,248L836,246L838,247L842,247L847,246L847,247Z"/><path d="M238,36L241,37L246,37L246,37L248,38L251,39L252,40L254,40L260,40L266,40L275,40L277,40L277,42L277,42L274,43L269,43L268,42L264,43L262,43L258,43L255,42L253,42L250,43L247,43L244,41L244,40L241,38L234,38L231,37L231,36L238,36Z"/><path d="M981,365L983,364L983,364L984,364L984,365L984,366L982,369L980,370L980,371L979,372L979,372L977,372L976,374L975,376L973,378L969,379L968,379L965,378L963,378L964,377L964,376L964,376L964,375L966,374L968,372L971,371L973,370L973,370L975,369L976,368L977,366L980,362L981,364Z"/><path d="M547,28L550,29L552,29L552,30L557,30L558,31L553,33L551,34L548,36L545,37L539,35L545,34L543,34L538,33L544,33L547,32L544,32L542,31L540,32L539,33L533,32L534,31L533,30L531,30L530,29L533,28L538,28L537,29L539,29L544,30L544,29Z"/><path d="M245,25L250,26L252,27L255,27L256,27L257,28L259,29L262,29L259,31L256,31L255,31L256,32L254,32L250,32L250,33L249,33L242,32L240,31L238,31L246,30L239,30L236,30L238,29L232,28L237,27L232,27L234,26L238,26L236,25L241,24L240,24Z"/><path d="M199,39L200,39L203,39L203,39L206,39L206,41L200,42L198,41L191,43L182,43L189,42L190,41L187,41L184,41L183,40L182,41L180,42L179,42L173,41L180,40L175,40L179,39L177,38L178,38L183,38L185,38L189,39L192,40L197,40L195,38L195,37L199,37L199,38Z"/><path d="M981,347L983,347L984,348L985,349L986,351L986,352L987,353L987,352L988,352L989,354L992,356L994,354L995,357L994,359L992,359L991,362L989,364L987,365L986,365L986,364L985,361L983,359L985,358L986,355L985,353L985,353L984,351L984,351L983,350L983,350L982,348L981,348L980,346Z"/><path d="M480,97L483,97L484,98L485,99L484,99L483,100L483,101L483,103L482,105L480,105L478,106L477,106L474,107L473,107L472,106L472,105L472,105L473,104L474,104L474,103L475,102L473,102L472,101L472,101L473,100L472,99L475,99L477,99L476,98L478,97L479,97L479,97L481,97Z"/><path d="M768,235L771,236L773,238L775,240L779,243L780,245L781,244L783,246L785,248L785,249L788,249L787,251L788,252L790,254L791,256L791,257L793,257L794,260L794,263L793,266L791,266L790,266L787,263L783,259L780,257L778,252L776,249L774,245L771,242L769,240L765,236L765,234L767,235Z"/><path d="M0,500L969,500L937,500L906,500L875,500L844,500L812,500L781,500L750,500L719,500L687,500L656,500L625,500L594,500L562,500L531,500L500,500L469,500L438,500L406,500L375,500L344,500L313,500L281,500L250,500L219,500L188,500L156,500L125,500L94,500L63,500L31,500L0,500Z"/><path d="M638,285L639,289L640,294L638,293L638,295L638,297L637,302L634,309L632,316L631,319L627,321L623,320L622,318L621,315L620,312L621,309L623,307L623,303L622,299L623,295L626,294L627,294L629,294L630,292L631,293L632,291L632,292L633,290L633,288L635,287L636,285L637,284Z"/><path d="M836,198L839,199L840,200L840,202L840,203L838,206L837,207L838,209L838,211L840,211L840,210L842,211L843,211L844,211L843,212L844,214L844,215L843,214L842,213L840,211L841,213L840,212L837,212L836,212L835,210L835,209L835,210L834,209L833,206L833,205L834,205L834,204L834,201L836,198Z"/><path d="M273,186L275,186L277,186L279,187L281,188L285,190L285,190L285,190L286,191L288,191L290,192L290,192L293,193L294,194L292,195L291,195L287,195L286,194L285,193L282,192L281,190L277,189L275,189L274,189L272,188L273,187L269,188L268,188L266,189L265,189L265,189L266,187L272,186Z"/><path d="M222,45L228,45L231,45L229,46L230,46L227,47L228,47L230,48L230,48L232,48L231,49L231,50L230,51L227,51L227,51L226,52L224,51L220,49L218,49L216,48L215,47L217,47L220,48L222,48L221,47L221,46L221,46L218,46L220,46L220,45L222,45L222,45Z"/><path d="M305,442L307,444L310,447L310,450L308,451L300,452L298,452L298,451L304,451L304,450L300,450L302,450L299,449L295,450L295,450L293,450L291,450L291,449L293,449L293,448L295,449L296,448L298,448L298,447L303,447L306,447L306,447L303,447L305,445L305,445L302,445L300,444L300,443L300,442L305,441Z"/><path d="M688,38L682,39L676,40L670,41L668,42L668,42L666,43L664,43L663,43L662,44L660,45L660,45L657,46L652,46L649,45L652,45L654,43L654,43L657,42L655,41L657,41L659,41L661,40L664,39L667,39L670,39L672,38L679,38L682,37L684,37L690,36L691,37Z"/><path d="M850,224L851,225L851,226L851,228L852,230L851,231L850,231L849,230L848,231L849,233L848,234L848,233L846,233L844,231L845,230L844,228L843,229L842,229L841,229L840,229L839,231L839,230L840,228L842,227L842,226L844,226L844,228L845,227L846,226L847,225L848,225L849,223Z"/><path d="M308,396L310,396L310,398L311,398L313,400L317,402L318,402L317,403L314,403L310,402L307,402L305,402L303,402L300,401L301,401L303,401L304,401L304,401L304,400L304,400L305,401L307,401L308,401L306,400L306,399L307,398L304,398L305,397L305,397L306,397L307,396Z"/><path d="M897,99L897,100L898,102L898,104L898,106L898,107L899,108L901,112L902,114L902,114L900,113L898,113L896,116L897,118L897,119L898,120L899,121L898,122L897,121L896,120L895,121L894,122L894,119L894,118L895,116L894,114L895,111L895,109L894,107L894,106L894,104L894,102L895,102L896,101L896,100L896,99Z"/><path d="M798,267L800,267L801,267L802,269L804,269L805,269L807,269L807,268L808,268L809,269L810,269L812,269L813,270L815,271L817,271L818,273L818,274L818,274L815,273L813,273L809,273L805,272L802,271L801,272L799,271L796,270L796,270L793,269L792,269L793,269L793,268L794,267L795,267L797,267L798,267Z"/><path d="M229,38L229,38L229,39L229,39L229,40L228,41L228,41L228,41L227,42L225,42L223,42L221,41L221,41L222,40L224,40L215,40L216,40L218,39L219,39L218,39L217,39L217,38L217,38L219,38L222,39L223,39L222,39L222,38L222,38L220,38L221,37L224,37L225,37L228,37Z"/><path d="M147,109L151,110L153,112L153,112L156,113L157,115L157,115L157,115L156,116L153,115L153,114L153,114L152,114L150,114L151,113L150,113L150,113L149,113L149,113L148,112L149,112L148,111L147,111L147,111L147,111L146,111L145,111L145,110L145,110L146,110L145,109L144,110L144,109L147,109Z"/><path d="M903,363L904,363L905,364L907,364L908,364L909,364L910,364L911,363L912,364L912,366L912,367L912,367L912,367L911,367L911,368L911,369L911,370L911,369L910,369L909,369L909,370L908,370L908,370L907,371L906,371L906,370L905,370L904,368L904,368L904,367L903,366L902,364L902,363Z"/><path d="M179,35L177,36L178,36L177,36L178,37L175,38L174,38L172,38L173,37L172,37L171,37L170,38L170,38L169,38L168,38L167,39L168,39L166,39L165,39L164,38L163,39L160,39L159,39L159,38L159,38L162,38L165,37L167,36L172,35L175,35L175,35L176,35Z"/><path d="M654,46L657,47L656,48L655,48L654,49L654,49L654,50L657,52L660,54L657,54L656,54L657,54L655,54L653,54L652,54L648,53L649,53L650,52L649,52L648,51L644,51L643,51L643,50L645,50L646,49L647,48L646,48L647,47L648,47L649,47L651,46L653,46Z"/><path d="M900,127L902,128L904,127L903,128L904,130L905,129L904,130L903,130L901,131L898,132L898,133L895,132L891,132L890,132L890,133L891,133L891,134L890,135L889,135L889,134L888,132L889,131L890,130L891,130L892,130L893,129L894,127L893,125L894,124L894,124L897,126L900,127Z"/><path d="M300,195L301,195L302,195L304,195L305,195L306,196L308,197L307,197L308,197L310,198L309,199L309,199L307,199L305,199L304,199L303,199L302,201L301,200L300,200L298,199L297,199L295,199L294,199L293,198L295,198L298,199L299,198L298,197L298,196L296,195L298,195Z"/><path d="M864,157L866,157L866,157L866,158L867,159L866,160L865,162L864,163L863,164L863,163L863,162L863,162L863,163L862,163L862,162L862,161L862,160L863,159L862,158L862,159L862,159L862,159L861,159L860,158L861,159L860,158L861,157L861,157L862,156L863,156Z"/><path d="M167,44L169,44L169,44L170,44L172,44L175,44L179,46L179,46L177,46L172,47L168,49L166,49L165,51L164,52L162,52L160,52L158,53L157,52L156,51L152,50L151,50L151,50L151,49L152,49L153,48L153,48L153,48L154,47L154,47L154,47L155,45L155,45L154,44L157,43L163,43L167,44L167,44Z"/><path d="M264,69L265,68L266,69L267,69L269,70L271,70L273,71L273,72L274,72L275,72L276,72L277,73L275,74L274,74L271,73L269,72L269,72L268,72L267,73L266,74L264,74L263,75L262,73L259,73L258,73L258,73L260,72L260,71L260,70L261,68L262,67L263,67L264,68L264,68Z"/><path d="M213,30L215,30L215,31L215,31L216,31L217,30L219,31L219,31L223,32L223,32L223,32L225,33L225,33L223,34L220,34L220,33L217,33L215,33L215,32L210,33L208,32L211,32L212,32L213,31L211,31L211,31L210,31L208,31L209,30L207,30L207,30L212,30Z"/><path d="M75,89L76,89L77,89L77,90L77,90L75,90L76,90L76,91L75,91L74,91L73,92L72,92L72,92L72,92L72,91L72,91L71,91L72,92L71,92L70,90L72,90L72,90L73,91L73,90L73,90L72,89L73,89L74,90L74,89L74,89L74,89L75,89Z"/><path d="M558,27L560,27L562,28L562,27L563,27L565,27L565,27L567,27L568,27L569,27L572,27L575,27L573,29L571,29L569,30L567,30L563,30L558,29L555,29L556,29L557,29L555,28L552,28L551,28L551,28L552,27L554,27L553,27L555,27L555,27L556,27L558,27Z"/><path d="M889,39L890,40L891,40L891,39L892,39L894,39L898,39L903,40L902,41L901,41L898,41L896,41L897,40L895,40L895,41L898,42L895,42L894,42L891,42L888,42L888,42L886,43L883,42L882,42L880,41L881,40L882,39L883,39L884,39L886,38L888,39Z"/><path d="M922,262L923,262L923,262L923,263L923,264L922,264L923,265L922,265L921,266L921,266L920,267L919,267L918,267L917,267L916,267L915,267L914,267L913,266L912,266L913,265L913,265L914,265L915,265L916,265L917,264L917,264L917,265L917,265L918,265L919,265L920,265L920,264L921,264L921,263L921,262L922,262Z"/><path d="M374,469L378,469L379,469L380,470L381,471L380,472L379,472L378,472L379,473L363,474L362,474L349,475L349,474L350,474L352,473L353,473L354,472L355,473L359,471L360,471L360,470L359,470L360,470L360,469L360,469L361,468L363,467L368,466L370,466L374,466L377,467L378,467L378,468L375,469L374,469Z"/><path d="M229,57L230,56L230,57L231,57L233,58L234,59L235,59L235,59L234,59L234,59L232,60L230,60L228,59L227,59L227,59L226,59L225,59L225,59L225,59L225,59L224,59L223,58L225,58L226,57L226,57L226,57L226,57L226,57L227,57L227,57L227,56L228,56L229,56L229,56L229,56Z"/><path d="M129,94L130,94L130,94L130,94L132,95L133,96L133,96L132,96L132,96L133,96L133,96L133,97L133,97L133,97L133,98L133,98L133,98L132,97L132,97L132,97L131,97L131,97L130,96L131,96L130,96L130,96L129,95L129,95L129,95L130,95L130,95L129,94L128,94L129,94L129,94Z"/><path d="M855,248L855,248L856,247L856,247L857,246L858,246L858,247L857,247L856,248L857,249L858,249L858,249L856,249L856,249L855,249L855,250L856,252L856,252L856,252L855,251L855,250L855,249L854,249L854,248L854,247L854,246L854,245L855,244L856,244L855,245L856,245L856,246L855,247L855,248Z"/><path d="M771,27L771,28L773,28L775,28L777,28L777,29L777,30L776,30L776,31L772,31L769,31L765,30L763,30L759,29L762,28L765,28L768,27Z"/><path d="M692,386L693,386L694,387L695,386L696,387L695,387L694,387L694,388L695,388L694,388L693,388L691,388L691,387L691,387L691,386L692,385L692,386Z"/><path d="M786,30L785,31L788,30L790,31L792,31L791,32L786,33L781,33L776,33L778,32L779,31L780,31L781,30L782,30L783,30L784,29L786,30Z"/><path d="M828,273L829,273L830,273L831,274L830,274L830,274L829,275L828,275L826,275L825,275L824,274L825,273L827,274L828,274L828,274L827,273Z"/><path d="M543,144L542,146L542,146L542,147L542,148L540,148L538,147L536,146L535,145L535,144L536,144L537,144L539,144L541,144L542,144Z"/><path d="M241,44L245,44L249,45L247,46L246,47L244,48L239,48L240,49L237,50L235,48L234,47L235,45L237,45L236,45L238,44Z"/><path d="M841,274L840,274L838,275L837,275L836,275L833,274L833,274L833,273L835,273L835,273L837,274L838,274L839,274L840,274L841,273L841,272L841,273L841,274Z"/><path d="M527,136L527,138L527,139L526,141L525,141L524,142L523,141L524,140L524,140L523,139L523,138L523,137L523,137L525,136L526,136L527,136L527,136Z"/><path d="M330,122L331,122L330,123L331,123L331,122L332,121L333,122L334,122L333,123L331,123L330,123L329,122L331,120L332,119L332,121L332,122Z"/><path d="M228,450L229,450L230,451L231,450L231,451L234,450L235,451L233,452L230,451L227,452L223,451L218,450L216,450L222,450L223,450L226,449Z"/><path d="M323,121L324,121L325,121L328,121L326,122L326,122L325,122L325,122L325,121L324,122L323,121L322,121L321,120L322,120L322,120L323,121Z"/><path d="M873,155L874,156L873,157L872,157L870,158L869,159L869,159L868,158L868,157L867,157L868,157L869,156L870,156L871,156L871,155L873,155Z"/><path d="M722,223L724,224L725,225L726,226L726,227L727,229L727,231L726,233L723,233L722,229L722,228L722,226L722,224L723,224L723,223L722,223Z"/><path d="M860,258L863,259L863,259L862,260L861,259L860,260L858,259L858,259L857,260L856,259L856,259L855,259L857,258L859,258L860,258Z"/><path d="M362,251L364,250L366,251L365,252L365,253L364,254L364,254L363,254L362,255L361,255L360,255L359,253L360,253L359,252L359,251Z"/><path d="M808,194L808,195L807,197L807,197L806,198L806,199L805,199L805,199L804,199L802,199L802,196L803,196L803,195L804,195L805,194L806,194L807,194L807,194L808,194Z"/><path d="M826,227L826,226L827,225L828,224L830,222L831,221L831,221L831,220L832,219L832,219L832,221L832,221L831,222L830,223L829,224L828,225L827,226L826,226Z"/><path d="M149,454L151,454L152,454L151,455L151,455L152,455L154,455L155,455L156,456L156,456L153,456L151,456L149,455L148,455L147,455L146,454L146,454L148,454Z"/><path d="M566,151L567,151L567,151L567,152L568,152L569,152L571,152L572,152L572,152L573,152L573,153L570,153L569,153L567,152L566,152L566,151L566,151L566,151Z"/><path d="M233,32L236,32L236,32L236,33L236,33L233,34L231,34L231,34L229,33L231,33L228,33L227,32L227,32L227,31L228,31L231,31L233,32Z"/><path d="M560,32L562,33L564,33L564,33L566,34L567,34L566,35L564,35L562,35L563,35L562,35L561,35L559,34L560,34L558,33L557,32L560,32Z"/><path d="M37,100L38,100L38,100L38,101L38,101L37,102L35,102L35,102L34,102L34,102L36,101L36,101L37,101L36,101L36,100L36,100L37,100Z"/><path d="M956,306L958,307L959,308L960,309L961,309L962,310L963,311L964,312L963,312L962,312L961,311L960,310L958,309L957,308L956,307L956,306L956,306Z"/><path d="M293,387L293,388L293,388L292,389L292,388L292,388L292,387L292,388L291,388L290,388L291,387L290,387L291,387L292,386L292,386L293,385L293,387Z"/><path d="M854,273L852,274L851,275L850,275L848,276L846,278L845,278L844,279L843,278L843,278L844,276L846,275L848,274L849,274L852,273L853,273L854,273Z"/><path d="M768,25L771,25L772,26L770,26L770,27L770,27L763,27L758,27L755,27L756,26L759,26L758,25L759,25L761,25L764,24L767,24L768,25Z"/><path d="M535,95L534,96L534,96L534,97L533,98L533,97L532,97L531,96L531,95L531,95L532,95L532,95L533,95L533,95L534,94L535,94Z"/><path d="M640,25L643,26L642,26L638,27L635,27L636,27L636,27L635,27L633,28L633,27L632,27L630,27L632,26L634,26L637,26L638,25Z"/><path d="M334,473L334,474L328,475L325,474L322,474L316,473L315,473L316,473L317,473L330,473L329,473L330,472L330,472L334,472L335,473L334,473Z"/><path d="M306,403L310,403L310,403L310,404L311,404L311,405L310,404L309,404L309,404L308,403L307,404L308,404L307,404L306,403L306,403L306,403Z"/><path d="M24,73L25,73L27,73L28,73L29,74L30,74L31,74L29,75L29,75L28,75L27,74L26,74L25,74L23,74L23,74L24,73Z"/><path d="M125,91L126,92L126,93L126,94L126,94L125,93L125,93L125,92L124,92L124,92L124,91L123,92L123,91L123,91L124,90L125,91Z"/><path d="M836,187L836,188L835,189L835,188L834,187L834,186L834,185L835,182L836,181L837,180L838,180L839,181L838,182L838,183L837,186L836,187Z"/><path d="M526,131L526,132L526,134L526,135L525,135L525,134L524,134L524,133L524,133L524,133L524,132L525,132L526,131L526,131L526,130L526,131Z"/><path d="M544,60L545,59L545,59L546,59L545,60L544,60L543,60L542,60L541,61L540,60L543,59L543,58L544,58L545,58L544,59L544,60Z"/><path d="M297,399L298,399L299,399L299,399L299,400L298,400L298,400L297,400L298,400L297,400L297,400L297,400L296,400L296,399L296,399L295,399L296,398L297,398L297,398L297,398Z"/><path d="M281,94L280,95L280,94L280,94L279,95L279,95L279,94L278,95L278,95L279,94L279,93L279,93L279,94L279,94L280,93L280,93L280,93L280,93L281,93L281,94Z"/><path d="M333,393L334,393L334,393L335,393L335,393L335,393L334,394L333,394L333,395L332,395L331,395L331,394L332,394L333,394L332,394L332,394L333,393L332,393L332,393L333,393Z"/><path d="M132,100L132,100L133,100L133,101L132,101L133,101L133,100L133,100L134,100L134,100L134,101L133,102L131,102L132,102L132,102L131,101L131,101L130,100L130,100L132,100Z"/><path d="M1000,295L999,296L999,297L1000,296L1000,296L999,296L999,297L998,297L998,296L997,297L996,297L996,297L996,296L996,296L997,296L997,296L998,296L999,295L1000,295Z"/><path d="M795,255L795,255L797,257L796,258L796,258L796,258L796,258L795,258L794,257L794,257L794,256L793,256L792,256L793,255L793,255L793,254L794,255L794,254L794,254Z"/><path d="M337,392L338,393L338,393L338,393L338,393L338,393L339,393L339,393L339,394L338,394L337,394L337,395L336,395L335,395L334,395L335,394L336,394L336,393L336,393Z"/><path d="M354,56L356,56L356,56L356,57L355,57L351,58L350,57L349,57L350,57L351,57L350,57L348,57L347,56L348,56L348,56L348,55L348,55L350,55L352,55Z"/><path d="M279,45L283,45L286,46L287,46L287,47L288,47L289,47L288,48L282,48L280,48L278,48L277,47L277,47L276,46L276,46L275,46L275,45L276,45L278,45Z"/><path d="M835,213L836,213L836,213L837,213L838,214L837,214L837,215L837,216L837,216L837,216L836,216L836,215L836,215L835,214L835,213L835,213L834,213L834,212L835,213Z"/><path d="M397,400L398,400L398,400L398,401L399,401L399,401L400,402L400,402L401,402L400,402L399,402L399,401L398,401L397,401L396,400L395,400L394,400L396,400L397,400Z"/><path d="M758,218L757,217L757,217L757,216L758,216L758,216L758,215L758,214L758,214L758,213L759,213L759,213L758,214L758,214L758,215L758,216L758,217L758,217L758,218Z"/><path d="M126,88L128,89L128,90L128,90L128,89L127,89L127,89L127,89L128,90L128,91L128,91L126,92L126,91L126,90L126,90L126,89L125,88L125,88Z"/><path d="M848,215L848,216L849,216L849,217L849,217L849,218L849,219L849,219L849,219L848,219L847,219L847,218L847,217L847,217L846,217L846,216L845,215L848,215Z"/><path d="M565,142L566,142L567,143L567,143L567,144L568,144L568,144L568,144L568,144L567,144L567,144L567,143L566,143L565,143L565,142L564,142L564,142L565,142Z"/><path d="M123,88L123,89L123,89L124,89L125,89L125,89L124,89L125,90L125,90L124,90L123,90L122,90L121,89L121,89L121,88L122,89L122,88L123,88Z"/><path d="M299,136L299,136L299,136L300,136L299,136L298,137L296,137L295,137L295,137L294,137L295,137L295,136L296,136L296,136L296,136L297,136L298,136L299,136Z"/><path d="M240,42L240,42L240,42L240,43L238,43L237,43L235,42L233,42L232,42L232,42L232,42L233,41L233,41L234,40L237,40L239,40L240,41L240,42Z"/><path d="M846,218L847,218L847,219L847,220L848,220L848,221L848,221L848,222L847,221L847,222L847,222L846,221L847,220L846,220L846,219L845,218L846,218L846,218Z"/><path d="M193,33L196,33L194,34L192,34L194,34L194,34L194,35L193,35L191,35L188,35L186,35L186,34L186,34L185,34L185,34L186,34L191,33L193,33Z"/><path d="M842,225L842,225L841,224L840,223L840,222L841,222L841,221L841,221L842,220L842,220L843,220L843,220L843,221L842,222L842,223L843,224L842,225Z"/><path d="M295,370L294,370L293,370L294,370L294,368L294,368L294,367L294,366L294,366L296,367L296,367L296,368L295,368L295,368L296,369L296,369L295,370Z"/><path d="M134,102L134,103L134,103L134,103L135,104L135,104L135,104L135,105L136,105L135,105L134,104L133,103L133,103L133,103L132,102L133,102L134,102Z"/><path d="M925,263L924,263L924,262L924,261L923,260L922,260L922,259L921,258L919,258L919,257L920,258L921,258L922,259L923,259L925,261L925,262L925,263Z"/><path d="M339,428L340,428L340,428L341,428L341,429L341,429L340,429L339,429L339,429L338,429L339,428L338,428L338,428L338,428L339,427L339,427L339,428Z"/><path d="M77,88L77,88L78,88L78,88L77,88L77,88L77,88L77,89L76,89L76,88L76,89L75,89L74,89L75,88L76,88L76,88L76,88Z"/><path d="M596,151L594,152L595,153L594,153L593,153L592,154L592,154L591,154L591,154L590,153L590,153L591,152L591,152L592,152L593,152L595,151L596,151Z"/><path d="M483,88L482,88L482,89L482,89L481,89L481,90L481,89L481,89L480,89L480,89L480,89L480,88L481,88L481,88L481,88L483,87L483,88Z"/><path d="M840,218L841,218L841,218L842,218L842,219L841,219L841,220L840,220L839,221L839,221L839,220L839,220L839,218L839,217L839,217L840,217Z"/><path d="M311,437L310,438L310,438L309,438L309,438L308,438L308,437L309,437L310,436L312,435L312,435L311,436L312,436L312,437L311,437L311,437Z"/><path d="M285,199L286,199L287,199L288,200L287,200L287,200L287,200L286,200L286,200L285,200L284,200L283,200L283,199L283,199L283,199L285,199Z"/><path d="M842,263L842,263L842,263L842,264L842,264L842,265L842,265L842,265L841,265L841,266L841,265L841,265L841,264L841,264L841,263L842,262Z"/><path d="M995,298L995,298L996,299L996,300L996,300L996,300L995,301L994,301L993,300L992,300L993,300L993,299L993,299L993,299L995,298L995,298Z"/><path d="M833,276L834,277L834,277L835,277L836,278L835,278L835,279L834,278L833,278L832,277L831,277L830,277L831,276L832,276L833,276L833,276Z"/><path d="M908,41L910,40L913,41L913,41L916,41L918,41L919,41L918,42L916,42L912,42L910,42L909,42L906,41L907,40L908,40Z"/><path d="M295,373L294,374L295,374L295,375L295,375L295,376L295,376L294,376L294,375L293,374L293,374L294,373L294,373L295,373L295,373Z"/><path d="M195,32L196,32L196,32L196,32L194,32L192,32L191,32L190,33L189,32L186,33L185,32L187,32L190,32L192,31L194,31Z"/><path d="M553,55L554,55L554,56L553,56L553,56L552,57L550,57L551,57L551,56L551,56L552,56L552,56L553,55L553,55L553,55Z"/><path d="M933,269L933,269L933,269L933,269L932,269L932,269L931,268L931,268L931,267L930,267L930,266L930,266L930,265L930,265L931,265L931,266L931,266L932,267L932,267L932,267L933,268L933,268Z"/><path d="M563,87L563,87L564,87L565,88L564,88L564,88L563,88L562,88L562,88L562,89L561,89L561,89L562,88L561,88L561,88L561,88L561,88L561,87L561,88L562,87L562,87L563,87Z"/><path d="M0,51L1,51L2,51L2,51L3,51L5,51L5,51L6,52L7,52L7,52L6,53L4,53L2,53L1,53L0,53L999,53L997,53L996,53L996,52L997,52L999,52L1000,51Z"/><path d="M130,92L130,92L130,92L131,92L131,92L131,93L131,93L130,93L130,92L130,92L130,93L130,93L130,93L130,93L129,93L129,93L129,93L129,92L128,92L128,92L128,92L129,91Z"/><path d="M267,67L268,67L269,67L269,68L268,68L268,68L268,67L268,68L268,68L267,68L267,67L267,67L267,67L266,67L266,67L266,67L265,66L265,66L266,66L267,67L268,67L267,67Z"/><path d="M863,250L864,250L865,251L865,251L864,251L864,251L864,251L863,251L863,250L863,250L863,251L864,251L863,251L863,251L863,251L862,251L862,251L862,250L862,250L863,250L863,250Z"/><path d="M429,53L429,53L429,53L430,53L430,54L428,54L428,54L427,54L426,54L423,54L422,54L422,54L422,54L423,54L423,53L424,53L425,53L427,53L429,53L429,53L429,53Z"/><path d="M316,199L316,199L316,199L317,199L318,199L317,200L317,200L316,200L316,200L315,200L315,200L314,200L314,200L313,200L313,199L313,199L313,199L313,199L314,199L316,199L316,199Z"/><path d="M496,82L497,82L497,82L497,82L497,83L497,83L497,83L496,84L496,83L496,83L496,83L496,83L496,83L495,83L495,83L496,83L496,82L496,82L496,82L496,82L496,82Z"/><path d="M668,56L668,56L668,56L667,56L666,56L666,56L666,56L665,56L664,56L664,56L663,55L663,55L662,55L663,55L663,54L664,54L665,55L665,55L667,55L668,56Z"/><path d="M39,82L39,82L39,82L40,83L40,83L40,83L40,83L40,84L39,84L39,84L38,84L38,84L36,83L35,83L35,83L37,83L37,82L38,82L38,82L38,82Z"/><path d="M913,124L912,124L911,125L910,125L910,125L909,126L909,126L908,126L909,126L909,125L910,125L910,124L911,124L911,124L911,124L913,124L913,124L913,124L913,124L913,124Z"/><path d="M483,90L483,91L483,91L483,91L484,91L484,91L484,91L483,92L483,92L483,91L482,91L482,91L481,91L481,90L482,90L482,90L482,90L482,90L482,90L483,90Z"/><path d="M549,57L549,57L550,57L550,57L550,57L550,57L550,58L549,58L548,58L547,58L547,58L547,58L547,58L547,58L547,57L548,57L548,57L548,57L548,57L549,57Z"/><path d="M290,60L291,61L291,61L291,61L291,61L291,62L291,63L291,63L289,63L287,63L286,63L286,63L285,62L285,62L286,61L287,60L287,60L288,60L289,60L290,60Z"/><path d="M293,397L294,397L294,397L295,397L296,398L296,398L296,398L297,398L296,398L296,398L296,398L295,398L294,397L294,397L293,397L293,397L292,397L293,397L293,397Z"/><path d="M303,402L303,403L303,403L304,403L305,403L304,403L304,403L304,403L304,403L303,403L303,403L303,403L302,403L302,402L302,403L302,403L302,402L302,402L303,402Z"/><path d="M874,266L874,266L874,267L874,267L874,267L874,268L874,268L873,267L873,267L873,267L873,267L873,267L873,266L873,266L873,265L874,265L874,265L874,265L874,266Z"/><path d="M33,102L32,102L32,103L32,103L31,103L30,103L31,103L31,103L31,103L31,102L32,102L32,102L32,102L32,102L32,102L33,101L33,101L34,101L34,102Z"/><path d="M279,56L280,56L279,57L278,57L278,57L278,57L277,57L277,57L277,57L277,57L276,56L276,56L276,56L277,56L277,56L277,56L278,56L278,56L279,56Z"/><path d="M632,25L634,25L635,26L635,26L635,26L633,26L632,26L632,26L631,26L631,26L630,26L629,27L628,26L628,26L626,26L625,26L629,26L631,26L632,25Z"/><path d="M165,455L166,455L164,456L164,456L164,456L164,456L159,457L158,456L159,456L159,456L159,456L158,455L158,455L157,455L158,455L158,455L160,455L163,455L165,455Z"/><path d="M46,97L46,98L47,98L47,98L46,98L46,98L44,98L43,99L43,99L42,99L42,99L42,98L42,98L43,98L43,97L44,97L45,97L46,97L46,97Z"/><path d="M280,59L280,59L279,59L280,58L280,58L281,58L281,58L281,58L281,57L282,57L282,57L283,57L283,57L283,58L282,58L282,58L281,58L281,59L280,59Z"/><path d="M821,273L821,273L821,273L820,274L820,274L820,275L820,275L820,274L820,274L819,274L819,273L818,273L818,273L818,273L818,273L819,273L820,272L820,273Z"/><path d="M58,472L53,472L46,471L45,471L44,470L44,470L45,469L46,469L47,469L48,469L50,469L52,469L55,470L56,471L57,471L58,471L58,471L58,472Z"/><path d="M856,176L856,176L855,177L855,177L855,177L855,177L855,177L855,178L855,177L855,177L855,176L855,176L855,176L856,176L856,176L856,176L856,175L856,176Z"/><path d="M553,89L553,90L552,90L553,91L552,91L552,91L551,91L551,92L550,92L551,91L550,91L550,91L550,90L551,90L551,89L552,89L553,89L553,89Z"/><path d="M325,429L325,429L325,429L325,429L324,430L324,430L323,430L323,430L322,430L322,430L322,430L323,429L322,429L323,429L323,429L324,429L324,429L325,429Z"/><path d="M295,446L295,447L293,447L288,448L288,448L287,447L288,447L289,447L291,447L292,446L292,446L292,446L293,447L293,446L294,446L294,446L295,446L295,446Z"/><path d="M293,453L293,453L293,454L293,454L293,454L293,454L289,454L289,453L289,453L289,453L290,453L291,453L291,453L290,453L290,452L293,452L294,453L293,453Z"/><path d="M895,45L896,45L898,46L899,47L898,47L896,47L895,46L892,46L891,46L889,46L888,46L889,46L890,46L891,45L892,45L892,45L894,45L895,45Z"/><path d="M272,75L272,75L272,76L272,76L271,77L269,77L269,77L268,77L267,77L267,77L267,77L267,76L268,75L269,75L270,75L271,75L272,75L272,75Z"/><path d="M509,139L509,139L510,140L509,140L509,140L509,141L508,141L508,141L508,140L507,140L507,140L507,140L508,139L509,139L509,139L509,139L509,139Z"/><path d="M305,471L303,471L301,471L301,471L301,471L302,470L304,469L306,469L307,469L314,468L315,468L314,468L313,469L309,469L307,470L307,471L305,471Z"/><path d="M673,25L673,26L672,26L671,26L670,26L669,27L666,27L665,26L665,26L665,26L665,26L666,25L667,25L668,26L670,25L672,25L673,25Z"/><path d="M880,288L880,288L880,288L880,288L880,289L880,289L880,289L880,289L880,290L880,290L879,290L879,289L879,289L879,289L879,288L880,288L880,288Z"/><path d="M843,224L843,224L843,223L843,222L844,221L844,220L844,219L844,219L845,219L845,219L845,219L845,220L844,221L844,222L844,222L843,222L843,224Z"/><path d="M128,92L128,92L129,93L128,93L128,93L128,94L128,94L128,94L128,94L127,94L127,93L127,93L127,93L127,92L127,92L128,92L128,92Z"/><path d="M279,77L280,77L280,77L280,78L279,78L279,79L279,79L278,79L278,79L277,78L277,78L277,78L277,77L278,77L278,77L279,77L279,77Z"/><path d="M208,47L207,47L206,47L205,47L204,46L203,46L203,46L204,45L207,45L208,45L209,45L209,46L210,46L209,46L208,47L208,47L208,47Z"/><path d="M865,272L864,272L864,272L864,272L864,271L865,271L865,271L865,270L865,270L865,270L866,270L866,270L866,271L865,271L865,272L865,272Z"/><path d="M556,82L556,82L556,82L556,83L556,83L556,83L556,83L556,83L555,83L555,83L555,83L555,83L555,82L555,82L555,82L555,82Z"/><path d="M246,250L247,251L247,251L247,252L248,252L247,253L246,253L246,252L246,252L247,252L247,251L246,250L246,250L246,250L246,250L246,250Z"/><path d="M235,57L235,57L235,57L235,57L234,57L234,57L234,57L234,57L234,57L234,57L234,57L233,57L233,57L234,57L234,57L234,57Z"/><path d="M852,259L853,259L853,259L853,259L853,260L853,260L852,261L852,261L852,260L851,260L850,260L850,259L850,259L851,259L852,259L852,259Z"/><path d="M11,371L10,372L10,372L10,372L10,372L10,372L10,372L10,372L10,373L9,373L9,372L10,372L9,372L9,372L9,372L11,371Z"/><path d="M842,253L842,254L843,253L843,253L843,254L843,254L843,254L842,254L842,254L842,254L842,254L842,254L841,254L841,254L842,253L842,253Z"/><path d="M661,23L661,24L663,24L661,24L661,24L660,25L659,25L657,24L657,25L655,24L654,24L656,24L658,24L659,23L660,23L661,23Z"/><path d="M160,116L160,116L160,117L160,117L160,117L160,117L159,117L159,116L159,116L159,116L159,116L159,116L160,116L159,116L159,116L160,116Z"/><path d="M285,178L285,178L285,178L285,177L285,177L285,176L285,175L283,175L284,175L285,175L285,176L285,176L285,176L286,176L286,177L285,178Z"/><path d="M284,181L284,182L284,182L283,182L283,182L283,182L283,182L282,182L282,182L283,181L283,181L283,180L283,180L283,180L284,181L284,181Z"/><path d="M964,465L968,465L970,465L969,466L968,466L965,466L964,466L963,466L962,465L962,465L963,465L962,465L963,464L964,464L964,465Z"/><path d="M944,274L944,274L943,273L942,273L942,272L941,272L941,272L940,271L940,271L941,271L942,272L942,272L943,272L944,273L944,274Z"/><path d="M331,222L329,222L328,222L329,222L329,221L329,221L329,220L329,220L329,220L330,220L331,220L330,220L330,221L331,221L331,222Z"/><path d="M131,98L131,98L131,97L132,98L132,98L131,98L131,98L130,97L130,97L130,97L129,97L129,96L130,97L131,97L131,97Z"/><path d="M136,96L136,96L136,96L136,97L135,97L135,96L135,96L135,96L135,96L135,96L135,96L135,96L135,96L134,96L134,97L134,97L134,97L134,96L134,96L134,96L134,96L134,95L135,95L135,95L136,95L136,95L136,95L136,96L136,96Z"/><path d="M143,103L143,104L143,104L143,104L143,105L143,105L142,105L142,104L142,104L142,104L142,103L142,103L142,104L142,104L142,103L141,103L141,103L141,103L141,103L141,103L141,103L141,102L142,102L142,102L142,102L142,102L142,102L143,102L143,103Z"/><path d="M963,291L963,292L964,292L964,292L964,292L964,291L964,291L964,291L964,292L964,292L964,292L964,292L964,293L964,293L964,293L964,293L964,293L963,293L963,293L963,293L963,293L963,293L963,292L963,291L963,291L963,291L963,291L963,291L963,291Z"/><path d="M947,273L947,274L947,274L947,274L947,274L947,275L947,275L948,275L948,275L948,275L948,276L948,276L948,276L948,277L948,277L948,277L948,276L947,276L947,276L947,275L947,275L946,274L946,274L946,273L946,273L946,273L946,273L946,273L947,273Z"/><path d="M863,282L863,282L864,281L864,282L864,281L864,281L864,281L865,281L865,281L865,281L865,282L865,282L865,282L865,282L865,282L865,282L865,283L864,283L863,283L863,282L862,282L862,281L862,281L862,281L862,281L862,281L863,281L863,281L863,282Z"/><path d="M882,349L883,349L883,349L883,349L884,350L884,350L883,350L883,350L882,350L882,350L882,350L882,350L882,350L881,350L881,350L881,350L880,350L880,350L879,350L879,350L879,349L880,349L881,349L881,349L882,349L882,349L882,349L882,349L882,349Z"/><path d="M844,216L844,216L845,217L845,217L845,217L844,217L844,217L844,217L844,217L844,217L844,217L844,216L843,216L843,216L843,216L843,216L842,217L842,217L842,217L842,216L842,216L842,216L842,215L842,215L843,215L843,215L843,215L843,216L844,216Z"/><path d="M844,273L844,273L844,273L843,273L843,274L843,274L843,274L843,274L843,274L843,274L843,274L843,274L843,274L842,274L842,274L843,273L843,273L843,273L843,273L843,273L843,273L843,273L843,273L843,273L843,273L844,273L844,273L844,273L844,273Z"/><path d="M648,52L648,52L648,52L647,53L647,53L648,53L648,53L647,53L647,53L647,53L647,53L647,52L646,52L646,52L646,52L645,52L645,52L645,52L645,52L646,52L646,52L646,52L646,52L646,52L647,52L647,52L647,52L647,52L648,52Z"/><path d="M216,39L217,39L217,39L217,39L216,39L215,39L215,39L215,39L214,40L213,40L213,39L214,39L213,39L212,39L211,39L212,39L211,39L210,39L210,39L210,38L211,38L212,38L214,38L215,38L215,38L215,38L215,39L215,39L216,39Z"/><path d="M339,422L339,422L340,422L340,422L340,422L340,422L339,422L339,422L338,422L338,423L339,423L338,423L338,423L338,423L337,423L337,423L337,423L337,423L337,423L337,423L337,423L336,423L336,423L337,422L337,422L338,422L338,422L339,422Z"/><path d="M965,295L965,295L965,295L965,295L966,295L966,295L966,295L966,295L966,296L966,296L966,296L966,296L965,296L965,296L965,296L965,296L965,296L965,295L965,295L965,295L965,295L964,295L964,295L964,294L964,294L965,294L965,294L965,295Z"/><path d="M949,279L950,279L950,279L950,279L950,279L950,279L951,280L951,280L951,280L951,280L951,280L950,280L950,280L950,280L949,280L949,279L949,279L949,279L949,279L948,279L948,279L948,279L948,278L948,278L949,278L949,279L949,279L949,279Z"/><path d="M967,380L967,380L967,380L967,380L967,380L967,381L967,380L967,381L967,381L967,381L967,381L966,381L966,381L966,381L966,381L965,381L965,381L965,381L966,381L966,381L966,381L966,381L966,380L966,380L966,380L966,380L967,380L967,380Z"/><path d="M801,258L801,259L800,259L800,259L800,259L800,259L800,259L800,259L800,259L800,259L800,259L799,259L799,259L799,259L799,258L799,258L799,258L799,258L799,258L799,258L799,258L799,257L800,257L800,257L800,257L801,257L801,258L801,258Z"/><path d="M62,190L62,190L62,190L62,191L62,191L62,191L62,191L62,191L62,191L61,191L61,191L61,191L61,191L61,191L61,191L61,191L61,191L61,191L60,190L60,190L60,190L61,190L61,190L61,190L62,190L62,190L62,190L62,190Z"/><path d="M573,141L573,141L574,141L574,141L574,142L574,142L574,141L574,141L574,142L574,142L574,142L573,142L573,142L573,141L573,141L573,141L573,141L572,141L572,141L572,141L572,141L572,141L572,141L572,141L573,141L573,141L573,141L573,141Z"/><path d="M492,86L491,86L492,86L492,86L492,86L492,86L492,86L492,86L492,86L492,86L491,86L491,86L491,86L491,86L491,86L491,86L491,86L491,86L491,86L491,86L491,86L491,86L491,86L491,86L492,86L492,86L492,86L492,86Z"/><path d="M259,62L259,62L259,62L259,62L259,62L259,61L259,61L259,61L259,61L259,61L258,61L258,61L259,61L259,61L259,60L259,60L260,60L260,60L260,61L260,61L260,61L260,61L260,61L260,61L260,62L260,62L260,62L259,62Z"/>
</svg>